<svg width="145" height="145" viewBox="0 0 145 145" fill="none" xmlns="http://www.w3.org/2000/svg">
<circle cx="72.5" cy="72.5" r="70" fill="#F4C692" stroke="#008080" stroke-width="5"/>
<path d="M102.906 77.4825C106.393 71.9324 108.671 65.7096 109.592 59.2198C110.512 52.7301 110.054 46.1192 108.248 39.8184" stroke="#3FC7BF"/>
<path d="M108.252 39.8183C106.892 35.022 103.943 30.8299 99.8887 27.9287" stroke="#3FC7BF"/>
<path d="M99.8856 27.9285C99.3347 27.5343 98.7091 27.2569 98.0472 27.1132C97.3852 26.9695 96.7009 26.9625 96.0362 27.0928C95.3715 27.2231 94.7404 27.4879 94.1817 27.8708C93.623 28.2538 93.1484 28.7469 92.7871 29.3199" stroke="#3FC7BF"/>
<path d="M92.7875 29.3198C92.4884 29.7942 92.368 30.3597 92.4479 30.9148" stroke="#3FC7BF"/>
<path d="M91.4648 33.1548C91.822 32.9109 92.1036 32.5717 92.2777 32.1758C92.4518 31.7799 92.5114 31.3431 92.4498 30.915" stroke="#3FC7BF"/>
<path d="M91.4629 33.1548C90.9414 33.511 90.5061 33.9792 90.1888 34.5253C89.8715 35.0713 89.6802 35.6814 89.6289 36.3109" stroke="#3FC7BF"/>
<path d="M89.6287 36.3105C89.5849 36.8486 89.6921 37.3883 89.9384 37.8687C90.1846 38.3491 90.56 38.7513 91.0225 39.03C91.4849 39.3086 92.0159 39.4526 92.5557 39.4458C93.0955 39.439 93.6227 39.2817 94.078 38.9915" stroke="#3FC7BF"/>
<path d="M101.414 37.6344C98.8854 37.1178 96.2547 37.6045 94.0781 38.9919" stroke="#3FC7BF"/>
<path d="M104.235 53.4431C103.384 47.5773 100.729 42.1214 96.6387 37.8315" stroke="#3FC7BF"/>
<path d="M102.906 77.4824C105.096 69.6619 105.548 61.4571 104.231 53.4434" stroke="#3FC7BF"/>
<path d="M97.5729 67.8067C99.4334 63.0026 100.309 57.8736 100.149 52.7243C99.9884 47.575 98.7947 42.5105 96.6387 37.8315" stroke="#3FC7BF"/>
<path d="M92.5762 65.1794C95.7599 63.1839 98.1618 60.1554 99.3798 56.6008C100.598 53.0462 100.558 49.1811 99.2671 45.6523" stroke="#3FC7BF"/>
<path d="M86.9648 67.0184C88.9567 66.8713 90.8824 66.2399 92.5747 65.1792" stroke="#3FC7BF"/>
<path d="M86.966 67.0186C77.4871 67.7188 68.4978 71.5023 61.3711 77.7913" stroke="#3FC7BF"/>
<path d="M43.6523 93.3292C49.5753 88.1683 55.482 82.9889 61.3723 77.791" stroke="#3FC7BF"/>
<path d="M27.3789 86.8779C27.558 88.6768 28.2286 90.3916 29.3172 91.8348C30.4059 93.2779 31.8707 94.3937 33.5512 95.0599C35.2317 95.726 37.0631 95.917 38.8449 95.6117C40.6267 95.3065 42.2901 94.5168 43.653 93.3293" stroke="#3FC7BF"/>
<path d="M48.4253 68.5843C45.7715 67.9374 43.0014 67.9361 40.347 68.5805C37.6927 69.2248 35.2315 70.4962 33.1698 72.2879C31.1081 74.0796 29.5059 76.3395 28.4977 78.878C27.4895 81.4166 27.1045 84.1599 27.3751 86.8779" stroke="#3FC7BF"/>
<path d="M51.433 70.352C50.6257 69.4805 49.5799 68.8658 48.4258 68.5845" stroke="#3FC7BF"/>
<path d="M51.4328 70.3521C50.8948 69.0632 50.1047 67.8948 49.1088 66.9154C48.113 65.9361 46.9316 65.1655 45.6339 64.649C44.3362 64.1326 42.9484 63.8805 41.5519 63.9078C40.1555 63.935 38.7785 64.2409 37.502 64.8076" stroke="#3FC7BF"/>
<path d="M37.5039 64.8076C31.2446 67.5862 25.9813 72.2072 22.416 78.0543" stroke="#3FC7BF"/>
<path d="M22.4151 78.0542C20.2386 81.6236 19.4113 85.854 20.0828 89.9804C20.7543 94.1067 22.8802 97.8566 26.076 100.552" stroke="#3FC7BF"/>
<path d="M26.0762 100.552C27.3932 101.662 28.9259 102.489 30.5778 102.978C32.2297 103.467 33.965 103.609 35.6745 103.395" stroke="#3FC7BF"/>
<path d="M35.6738 103.395C40.3068 102.815 44.7666 101.27 48.7652 98.8594C52.7639 96.4487 56.2125 93.2262 58.8883 89.3999" stroke="#3FC7BF"/>
<path d="M39.3613 102.722C46.083 101.75 52.5804 99.5992 58.555 96.3696" stroke="#3FC7BF"/>
<path d="M56.8809 101.667C58.6005 97.8206 59.2927 93.5938 58.8898 89.3999" stroke="#3FC7BF"/>
<path d="M56.8801 101.667C56.3368 102.882 56.0876 104.208 56.1527 105.537C56.2178 106.867 56.5952 108.162 57.2545 109.318" stroke="#3FC7BF"/>
<path d="M57.2539 109.318C57.5358 109.812 57.9397 110.226 58.427 110.52C58.9143 110.814 59.4687 110.978 60.0376 110.997" stroke="#3FC7BF"/>
<path d="M60.0371 110.998C60.8087 111.023 61.5745 110.856 62.2652 110.511C62.9558 110.166 63.5495 109.654 63.9924 109.021" stroke="#3FC7BF"/>
<path d="M63.9945 109.021C64.3439 108.522 64.5254 107.925 64.5127 107.316C64.5 106.707 64.2938 106.118 63.9238 105.634" stroke="#3FC7BF"/>
<path d="M63.6764 100.976C63.2438 101.687 63.0359 102.512 63.08 103.343C63.1241 104.174 63.4181 104.973 63.9236 105.634" stroke="#3FC7BF"/>
<path d="M68.3776 96.5884C66.4368 97.5916 64.8095 99.1096 63.6738 100.976" stroke="#3FC7BF"/>
<path d="M87.2641 105.76C87.5599 103.869 87.2439 101.934 86.3623 100.235C85.4807 98.5371 84.0796 97.1649 82.3633 96.3188" stroke="#3FC7BF"/>
<path d="M87.2643 105.76C87.1601 106.543 87.3492 107.337 87.7953 107.989C88.2414 108.641 88.913 109.105 89.6806 109.292" stroke="#3FC7BF"/>
<path d="M89.6816 109.292C91.3453 109.696 93.0857 109.659 94.7306 109.184" stroke="#3FC7BF"/>
<path d="M94.7305 109.184C94.971 109.114 95.1917 108.989 95.3745 108.818C95.5574 108.647 95.6973 108.435 95.7828 108.2C95.8682 107.964 95.8968 107.712 95.8663 107.464C95.8358 107.215 95.747 106.978 95.6071 106.77" stroke="#3FC7BF"/>
<path d="M93.0499 96.6758C92.7062 100.235 93.6111 103.804 95.6094 106.77" stroke="#3FC7BF"/>
<path d="M95.8237 87.9478C94.2901 90.6275 93.3435 93.6027 93.0469 96.676" stroke="#3FC7BF"/>
<path d="M95.8242 87.9477C96.7955 86.2505 97.1434 84.2673 96.8077 82.3408" stroke="#3FC7BF"/>
<path d="M101.899 84.1905C103.017 82.1439 103.376 79.7675 102.91 77.4823C102.444 75.197 101.184 73.1504 99.3535 71.7051" stroke="#3FC7BF"/>
<path d="M97.0391 91.4158C98.8768 89.1613 100.503 86.7427 101.898 84.1904" stroke="#3FC7BF"/>
<path d="M97.0413 91.416C96.4842 92.0994 96.1962 92.9628 96.2314 93.8437" stroke="#3FC7BF"/>
<path d="M96.2285 93.8438C96.3238 96.2281 96.7722 98.5851 97.559 100.838" stroke="#3FC7BF"/>
<path d="M97.5586 100.837C98.1028 102.395 99.0631 103.775 100.335 104.826" stroke="#3FC7BF"/>
<path d="M99.5273 108.757C99.9234 108.641 100.281 108.42 100.56 108.116C100.84 107.813 101.032 107.439 101.115 107.035C101.198 106.631 101.17 106.212 101.033 105.823C100.896 105.433 100.655 105.089 100.337 104.826" stroke="#3FC7BF"/>
<path d="M95.7812 108.2C96.328 108.558 96.9458 108.793 97.5921 108.889C98.2385 108.985 98.898 108.94 99.5252 108.757" stroke="#3FC7BF"/>
<path d="M68.377 96.5884C70.5018 97.1271 72.6854 97.3996 74.8775 97.3996" stroke="#3FC7BF"/>
<path d="M72.3374 97.2773C72.0823 98.6919 72.1814 100.148 72.6259 101.515C73.0704 102.882 73.8464 104.117 74.8847 105.111" stroke="#3FC7BF"/>
<path d="M74.082 108.648C74.4291 108.534 74.7407 108.333 74.9866 108.062C75.2324 107.792 75.4042 107.463 75.485 107.107C75.5659 106.751 75.5531 106.38 75.448 106.03C75.3428 105.68 75.1489 105.363 74.885 105.111" stroke="#3FC7BF"/>
<path d="M69.7383 108.941C71.1877 109.209 72.6812 109.109 74.0817 108.649" stroke="#3FC7BF"/>
<path d="M67.0723 105.768C67.0793 106.523 67.349 107.253 67.8351 107.832C68.3212 108.411 68.9935 108.803 69.7367 108.94" stroke="#3FC7BF"/>
<path d="M67.0712 105.767C67.0614 104.718 66.7307 103.696 66.1234 102.839C65.5161 101.983 64.6613 101.333 63.6738 100.976" stroke="#3FC7BF"/>
<path d="M97.5742 67.8068C97.9026 66.9588 98.2008 66.0995 98.4682 65.2305" stroke="#3FC7BF"/>
<path d="M97.5711 67.8071C97.4269 68.1796 97.3587 68.5771 97.3704 68.9763C97.3822 69.3756 97.4738 69.7684 97.6398 70.1317C97.8057 70.4949 98.0427 70.8213 98.3368 71.0916C98.6308 71.3619 98.976 71.5706 99.352 71.7054" stroke="#3FC7BF"/>
<path d="M97.3381 31.4562C97.3381 31.2461 97.2547 31.0446 97.1061 30.8961C96.9576 30.7475 96.7561 30.6641 96.546 30.6641C96.3359 30.6641 96.1345 30.7475 95.9859 30.8961C95.8374 31.0446 95.7539 31.2461 95.7539 31.4562C95.7539 31.6663 95.8374 31.8677 95.9859 32.0163C96.1345 32.1648 96.3359 32.2483 96.546 32.2483C96.7561 32.2483 96.9576 32.1648 97.1061 32.0163C97.2547 31.8677 97.3381 31.6663 97.3381 31.4562Z" stroke="#3FC7BF"/>
<path d="M41.3125 100.878C46.2306 98.6632 50.6138 95.4151 54.1637 91.3544C57.7135 87.2936 60.3467 82.5156 61.8838 77.3457" stroke="#3FC7BF"/>
<path d="M35.9551 102.648C37.7965 102.245 39.5911 101.651 41.31 100.877" stroke="#3FC7BF"/>
<path d="M27.1914 101.39C29.8658 102.854 32.9793 103.3 35.9574 102.648" stroke="#3FC7BF"/>
<path d="M89.8826 66.4414C83.3705 67.8173 77.2313 70.5801 71.8829 74.5419C66.5345 78.5036 62.1025 83.5713 58.8887 89.3998" stroke="#3FC7BF"/>
<path d="M68.3782 96.5884C67.0964 97.2509 65.9458 98.141 64.9824 99.215" stroke="#3FC7BF"/>
<path d="M68.377 96.5885C70.4413 95.5214 72.102 93.8109 73.1075 91.7158C74.1131 89.6208 74.409 87.2552 73.9503 84.9771" stroke="#3FC7BF"/>
<path d="M74.1367 87.8226C78.2201 88.7009 82.4831 88.0817 86.1479 86.0781" stroke="#3FC7BF"/>
<path d="M73.6016 90.5088C78.1035 90.1728 82.4346 88.6434 86.1493 86.0781" stroke="#3FC7BF"/>
<path d="M74.8789 97.3996C78.0778 97.788 81.3148 97.0979 84.0772 95.4388C86.8396 93.7796 88.9694 91.2461 90.1293 88.2397" stroke="#3FC7BF"/>
<path d="M90.1307 88.24C87.5286 87.5661 84.7947 87.5905 82.2051 88.3108" stroke="#3FC7BF"/>
<path d="M82.3633 96.319C88.5546 93.3326 93.6192 88.4311 96.8067 82.3408" stroke="#3FC7BF"/>
<path d="M103.537 75.8227C103.537 75.7068 103.706 74.7916 103.912 73.7889C104.769 69.6248 104.967 67.5146 104.97 62.5232C104.973 57.2652 104.705 54.551 103.816 50.8403C102.794 46.5688 100.735 42.4827 97.8728 39.0408C96.765 37.7089 96.8945 37.5998 99.5747 37.6064C100.642 37.609 101.291 37.5502 101.024 37.475C99.446 37.0303 96.7806 37.4817 94.6503 38.5545C93.0822 39.3442 91.9841 39.4352 91.0315 38.8544C89.2996 37.7983 89.4304 34.9362 91.2767 33.4917C92.1798 32.7851 92.5201 32.1083 92.5201 31.0188C92.5201 30.5298 92.6449 29.8884 92.7975 29.5934C93.2783 28.6635 94.5566 27.6732 95.7083 27.3384C97.7617 26.7415 99.3198 27.3611 101.907 29.8038C105.866 33.5413 107.726 37.184 109.041 43.7751C111.024 53.7091 109.612 64.1633 105.048 73.3468C103.912 75.6314 103.537 76.2466 103.537 75.8227ZM97.3698 31.753C97.6064 31.1082 96.9953 30.4377 96.3246 30.606C95.7221 30.7572 95.4362 31.5397 95.8161 31.9975C96.1807 32.4369 97.1764 32.2802 97.3698 31.753Z" fill="#3FC7BF"/>
<path d="M59.2597 110.755C57.8685 110.333 56.9391 108.981 56.4594 106.68C56.0846 104.883 56.2332 103.824 57.245 101.082C58.6453 97.2877 59.0723 95.0395 59.0804 91.4184L59.0854 89.1957L60.3325 87.2044C62.0734 84.4246 63.8221 82.2286 66.42 79.56C70.2911 75.5835 74.2235 72.7246 79.0874 70.3508C82.2076 68.828 84.7932 67.8362 87.1179 67.2704C90.0096 66.5665 91.4189 66.0285 92.8954 65.0646C96.256 62.8708 98.7504 59.4227 99.8373 55.4686C100.097 54.5244 100.105 55.2437 99.8609 57.5946C99.5787 60.3148 98.9632 63.1654 98.0218 66.1123C97.3284 68.283 97.2118 68.8584 97.3454 69.4508C97.5653 70.4257 98.0006 71.0402 98.855 71.5818C100.622 72.7019 102.103 74.8557 102.696 77.1671C103.097 78.7313 102.963 81.2468 102.4 82.7286C101.814 84.2709 100.102 87.0904 98.0614 89.8722L96.2892 92.2881L96.3107 94.6075C96.3478 98.6242 97.5565 102.208 99.5479 104.206C100.114 104.773 100.678 105.428 100.801 105.66C101.27 106.545 100.947 107.793 100.108 108.343C99.4474 108.776 97.8022 108.9 96.8691 108.588C96.2405 108.378 96.0779 108.221 95.9993 107.75C95.9461 107.431 95.4463 106.257 94.8885 105.141C93.6889 102.741 93.3122 101.41 93.1598 99.0357C92.9557 95.8556 93.9218 91.7476 95.6222 88.5654C96.0347 87.7935 96.5057 86.7123 96.6689 86.1626C96.9718 85.1429 97.0833 82.3324 96.8207 82.3367C96.741 82.338 96.3001 82.9876 95.8409 83.7802C94.1672 86.6697 90.9539 90.3556 88.2717 92.4629C87.1807 93.3201 86.6186 93.4644 87.5185 92.6563C88.099 92.1352 89.3923 90.1948 89.852 89.1556C90.1626 88.4536 90.19 88.2454 89.9885 88.1208C89.5414 87.8445 87.8365 87.6756 85.7555 87.7015L83.7261 87.7268L84.7891 87.0646C85.3738 86.7004 85.9392 86.3687 86.0455 86.3276C86.1518 86.2864 86.1865 86.1959 86.1226 86.1263C86.0588 86.0568 85.45 86.2603 84.7697 86.5786C82.6773 87.5577 80.7253 87.9775 78.121 88.0084C76.8454 88.0236 75.4805 87.9678 75.0879 87.8844L74.3742 87.7327L74.2415 86.3865C74.1686 85.646 74.0549 85.04 73.9889 85.0397C73.9229 85.0395 73.897 85.7778 73.9314 86.6805C74.0101 88.7487 73.7324 90.0934 72.8712 91.8148C71.9199 93.7164 70.4977 95.1697 68.3414 96.4436C66.1465 97.7404 64.3612 99.477 63.546 101.108C62.6921 102.817 62.7781 104.121 63.8499 105.718C64.4348 106.589 64.4641 108.022 63.9153 108.91C63.4256 109.702 62.24 110.492 61.1694 110.739C60.2092 110.96 59.9445 110.962 59.2597 110.755Z" fill="#3FC7BF"/>
<path d="M30.5957 102.517C28.5831 102.066 27.0499 101.285 25.6673 100.005C23.246 97.7635 21.5141 94.9353 20.5869 91.7085C20.2089 90.3932 20.1426 89.7148 20.1426 87.1665C20.1426 83.6609 20.4638 82.217 21.8838 79.3387C25.3269 72.3597 34.7719 64.7484 40.8223 64.0769C43.592 63.7696 46.9226 64.9719 49.0059 67.0312C49.9674 67.9816 51.2552 69.7531 50.8282 69.5379C48.2757 68.2514 46.6037 67.9256 43.3811 68.0868C40.8221 68.2149 38.991 68.6899 36.7214 69.8145C30.8973 72.7005 27.1946 78.7347 27.2005 85.3303C27.2034 88.4693 28.1832 90.9098 30.2663 92.966C32.9785 95.6433 36.9157 96.5499 40.4282 95.3062C42.4668 94.5843 42.078 94.8982 54.898 83.6258C58.3874 80.5575 61.2917 78.0965 61.352 78.1568C61.5303 78.335 60.4573 81.1153 59.3578 83.3241C57.5053 87.0455 55.4736 89.8366 52.3337 92.9733C50.6794 94.626 48.7859 96.2986 47.7387 97.0322C41.3876 101.481 35.0389 103.513 30.5957 102.517Z" fill="#3FC7BF"/>
<path d="M69.7383 108.813C68.2693 108.466 67.4441 107.432 67.1868 105.615C67.0822 104.876 66.8181 103.903 66.5999 103.452C66.1875 102.601 64.6367 101.082 64.1789 101.082C63.7581 101.082 63.8667 100.793 64.6685 99.7788C65.4761 98.7571 67.5599 97.0865 68.2395 96.916C68.4676 96.8587 69.4261 96.9464 70.3694 97.1109C71.3128 97.2754 72.0949 97.4103 72.1076 97.4105C72.1202 97.4109 72.1361 98.0849 72.1428 98.9085C72.162 101.251 72.7837 102.824 74.4717 104.801C75.1936 105.647 75.3197 105.921 75.3197 106.642C75.3197 107.875 74.6399 108.497 72.9782 108.786C71.5607 109.033 70.7006 109.04 69.7383 108.813Z" fill="#3FC7BF"/>
<path d="M32.0257 103.204C31.6005 103.124 31.0569 102.996 30.8177 102.918L30.3828 102.777L30.7694 102.823C30.982 102.848 31.5473 102.918 32.0257 102.978C35.7756 103.446 41.6542 101.416 47.0042 97.8058C51.5417 94.7437 55.5815 90.4436 58.3506 85.7282C59.5634 83.663 61.1528 80.1149 61.7433 78.1547C61.9887 77.3401 62.1056 77.2197 64.1099 75.7151C69.5083 71.6627 75.5086 69.0247 82.2298 67.749C83.5446 67.4995 85.6343 67.2059 86.0278 67.2156C86.1447 67.2184 85.4575 67.4938 84.5008 67.8276C82.1761 68.6386 80.8784 69.1803 78.7991 70.2076C72.4977 73.3211 66.8212 78.0024 62.5289 83.6253C61.6206 84.8151 60.138 87.0391 59.2863 88.4892C58.283 90.1974 57.0667 91.7017 55.0767 93.6958C53.1085 95.6681 52.0446 96.5579 50.0606 97.8908C46.1858 100.494 41.8434 102.236 37.1476 103.072C35.6206 103.343 33.1188 103.408 32.0257 103.204Z" fill="#3FC7BF"/>
<path d="M73.6757 97.2568C72.1739 97.178 70.7387 96.996 69.4489 96.7208L68.7012 96.5612L69.4049 96.0992C70.9665 95.074 72.2959 93.554 73.1456 91.822C73.4106 91.2819 73.6274 90.7904 73.6274 90.7298C73.6274 90.6645 73.8933 90.5933 74.2797 90.5551C76.6257 90.3231 79.0525 89.7044 81.6001 88.6888C83.1624 88.066 83.9748 87.9385 86.3354 87.9456C87.8402 87.9501 88.5621 87.9933 89.128 88.1128C89.5477 88.2013 89.9125 88.2952 89.9386 88.3213C90.0299 88.4126 89.1677 90.0734 88.5314 91.0319C87.7675 92.1826 86.3595 93.6686 85.2261 94.5203C84.2146 95.2805 82.269 96.2929 81.0589 96.6889C79.0956 97.3312 77.4731 97.4561 73.6757 97.2568Z" fill="#3FC7BF"/>
<path d="M73.8697 89.9862C73.9388 89.7565 74.0496 89.2238 74.1159 88.8024C74.1822 88.381 74.2468 88.0231 74.2595 88.0071C74.2723 87.9911 74.7769 88.0506 75.381 88.1394C76.9881 88.3757 79.7221 88.2889 81.3113 87.9512C81.9491 87.8156 82.7938 87.5945 83.1885 87.4597C84.2415 87.1003 84.2311 87.1649 83.1474 87.7169C80.5717 89.0287 77.8156 89.8824 74.9523 90.2553C74.325 90.337 73.7966 90.4039 73.7779 90.4039C73.7593 90.4039 73.8006 90.2159 73.8697 89.9862Z" fill="#3FC7BF"/>
<path d="M90.1069 109.265C88.8668 109.005 88.0653 108.413 87.6045 107.417C87.4171 107.012 87.4034 106.839 87.4313 105.234C87.4562 103.803 87.4281 103.327 87.2747 102.575C86.9417 100.945 86.1197 99.346 85.0033 98.1558C84.4637 97.5805 83.1358 96.5466 82.7995 96.4399C82.6271 96.3852 82.7172 96.3084 83.3544 95.9674C88.6865 93.1143 93.3409 88.6428 96.2282 83.5993C96.8165 82.5718 96.8736 82.6227 96.796 84.1055C96.7161 85.6318 96.4701 86.4122 95.3904 88.5646C93.9981 91.3401 93.2635 93.7454 92.963 96.5121C92.5924 99.9253 93.3936 103.384 95.2626 106.437C95.6404 107.055 95.7603 107.342 95.7603 107.632C95.7603 108.176 95.4213 108.725 94.9452 108.952C93.9549 109.425 91.5948 109.577 90.1069 109.265Z" fill="#3FC7BF"/>
<path d="M102.78 76.5825C102.456 74.9639 100.531 72.2821 99.1215 71.4868C97.7236 70.6979 97.1688 69.2615 97.7021 67.8118C98.2124 66.425 98.7766 64.5827 99.1346 63.1349C99.8827 60.1096 100.148 57.9581 100.3 53.6801C100.431 49.967 100.313 48.7441 99.5772 46.2395C99.3977 45.6283 99.0751 44.4715 98.8602 43.669C98.463 42.1848 97.9428 40.6439 97.3942 39.3262C97.2268 38.9241 97.1057 38.58 97.1251 38.5617C97.1445 38.5434 97.4648 38.8978 97.8368 39.3492C101.198 43.4274 103.253 48.0283 104.111 53.3908C104.696 57.0501 104.887 59.839 104.812 63.5863C104.742 67.0896 104.51 69.4233 103.917 72.6221C103.612 74.2679 102.991 76.8742 102.904 76.8742C102.868 76.8742 102.812 76.7429 102.78 76.5825Z" fill="#3FC7BF"/>
<path d="M42.4647 101.944C42.6773 101.856 43.3513 101.588 43.9626 101.35C49.2984 99.2688 54.3513 95.4671 57.9562 90.8214C58.4173 90.2272 58.8072 89.7539 58.8228 89.7694C58.8383 89.785 58.8515 90.6312 58.8521 91.6498C58.853 93.4088 58.6582 95.6284 58.4561 96.1602C58.3098 96.5449 54.3225 98.4184 51.0909 99.621C48.5046 100.583 44.0034 101.857 42.513 102.048L42.0781 102.104L42.4647 101.944Z" fill="#3FC7BF"/>
<path d="M68 39.5C83.2417 39.5 95.5 51.6417 95.5 66.5C95.5 81.3582 83.2417 93.5 68 93.5C52.7583 93.5 40.5 81.3583 40.5 66.5C40.5 51.6417 52.7583 39.5 68 39.5Z" stroke="#008080" stroke-width="7"/>
<line x1="89.4402" y1="87.4909" x2="112.893" y2="110.299" stroke="#008080" stroke-width="7"/>
</svg>
