<svg width="195" height="195" viewBox="0 0 195 195" fill="none" xmlns="http://www.w3.org/2000/svg">
<g clip-path="url(#clip0_91_873)">
<path d="M142.615 116.302C147.143 109.095 150.101 101.015 151.297 92.5874C152.492 84.1603 151.897 75.5759 149.552 67.394" stroke="#16B2A9"/>
<path d="M149.552 67.3941C147.785 61.1659 143.956 55.7224 138.691 51.9551" stroke="#16B2A9"/>
<path d="M138.692 51.9551C137.977 51.4432 137.165 51.0829 136.305 50.8963C135.445 50.7097 134.557 50.7008 133.694 50.8699C132.83 51.0391 132.011 51.3829 131.285 51.8802C130.56 52.3775 129.944 53.0178 129.475 53.7618" stroke="#16B2A9"/>
<path d="M129.474 53.7618C129.086 54.3779 128.929 55.1121 129.033 55.833" stroke="#16B2A9"/>
<path d="M127.754 58.7415C128.218 58.4247 128.583 57.9843 128.809 57.4702C129.036 56.9561 129.113 56.3889 129.033 55.833" stroke="#16B2A9"/>
<path d="M127.755 58.7415C127.077 59.204 126.512 59.812 126.1 60.5211C125.688 61.2302 125.44 62.0223 125.373 62.8397" stroke="#16B2A9"/>
<path d="M125.372 62.8397C125.315 63.5384 125.454 64.2392 125.774 64.863C126.094 65.4869 126.581 66.0091 127.182 66.371C127.782 66.7328 128.472 66.9198 129.173 66.911C129.874 66.9022 130.558 66.6978 131.149 66.3211" stroke="#16B2A9"/>
<path d="M140.677 64.5584C137.393 63.8875 133.977 64.5196 131.15 66.3211" stroke="#16B2A9"/>
<path d="M144.336 85.0867C143.231 77.4697 139.784 70.385 134.473 64.8146" stroke="#16B2A9"/>
<path d="M142.615 116.302C145.459 106.147 146.046 95.4928 144.335 85.0868" stroke="#16B2A9"/>
<path d="M135.686 103.738C138.102 97.4999 139.239 90.8397 139.031 84.1532C138.822 77.4667 137.272 70.8903 134.473 64.8146" stroke="#16B2A9"/>
<path d="M129.197 100.326C133.331 97.7352 136.45 93.8026 138.032 89.1869C139.614 84.5711 139.562 79.5522 137.886 74.97" stroke="#16B2A9"/>
<path d="M121.912 102.715C124.499 102.524 126.999 101.704 129.197 100.326" stroke="#16B2A9"/>
<path d="M121.913 102.715C109.605 103.624 97.932 108.537 88.6777 116.703" stroke="#16B2A9"/>
<path d="M65.668 136.88C73.3591 130.179 81.0291 123.453 88.6779 116.703" stroke="#16B2A9"/>
<path d="M44.5352 128.503C44.7677 130.839 45.6385 133.066 47.0522 134.94C48.4658 136.814 50.3679 138.262 52.5501 139.127C54.7323 139.992 57.1104 140.24 59.4241 139.844C61.7378 139.448 63.8978 138.422 65.6676 136.88" stroke="#16B2A9"/>
<path d="M71.8692 104.748C68.4233 103.908 64.8262 103.906 61.3794 104.743C57.9326 105.58 54.7367 107.231 52.0595 109.557C49.3823 111.884 47.3019 114.818 45.9927 118.115C44.6835 121.411 44.1836 124.973 44.5349 128.503" stroke="#16B2A9"/>
<path d="M75.7741 107.043C74.7258 105.912 73.3678 105.114 71.8691 104.748" stroke="#16B2A9"/>
<path d="M75.7742 107.043C75.0756 105.37 74.0496 103.852 72.7565 102.581C71.4634 101.309 69.9292 100.308 68.2441 99.6377C66.559 98.967 64.7569 98.6397 62.9436 98.6751C61.1302 98.7104 59.3423 99.1077 57.6846 99.8436" stroke="#16B2A9"/>
<path d="M57.6849 99.8436C49.557 103.452 42.7224 109.452 38.0928 117.045" stroke="#16B2A9"/>
<path d="M38.0923 117.045C35.2661 121.68 34.1918 127.173 35.0637 132.531C35.9357 137.889 38.6962 142.759 42.8461 146.259" stroke="#16B2A9"/>
<path d="M42.8457 146.259C44.5559 147.701 46.5462 148.773 48.6912 149.409C50.8362 150.044 53.0895 150.229 55.3094 149.951" stroke="#16B2A9"/>
<path d="M55.3096 149.951C61.3256 149.198 67.1168 147.191 72.3091 144.061C77.5015 140.931 81.9796 136.746 85.4543 131.778" stroke="#16B2A9"/>
<path d="M60.0957 149.077C68.824 147.814 77.2611 145.022 85.0193 140.828" stroke="#16B2A9"/>
<path d="M82.8457 147.707C85.0787 142.712 85.9776 137.224 85.4544 131.778" stroke="#16B2A9"/>
<path d="M82.8463 147.707C82.1409 149.284 81.8173 151.006 81.9018 152.732C81.9863 154.458 82.4765 156.14 83.3326 157.642" stroke="#16B2A9"/>
<path d="M83.332 157.642C83.6981 158.284 84.2225 158.821 84.8553 159.203C85.4881 159.585 86.2081 159.798 86.9467 159.823" stroke="#16B2A9"/>
<path d="M86.9473 159.823C87.9492 159.856 88.9437 159.639 89.8405 159.191C90.7373 158.743 91.5082 158.078 92.0833 157.257" stroke="#16B2A9"/>
<path d="M92.082 157.257C92.5357 156.609 92.7714 155.833 92.755 155.042C92.7385 154.251 92.4706 153.486 91.9902 152.858" stroke="#16B2A9"/>
<path d="M91.6706 146.81C91.1088 147.733 90.8389 148.804 90.8962 149.883C90.9535 150.963 91.3353 151.999 91.9916 152.858" stroke="#16B2A9"/>
<path d="M97.7779 141.112C95.2577 142.415 93.1446 144.386 91.6699 146.81" stroke="#16B2A9"/>
<path d="M122.301 153.022C122.685 150.567 122.275 148.053 121.13 145.848C119.986 143.643 118.166 141.861 115.938 140.762" stroke="#16B2A9"/>
<path d="M122.302 153.022C122.167 154.038 122.412 155.07 122.991 155.916C123.571 156.763 124.443 157.365 125.44 157.607" stroke="#16B2A9"/>
<path d="M125.439 157.607C127.6 158.132 129.86 158.084 131.996 157.467" stroke="#16B2A9"/>
<path d="M131.996 157.467C132.308 157.377 132.595 157.214 132.832 156.992C133.07 156.77 133.252 156.495 133.363 156.189C133.473 155.884 133.511 155.556 133.471 155.234C133.431 154.911 133.316 154.602 133.134 154.333" stroke="#16B2A9"/>
<path d="M129.809 141.226C129.363 145.848 130.538 150.482 133.133 154.333" stroke="#16B2A9"/>
<path d="M133.416 129.892C131.425 133.371 130.196 137.235 129.811 141.226" stroke="#16B2A9"/>
<path d="M133.416 129.892C134.677 127.688 135.129 125.113 134.693 122.611" stroke="#16B2A9"/>
<path d="M141.303 125.013C142.756 122.355 143.221 119.27 142.616 116.302C142.011 113.335 140.375 110.677 137.998 108.8" stroke="#16B2A9"/>
<path d="M134.992 134.395C137.379 131.468 139.491 128.327 141.302 125.013" stroke="#16B2A9"/>
<path d="M134.993 134.395C134.27 135.283 133.896 136.404 133.941 137.548" stroke="#16B2A9"/>
<path d="M133.941 137.548C134.065 140.644 134.647 143.705 135.669 146.63" stroke="#16B2A9"/>
<path d="M135.67 146.63C136.377 148.653 137.624 150.444 139.276 151.809" stroke="#16B2A9"/>
<path d="M138.223 156.913C138.737 156.763 139.201 156.475 139.564 156.081C139.927 155.687 140.176 155.202 140.284 154.677C140.392 154.153 140.356 153.608 140.178 153.103C140 152.597 139.687 152.15 139.274 151.809" stroke="#16B2A9"/>
<path d="M133.361 156.19C134.071 156.654 134.874 156.959 135.713 157.084C136.552 157.209 137.408 157.151 138.223 156.913" stroke="#16B2A9"/>
<path d="M97.7773 141.112C100.537 141.812 103.372 142.166 106.219 142.166" stroke="#16B2A9"/>
<path d="M102.916 142.006C102.585 143.843 102.713 145.734 103.29 147.509C103.868 149.284 104.875 150.888 106.224 152.179" stroke="#16B2A9"/>
<path d="M105.182 156.773C105.632 156.625 106.037 156.363 106.356 156.012C106.675 155.661 106.898 155.234 107.003 154.771C107.108 154.309 107.092 153.827 106.955 153.372C106.819 152.918 106.567 152.507 106.224 152.179" stroke="#16B2A9"/>
<path d="M99.541 157.152C101.423 157.5 103.363 157.37 105.181 156.773" stroke="#16B2A9"/>
<path d="M96.082 153.031C96.0912 154.013 96.4413 154.961 97.0726 155.712C97.7038 156.464 98.5768 156.973 99.5419 157.152" stroke="#16B2A9"/>
<path d="M96.0815 153.031C96.0688 151.668 95.6394 150.341 94.8508 149.229C94.0622 148.117 92.9522 147.273 91.6699 146.81" stroke="#16B2A9"/>
<path d="M135.686 103.738C136.112 102.637 136.499 101.521 136.846 100.393" stroke="#16B2A9"/>
<path d="M135.686 103.738C135.499 104.222 135.41 104.738 135.426 105.257C135.441 105.775 135.56 106.285 135.775 106.757C135.991 107.228 136.298 107.652 136.68 108.003C137.062 108.354 137.51 108.625 137.999 108.8" stroke="#16B2A9"/>
<path d="M135.385 56.536C135.385 56.2632 135.277 56.0016 135.084 55.8087C134.891 55.6158 134.63 55.5074 134.357 55.5074C134.084 55.5074 133.822 55.6158 133.629 55.8087C133.436 56.0016 133.328 56.2632 133.328 56.536C133.328 56.8088 133.436 57.0705 133.629 57.2634C133.822 57.4563 134.084 57.5646 134.357 57.5646C134.63 57.5646 134.891 57.4563 135.084 57.2634C135.277 57.0705 135.385 56.8088 135.385 56.536Z" stroke="#16B2A9"/>
<path d="M62.6309 146.682C69.0172 143.806 74.7089 139.588 79.3185 134.315C83.9281 129.042 87.3473 122.838 89.3433 116.125" stroke="#16B2A9"/>
<path d="M55.6777 148.981C58.0689 148.457 60.3992 147.687 62.6313 146.682" stroke="#16B2A9"/>
<path d="M44.2939 147.347C47.7668 149.248 51.8098 149.828 55.6769 148.981" stroke="#16B2A9"/>
<path d="M125.702 101.965C117.245 103.752 109.273 107.34 102.328 112.484C95.3834 117.629 89.6284 124.209 85.4551 131.778" stroke="#16B2A9"/>
<path d="M183.479 97.4421C183.477 74.6088 174.404 52.7114 158.258 36.5666C142.111 20.4218 120.213 11.3519 97.3797 11.3519C74.5463 11.3519 52.648 20.4218 36.5015 36.5666C20.355 52.7114 11.2827 74.6088 11.2803 97.4421C11.2827 120.276 20.355 142.173 36.5015 158.318C52.648 174.462 74.5463 183.532 97.3797 183.532C120.213 183.532 142.111 174.462 158.258 158.318C174.404 142.173 183.477 120.276 183.479 97.4421Z" stroke="#16B2A9"/>
<path d="M94.7948 84.0875C85.4076 79.6974 74.7112 79.004 64.8358 82.1455C54.9604 85.287 46.6305 92.0327 41.5049 101.039" stroke="#16B2A9"/>
<path d="M98.3261 99.031C99.2424 97.8726 99.8848 96.5219 100.205 95.08C100.525 93.6381 100.515 92.1424 100.176 90.705C99.8361 89.2675 99.1756 87.9256 98.2438 86.7796C97.3119 85.6336 96.1329 84.7132 94.7949 84.0875" stroke="#16B2A9"/>
<path d="M98.3267 99.0309C100.87 97.4308 102.816 95.0373 103.862 92.2205C104.909 89.4037 104.998 86.3206 104.117 83.4479C103.235 80.5752 101.431 78.073 98.9849 76.3282C96.5384 74.5834 93.5852 73.6932 90.582 73.7954" stroke="#16B2A9"/>
<path d="M90.5814 73.7955C80.8284 74.1272 71.2937 76.77 62.7616 81.5064C54.2296 86.2428 46.9442 92.9375 41.5049 101.04" stroke="#16B2A9"/>
<path d="M85.4844 60.2715C86.7065 63.2109 88.7621 65.7285 91.3976 67.5139C94.0332 69.2993 97.1336 70.2746 100.317 70.3194C103.5 70.3642 106.626 69.4766 109.311 67.766C111.996 66.0555 114.121 63.5967 115.426 60.6929" stroke="#16B2A9"/>
<path d="M85.4844 60.2715C86.847 61.8805 88.5326 63.1852 90.4318 64.101C92.3311 65.0168 94.4016 65.5232 96.5091 65.5875C98.6166 65.6517 100.714 65.2723 102.666 64.4738C104.617 63.6753 106.379 62.4757 107.837 60.9525" stroke="#16B2A9"/>
<path d="M107.836 60.9525C108.894 59.8476 109.521 58.4002 109.603 56.8728C109.686 55.3454 109.218 53.8389 108.286 52.6265C107.353 51.4141 106.017 50.5759 104.52 50.2638C103.022 49.9517 101.462 50.1863 100.123 50.9253" stroke="#16B2A9"/>
<path d="M83.6166 91.5033C81.9973 90.5357 80.1934 89.9178 78.321 89.6893C76.4485 89.4607 74.5489 89.6267 72.7444 90.1765C70.9399 90.7263 69.2705 91.6477 67.8436 92.8814C66.4166 94.1152 65.2637 95.634 64.459 97.3401" stroke="#16B2A9"/>
<path d="M79.1377 96.3376C78.1295 95.3957 76.9384 94.671 75.6384 94.2088C74.3383 93.7465 72.9571 93.5565 71.5806 93.6505C70.204 93.7445 68.8615 94.1205 67.6364 94.7552C66.4113 95.3899 65.3297 96.2698 64.459 97.34" stroke="#16B2A9"/>
<path d="M79.1367 96.3376C79.4538 96.6339 79.8262 96.8646 80.2326 97.0165C80.639 97.1684 81.0715 97.2385 81.5051 97.2229C81.9387 97.2073 82.3649 97.1061 82.7594 96.9253C83.1538 96.7445 83.5086 96.4876 83.8035 96.1694C84.0984 95.8511 84.3275 95.4777 84.4777 95.0706C84.628 94.6636 84.6963 94.2308 84.6788 93.7973C84.6614 93.3638 84.5585 92.9379 84.376 92.5443C84.1936 92.1506 83.9352 91.7968 83.6157 91.5033" stroke="#16B2A9"/>
<path d="M115.425 60.6928C116.349 58.6821 116.515 56.4048 115.89 54.2817C115.266 52.1586 113.895 50.3331 112.029 49.1424C110.164 47.9517 107.931 47.4763 105.742 47.8041C103.554 48.1318 101.558 49.2405 100.123 50.9253" stroke="#16B2A9"/>
<path d="M55.3486 79.5346C62.5285 75.2082 68.1951 68.7676 71.5721 61.0952C74.9491 53.4228 75.8712 44.894 74.2122 36.6771" stroke="#16B2A9"/>
<path d="M55.3486 79.5347C61.42 74.9846 65.5444 68.3054 66.8931 60.839C68.2418 53.3727 66.715 45.6726 62.6193 39.2859" stroke="#16B2A9"/>
<path d="M71.1979 31.3806C70.0909 30.5356 68.7215 30.1078 67.3303 30.1722C65.9391 30.2367 64.6151 30.7894 63.591 31.7331C62.5668 32.6768 61.9079 33.9513 61.7301 35.3325C61.5523 36.7138 61.8669 38.1136 62.6187 39.2859" stroke="#16B2A9"/>
<path d="M74.211 36.6772C74.0901 35.6372 73.7609 34.6322 73.2431 33.7221C72.7253 32.8121 72.0296 32.0157 71.1973 31.3805" stroke="#16B2A9"/>
<path d="M194.88 97.4421C194.876 71.5862 184.602 46.7907 166.317 28.5092C148.033 10.2278 123.236 -0.0423584 97.3799 -0.0423584C71.5239 -0.0423584 46.7268 10.2278 28.4424 28.5092C10.1581 46.7907 -0.116013 71.5862 -0.120117 97.4421C-0.116013 123.298 10.1581 148.094 28.4424 166.375C46.7268 184.656 71.5239 194.927 97.3799 194.927C123.236 194.927 148.033 184.656 166.317 166.375C184.602 148.094 194.876 123.298 194.88 97.4421Z" stroke="#16B2A9"/>
<path d="M78.7871 58.9248C84.0381 58.1355 88.9166 55.742 92.7543 52.0722C96.592 48.4024 99.2012 43.6357 100.224 38.4253" stroke="#16B2A9"/>
<path d="M78.7871 58.9248C83.4437 57.7356 87.4778 54.8283 90.0787 50.7869C92.6797 46.7454 93.6548 41.8694 92.8081 37.1385" stroke="#16B2A9"/>
<path d="M99.7469 34.5948C99.3041 33.8317 98.6067 33.2491 97.777 32.9492C96.9474 32.6494 96.0386 32.6514 95.2103 32.9551C94.382 33.2588 93.6873 33.8446 93.2481 34.6097C92.8088 35.3748 92.6533 36.2701 92.8087 37.1385" stroke="#16B2A9"/>
<path d="M100.224 38.4254C100.406 37.7875 100.457 37.1196 100.375 36.4615C100.293 35.8033 100.079 35.1685 99.7461 34.5948" stroke="#16B2A9"/>
<path d="M97.7786 141.112C96.1142 141.973 94.6201 143.128 93.3691 144.523" stroke="#16B2A9"/>
<path d="M97.7773 141.112C100.458 139.727 102.614 137.505 103.92 134.785C105.226 132.064 105.61 128.993 105.014 126.034" stroke="#16B2A9"/>
<path d="M105.256 129.729C110.558 130.87 116.094 130.066 120.853 127.464" stroke="#16B2A9"/>
<path d="M104.559 133.218C110.404 132.781 116.028 130.795 120.852 127.464" stroke="#16B2A9"/>
<path d="M106.219 142.166C110.373 142.67 114.576 141.774 118.163 139.619C121.75 137.465 124.516 134.175 126.022 130.271" stroke="#16B2A9"/>
<path d="M126.022 130.271C122.643 129.396 119.093 129.428 115.73 130.363" stroke="#16B2A9"/>
<path d="M115.938 140.762C123.977 136.884 130.554 130.52 134.693 122.611" stroke="#16B2A9"/>
<path d="M92.7364 194.599C66.9357 193.584 41.6824 181.454 24.3606 161.755C11.2969 146.899 3.46981 129.454 0.712224 109.05C0.141708 104.828 0.0573158 91.1713 0.575745 86.9638C1.70952 77.7624 3.7133 69.7127 6.82158 61.8728C15.9354 38.8854 32.5647 20.8866 54.7133 10.0374C65.0551 4.97147 75.5712 1.93886 87.4659 0.592208C91.2589 0.162786 103.5 0.162786 107.293 0.592208C119.207 1.94104 130.675 5.27951 140.773 10.3385C151.178 15.5517 160.938 22.8135 168.396 30.8915C182.981 46.6897 191.476 65.1617 194.181 86.9638C194.695 91.1032 194.616 104.529 194.052 108.924C191.13 131.722 181.122 151.818 164.868 167.529C149.25 182.624 128.751 192.1 107.084 194.24C102.456 194.697 98.0358 194.808 92.7364 194.599ZM109.426 182.851C122.772 180.81 134.078 176.515 144.814 169.407C158.142 160.583 168.218 149.036 175.147 134.646C180.5 123.527 183.165 112.448 183.506 99.8892C184.003 81.6247 179.195 64.8165 169.147 49.6936C165.812 44.6742 162.979 41.2346 158.378 36.6196C144.09 22.2878 126.77 13.9974 106.164 11.6259C102.605 11.2163 92.1545 11.2163 88.5953 11.6259C71.2034 13.6274 56.5354 19.7154 42.9173 30.5846C39.6264 33.2112 32.9286 39.9412 30.1442 43.4192C19.9366 56.1691 13.6761 71.2233 11.618 87.9677C11.1259 91.971 11.208 104.102 11.7536 108.019C13.9405 123.714 19.3253 137.03 28.3606 149.085C41.6932 166.873 61.2526 178.805 83.0738 182.462C88.8782 183.435 90.7976 183.56 98.6344 183.471C104.5 183.404 106.595 183.284 109.426 182.851Z" fill="#008080"/>
<path d="M59.7846 75.5838C62.6556 72.5147 64.9985 68.3242 66.2414 64.0352C67.1479 60.9071 67.4221 58.9286 67.4305 55.4546C67.4447 49.6393 66.193 45.2564 62.7511 39.0685C61.6468 37.0833 61.5698 35.5343 62.4782 33.5832C64.5831 29.0623 70.8392 29.3476 73.1405 34.0694C75.0194 37.9245 75.3742 46.6851 73.9216 53.3536C72.0968 61.7299 67.0375 70.1849 60.6738 75.4926C59.564 76.4183 58.5749 77.1757 58.4757 77.1757C58.3766 77.1757 58.9656 76.4593 59.7846 75.5838Z" fill="#16B2A9"/>
<path d="M83.919 56.9118C88.5419 54.177 91.7644 49.5507 92.8768 44.0514C93.2192 42.3593 93.2728 41.2669 93.1385 38.723C92.9979 36.0592 93.0362 35.3943 93.3672 34.7542C93.9204 33.6845 95.1373 33.0055 96.5012 33.0055C98.0588 33.0055 99.1708 33.7376 99.8108 35.1844C100.437 36.599 100.328 38.0073 99.3569 41.0881C97.1063 48.2262 91.7571 54.1186 84.904 57.0089C82.2962 58.1087 81.9529 58.0749 83.919 56.9118Z" fill="#16B2A9"/>
<path d="M97.004 69.758C94.8363 69.2925 91.6767 67.6946 89.9976 66.2149C88.6956 65.0674 86.4629 62.3041 86.4629 61.8401C86.4629 61.7181 86.9904 62.021 87.6351 62.5131C90.4439 64.6571 93.3923 65.6307 97.0765 65.6307C100.795 65.6307 103.88 64.5209 106.709 62.1659C110.353 59.1326 110.763 54.9165 107.704 51.9376C106.163 50.4373 104.789 49.9549 102.523 50.1188L101.001 50.2289L101.701 49.6541C103.901 47.8451 107.962 47.4017 110.738 48.6674C112.584 49.509 114.571 51.4769 115.375 53.2598C115.802 54.2066 115.921 54.9689 115.935 56.8465C115.952 59.1386 115.914 59.3084 114.954 61.2386C113.63 63.9013 110.711 66.8864 108.122 68.2245C104.645 70.0219 100.74 70.5605 97.004 69.758Z" fill="#16B2A9"/>
<path d="M143.434 114.147C143.434 113.997 143.653 112.808 143.921 111.506C145.034 106.099 145.291 103.359 145.295 96.8773C145.298 90.0497 144.95 86.5253 143.797 81.7068C142.469 76.1602 139.796 70.8542 136.079 66.3848C134.641 64.6552 134.809 64.5136 138.289 64.5221C139.675 64.5255 140.518 64.4492 140.171 64.3515C138.122 63.7741 134.661 64.3603 131.894 65.7534C129.858 66.7788 128.432 66.8969 127.195 66.1427C124.946 64.7714 125.116 61.0548 127.514 59.1791C128.686 58.2616 129.128 57.3827 129.128 55.9679C129.128 55.3331 129.29 54.5001 129.489 54.117C130.113 52.9095 131.773 51.6236 133.268 51.1889C135.935 50.4137 137.958 51.2184 141.318 54.3902C146.459 59.2435 148.874 63.9736 150.582 72.5325C153.156 85.432 151.323 99.0071 145.396 110.932C143.922 113.899 143.434 114.698 143.434 114.147ZM135.426 56.9213C135.733 56.084 134.94 55.2133 134.069 55.432C133.286 55.6283 132.915 56.6445 133.408 57.2389C133.882 57.8094 135.175 57.6059 135.426 56.9213Z" fill="#16B2A9"/>
<path d="M85.9389 159.508C84.1324 158.96 82.9255 157.204 82.3026 154.217C81.8159 151.882 82.0088 150.508 83.3227 146.948C85.1411 142.02 85.6956 139.101 85.7061 134.399L85.7125 131.512L87.3319 128.927C89.5925 125.317 91.8634 122.465 95.2368 119C100.263 113.836 105.37 110.124 111.686 107.042C115.737 105.064 119.095 103.776 122.114 103.042C125.869 102.128 127.699 101.429 129.616 100.177C133.98 97.3287 137.219 92.8512 138.63 87.7167C138.967 86.4907 138.978 87.4248 138.661 90.4775C138.294 94.0097 137.495 97.7113 136.273 101.538C135.372 104.357 135.221 105.104 135.394 105.873C135.68 107.139 136.245 107.937 137.355 108.64C139.649 110.095 141.573 112.891 142.342 115.893C142.863 117.924 142.689 121.19 141.958 123.115C141.197 125.117 138.974 128.779 136.324 132.391L134.023 135.528L134.051 138.54C134.099 143.756 135.668 148.409 138.254 151.003C138.989 151.74 139.721 152.59 139.881 152.892C140.49 154.04 140.072 155.662 138.981 156.376C138.124 156.938 135.987 157.1 134.776 156.694C133.96 156.421 133.748 156.217 133.646 155.606C133.577 155.192 132.928 153.667 132.204 152.218C130.646 149.101 130.157 147.373 129.959 144.29C129.694 140.16 130.949 134.826 133.157 130.694C133.692 129.692 134.304 128.288 134.516 127.574C134.909 126.25 135.054 122.6 134.713 122.606C134.61 122.607 134.037 123.451 133.441 124.48C131.267 128.232 127.095 133.019 123.612 135.755C122.195 136.868 121.465 137.055 122.634 136.006C123.388 135.329 125.067 132.81 125.664 131.46C126.067 130.549 126.103 130.278 125.841 130.117C125.261 129.758 123.047 129.539 120.345 129.572L117.709 129.605L119.09 128.745C119.849 128.272 120.583 127.842 120.721 127.788C120.859 127.735 120.904 127.617 120.821 127.527C120.738 127.436 119.948 127.701 119.064 128.114C116.347 129.385 113.813 129.931 110.431 129.971C108.774 129.99 107.002 129.918 106.492 129.81L105.566 129.613L105.393 127.865C105.299 126.903 105.151 126.116 105.065 126.116C104.979 126.116 104.946 127.074 104.99 128.246C105.093 130.932 104.732 132.678 103.614 134.913C102.379 137.383 100.532 139.27 97.7317 140.924C94.8815 142.608 92.5634 144.863 91.5048 146.981C90.396 149.2 90.5076 150.893 91.8994 152.966C92.6589 154.098 92.697 155.959 91.9843 157.112C91.3485 158.14 89.8089 159.166 88.4186 159.487C87.1719 159.774 86.8281 159.777 85.9389 159.508Z" fill="#16B2A9"/>
<path d="M48.7124 148.81C46.099 148.225 44.1081 147.21 42.3127 145.548C39.1686 142.638 36.9196 138.965 35.7156 134.775C35.2248 133.067 35.1387 132.186 35.1387 128.877C35.1387 124.325 35.5558 122.45 37.3997 118.712C41.8706 109.65 54.1353 99.7665 61.992 98.8946C65.5885 98.4955 69.9134 100.057 72.6186 102.731C73.8671 103.965 75.5394 106.265 74.9849 105.986C71.6704 104.315 69.4992 103.892 65.3146 104.102C61.9917 104.268 59.6139 104.885 56.6668 106.345C49.104 110.093 44.2959 117.928 44.3036 126.493C44.3073 130.569 45.5797 133.738 48.2847 136.408C51.8066 139.884 56.9191 141.062 61.4802 139.447C64.1273 138.509 63.6225 138.917 80.2696 124.279C84.8007 120.295 88.5721 117.099 88.6504 117.178C88.8819 117.409 87.4885 121.02 86.0608 123.888C83.6553 128.72 81.0171 132.344 76.9398 136.417C74.7916 138.564 72.3329 140.735 70.973 141.688C62.7259 147.465 54.482 150.103 48.7124 148.81Z" fill="#16B2A9"/>
<path d="M99.5443 156.986C97.6367 156.536 96.5652 155.193 96.231 152.833C96.0952 151.874 95.7523 150.611 95.469 150.025C94.9335 148.919 92.9196 146.948 92.3252 146.948C91.7788 146.948 91.9198 146.572 92.961 145.255C94.0096 143.928 96.7155 141.759 97.5979 141.537C97.8942 141.463 99.1389 141.577 100.364 141.791C101.589 142.004 102.604 142.179 102.621 142.18C102.637 142.18 102.658 143.055 102.667 144.125C102.692 147.166 103.499 149.209 105.691 151.777C106.628 152.875 106.792 153.23 106.792 154.167C106.792 155.767 105.909 156.576 103.751 156.951C101.911 157.272 100.794 157.281 99.5443 156.986Z" fill="#16B2A9"/>
<path d="M80.6356 96.9976C80.1488 96.8797 79.6218 96.5926 79.1963 96.2134C77.7673 94.9397 76.1552 94.1139 74.2783 93.6942C73.7465 93.5752 73.4745 93.5565 72.2822 93.5565C71.0874 93.5565 70.8154 93.5753 70.2588 93.6966C68.5064 94.0785 66.9157 94.8554 65.6313 95.9567C65.3897 96.1638 65.1822 96.3235 65.1702 96.3116C65.117 96.259 66.0389 94.9701 66.5799 94.3406C68.7003 91.8734 71.8123 90.2223 75.1038 89.8182C75.843 89.7274 77.5241 89.7272 78.2743 89.8179C79.7414 89.9951 81.2067 90.4371 82.6418 91.1355C83.611 91.6071 83.8048 91.7742 84.1631 92.4464C85.4418 94.8455 83.2781 97.6372 80.6356 96.9976Z" fill="#16B2A9"/>
<path d="M98.917 98.456C98.917 98.4398 99.0434 98.2216 99.1979 97.9711C99.7057 97.1474 100.155 95.9524 100.4 94.7755C100.532 94.137 100.583 92.4394 100.49 91.7308C100.272 90.0605 99.6173 88.4254 98.62 87.0614C98.13 86.3911 96.9784 85.2749 96.3131 84.8254C95.5431 84.3051 95.2002 84.1187 94.198 83.6751C89.9719 81.8049 85.7939 80.7115 81.0976 80.2467C79.7133 80.1097 76.3627 80.0573 74.9027 80.1498C68.691 80.5434 62.6544 82.2842 57.4241 85.1901C57.0513 85.3972 56.7328 85.5531 56.7163 85.5366C56.6998 85.5201 57.0754 85.2371 57.5509 84.9077C65.8939 79.1285 75.3465 75.5392 85.427 74.3228C88.3236 73.9732 91.4723 73.8501 92.7995 74.0345C96.1789 74.504 99.2632 76.1859 101.379 78.7129C103.092 80.7594 104.17 83.2518 104.499 85.9269C104.594 86.6985 104.579 88.3169 104.469 89.1724C104.151 91.6529 103.109 94.084 101.529 96.0304C101.012 96.6677 100.053 97.6078 99.4299 98.0893C99.1478 98.3072 98.917 98.4722 98.917 98.456Z" fill="#16B2A9"/>
<path d="M79.329 58.6726C83.5546 56.8811 84.9982 55.9696 87.3228 53.6247C91.4552 49.4564 92.9095 45.521 92.7413 38.9618L92.6391 34.9763L93.7995 33.8152C94.7712 32.8428 95.2232 32.6541 96.5794 32.6541C97.9539 32.6541 98.3527 32.8262 99.2155 33.7919C99.7747 34.4177 100.335 35.4766 100.46 36.145C100.786 37.8801 99.8277 41.3364 97.9757 45.1084C94.7312 51.7166 88.7301 56.5675 81.2812 58.6034C79.2005 59.172 78.0552 59.2126 79.329 58.6726Z" fill="#16B2A9"/>
<path d="M50.5728 149.702C50.0206 149.599 49.3147 149.432 49.0042 149.331L48.4395 149.148L48.9414 149.208C49.2175 149.241 49.9516 149.331 50.5728 149.409C55.4421 150.017 63.0757 147.381 70.0228 142.693C75.9149 138.717 81.1607 133.133 84.7564 127.01C86.3313 124.328 88.3952 119.721 89.162 117.175C89.4806 116.117 89.6324 115.961 92.2351 114.007C99.245 108.745 107.037 105.32 115.764 103.663C117.472 103.339 120.185 102.958 120.696 102.97C120.848 102.974 119.956 103.332 118.713 103.765C115.695 104.818 114.009 105.522 111.309 106.856C103.127 110.899 95.7557 116.977 90.1821 124.279C89.0027 125.824 87.0774 128.712 85.9714 130.595C84.6686 132.813 83.0893 134.766 80.5052 137.356C77.9494 139.917 76.5679 141.072 73.9917 142.803C68.9601 146.184 63.3214 148.446 57.2237 149.531C55.2409 149.884 51.9922 149.967 50.5728 149.702Z" fill="#008080"/>
<path d="M104.659 141.98C102.709 141.878 100.845 141.641 99.1702 141.284L98.1992 141.077L99.1131 140.477C101.141 139.146 102.867 137.172 103.97 134.923C104.315 134.221 104.596 133.583 104.596 133.504C104.596 133.42 104.941 133.327 105.443 133.278C108.489 132.976 111.641 132.173 114.949 130.854C116.978 130.045 118.033 129.88 121.098 129.889C123.052 129.895 123.989 129.951 124.724 130.106C125.269 130.221 125.743 130.343 125.777 130.377C125.895 130.496 124.776 132.652 123.949 133.897C122.957 135.391 121.129 137.321 119.657 138.427C118.344 139.414 115.817 140.728 114.246 141.242C111.697 142.077 109.59 142.239 104.659 141.98Z" fill="#008080"/>
<path d="M104.908 132.539C104.998 132.24 105.142 131.549 105.228 131.001C105.314 130.454 105.398 129.99 105.414 129.969C105.431 129.948 106.086 130.025 106.871 130.141C108.958 130.447 112.508 130.335 114.571 129.896C115.4 129.72 116.496 129.433 117.009 129.258C118.376 128.791 118.363 128.875 116.956 129.592C113.611 131.295 110.032 132.404 106.314 132.888C105.499 132.994 104.813 133.081 104.789 133.081C104.765 133.081 104.818 132.837 104.908 132.539Z" fill="#008080"/>
<path d="M125.991 157.573C124.381 157.235 123.34 156.467 122.742 155.173C122.498 154.648 122.48 154.423 122.517 152.339C122.549 150.481 122.513 149.862 122.313 148.887C121.881 146.77 120.814 144.693 119.364 143.148C118.663 142.401 116.939 141.058 116.502 140.92C116.278 140.848 116.395 140.749 117.223 140.306C124.147 136.601 130.19 130.795 133.94 124.246C134.704 122.911 134.778 122.978 134.677 124.903C134.573 126.885 134.254 127.898 132.852 130.693C131.044 134.297 130.09 137.421 129.7 141.013C129.218 145.445 130.259 149.936 132.686 153.902C133.176 154.703 133.332 155.077 133.332 155.453C133.332 156.16 132.892 156.872 132.274 157.167C130.988 157.78 127.923 157.978 125.991 157.573Z" fill="#008080"/>
<path d="M142.449 115.134C142.028 113.032 139.528 109.55 137.699 108.517C135.883 107.492 135.163 105.627 135.855 103.745C136.518 101.944 137.251 99.5518 137.716 97.6717C138.687 93.7433 139.031 90.9496 139.228 85.3944C139.399 80.5729 139.245 78.9849 138.29 75.7326C138.057 74.9389 137.638 73.4368 137.359 72.3946C136.843 70.4674 136.168 68.4666 135.456 66.7554C135.238 66.2332 135.081 65.7865 135.106 65.7627C135.131 65.7389 135.547 66.1991 136.03 66.7853C140.395 72.0809 143.064 78.0553 144.177 85.0188C144.937 89.7704 145.186 93.392 145.088 98.2579C144.996 102.807 144.696 105.837 143.926 109.991C143.529 112.128 142.723 115.513 142.61 115.513C142.563 115.513 142.49 115.342 142.449 115.134Z" fill="#008080"/>
<path d="M64.125 148.066C64.4011 147.952 65.2764 147.605 66.0701 147.295C72.9988 144.593 79.5601 139.656 84.2412 133.623C84.8399 132.852 85.3463 132.237 85.3665 132.257C85.3866 132.278 85.4038 133.376 85.4046 134.699C85.4058 136.983 85.1528 139.865 84.8903 140.556C84.7004 141.055 79.5228 143.488 75.3264 145.05C71.968 146.3 66.123 147.954 64.1877 148.202L63.623 148.274L64.125 148.066Z" fill="#008080"/>
<path d="M64.4219 97.1988C64.4219 96.5296 66.7597 93.6006 68.2784 92.3671C69.1831 91.6323 70.8019 90.6909 71.8755 90.2752C75.8552 88.7344 82.6886 89.6928 84.2031 92.0043C85.1885 93.5082 84.9738 95.2308 83.6538 96.4102C82.2391 97.6743 80.8987 97.7194 79.293 96.5569C74.5394 93.1157 69.6668 92.9959 65.8916 96.2274C65.0832 96.9193 64.4219 97.3564 64.4219 97.1988Z" fill="#16B2A9"/>
</g>
<defs>
<clipPath id="clip0_91_873">
<rect width="195" height="195" fill="white"/>
</clipPath>
</defs>
</svg>
