<svg width="153" height="150" viewBox="0 0 153 150" fill="none" xmlns="http://www.w3.org/2000/svg">
<path d="M149.5 75C149.5 115.025 116.832 147.5 76.5 147.5C36.1675 147.5 3.5 115.025 3.5 75C3.5 34.975 36.1675 2.5 76.5 2.5C116.832 2.5 149.5 34.975 149.5 75Z" fill="white" stroke="#008080" stroke-width="5"/>
<path d="M101.577 52.8041C101.577 46.8591 99.1883 41.1577 94.937 36.954C90.6857 32.7503 84.9197 30.3887 78.9075 30.3887C72.8952 30.3887 67.1292 32.7503 62.8779 36.954C58.6266 41.1577 56.2383 46.8591 56.2383 52.8041C56.2383 58.749 58.6266 64.4504 62.8779 68.6541C67.1292 72.8579 72.8952 75.2195 78.9075 75.2195C84.9197 75.2195 90.6857 72.8579 94.937 68.6541C99.1883 64.4504 101.577 58.749 101.577 52.8041Z" stroke="#008080"/>
<path d="M89.2984 52.8042C89.2978 50.0789 88.2026 47.4655 86.2535 45.5386C84.3044 43.6118 81.6612 42.5293 78.905 42.5293C76.1489 42.5293 73.5056 43.6118 71.5566 45.5386C69.6075 47.4655 68.5123 50.0789 68.5117 52.8042C68.5123 55.5295 69.6075 58.1429 71.5566 60.0698C73.5056 61.9967 76.1489 63.0791 78.905 63.0791C81.6612 63.0791 84.3044 61.9967 86.2535 60.0698C88.2026 58.1429 89.2978 55.5295 89.2984 52.8042Z" stroke="#008080"/>
<path d="M145.998 96.1991C128.03 87.979 108.698 83.0617 88.9492 81.6875" stroke="#008080"/>
<path d="M68.7686 81.5205C48.084 82.6168 27.7997 87.5983 9 96.1988" stroke="#008080"/>
<path d="M111.562 104.917C115.286 107.999 119.667 110.207 124.377 111.374C129.088 112.542 134.004 112.638 138.758 111.657" stroke="#008080"/>
<path d="M111.562 104.917C110.133 103.734 108.329 103.085 106.465 103.085C104.601 103.085 102.796 103.734 101.367 104.917" stroke="#008080"/>
<path d="M90.1133 108.579C94.2004 108.826 98.228 107.516 101.368 104.917" stroke="#008080"/>
<path d="M90.1141 108.58C89.0269 108.514 87.9394 108.703 86.9397 109.13C85.94 109.558 85.0562 110.212 84.3598 111.04C83.6635 111.868 83.1743 112.847 82.9318 113.897C82.6893 114.947 82.7004 116.038 82.9642 117.083" stroke="#008080"/>
<path d="M82.9609 117.083C83.6912 119.976 85.4135 122.529 87.8342 124.307C90.2549 126.086 93.2243 126.979 96.2364 126.835" stroke="#008080"/>
<path d="M97.5126 134.389C98.4302 134.126 99.2182 133.539 99.7269 132.739C100.236 131.94 100.43 130.983 100.273 130.051C100.116 129.12 99.6179 128.277 98.8742 127.684C98.1305 127.091 97.1925 126.789 96.2383 126.835" stroke="#008080"/>
<path d="M97.5114 134.389C95.3523 135.008 93.4615 136.318 92.1349 138.112C90.8082 139.907 90.1205 142.085 90.1793 144.308" stroke="#008080"/>
<path d="M58.2787 104.39C51.9444 100.566 45.0838 97.667 37.9102 95.7847" stroke="#008080"/>
<path d="M54.5273 111.937C55.522 112.314 56.6231 112.309 57.6145 111.924C58.6059 111.539 59.4161 110.802 59.886 109.857C60.3559 108.912 60.4516 107.827 60.1544 106.816C59.8572 105.804 59.1884 104.939 58.2794 104.391" stroke="#008080"/>
<path d="M54.527 111.937C53.1545 111.417 51.6703 111.254 50.2159 111.463C48.7615 111.671 47.3854 112.245 46.2188 113.128" stroke="#008080"/>
<path d="M32.0117 112.334C33.8917 114.125 36.3587 115.19 38.9649 115.336C41.5711 115.482 44.1438 114.699 46.216 113.129" stroke="#008080"/>
<path d="M28.3984 105.317C28.7765 107.991 30.0505 110.462 32.0166 112.334" stroke="#008080"/>
<path d="M33.7557 100.816C33.0858 100.61 32.3741 100.574 31.6868 100.713C30.9994 100.852 30.3586 101.16 29.8238 101.609C29.2891 102.058 28.8778 102.633 28.6281 103.282C28.3784 103.93 28.2984 104.63 28.3956 105.317" stroke="#008080"/>
<path d="M33.7578 100.816C34.0338 100.901 34.3283 100.907 34.6076 100.833C34.8869 100.76 35.1396 100.61 35.3367 100.401C35.5338 100.192 35.6672 99.9326 35.7216 99.6519C35.776 99.3713 35.7492 99.0812 35.6443 98.8149" stroke="#008080"/>
<path d="M37.9135 95.785C37.5339 95.7569 37.1532 95.8244 36.807 95.9811C36.4609 96.1379 36.1605 96.3789 35.9341 96.6815C35.7076 96.9841 35.5624 97.3386 35.512 97.7117C35.4616 98.0849 35.5077 98.4646 35.6459 98.8153" stroke="#008080"/>
<path d="M37.044 96.0001C36.7538 95.9974 36.5745 96.047 36.3153 96.1774C35.7991 96.437 35.3984 96.8853 35.228 97.3942C35.1096 97.7477 35.1191 97.9797 35.3015 99.2233C35.3797 99.7569 35.2843 100.061 34.9052 100.487C34.4385 101.011 33.9703 101.108 32.9185 100.898C31.9277 100.7 31.1623 100.787 30.2405 101.203C29.1082 101.714 28.1489 103.056 28.0173 104.313C27.8945 105.486 28.4369 107.588 29.27 109.167C30.8906 112.238 33.8762 114.481 37.0685 115.027C37.415 115.086 37.8167 115.156 37.961 115.181C38.1054 115.206 38.7906 115.21 39.4836 115.188C41.7778 115.116 43.3533 114.571 45.7061 113.034C47.8572 111.629 49.0838 111.257 51.2963 111.336C52.3239 111.373 52.8026 111.442 53.5014 111.657C53.9923 111.807 54.6686 111.982 55.0042 112.045C56.6614 112.356 58.5987 111.301 59.357 109.674C59.7393 108.853 59.8015 107.574 59.5003 106.729C59.2336 105.98 58.7716 105.315 58.1994 104.855C56.9812 103.876 50.6278 100.619 47.2539 99.2446C43.652 97.777 38.605 96.1286 37.3781 96.0191C37.2496 96.0076 37.1407 96.001 37.044 96.0001ZM105.819 103.251C104.327 103.284 102.847 103.726 101.642 104.559C101.297 104.798 100.565 105.32 100.016 105.72C98.846 106.572 96.908 107.541 95.5015 107.978C93.8193 108.501 92.9064 108.629 90.2513 108.714C88.1149 108.782 87.6924 108.824 87.1015 109.022C83.5756 110.205 81.6769 113.794 82.6861 117.367C84.0213 122.094 87.9953 125.632 92.9679 126.521C93.3194 126.584 94.3796 126.67 95.3236 126.712C96.9702 126.785 97.068 126.802 97.7274 127.122C100.151 128.298 100.696 131.531 98.7886 133.411C98.2708 133.921 97.6689 134.258 96.7614 134.544C95.075 135.076 93.2869 136.268 92.1481 137.62C91.3682 138.546 90.4278 140.353 90.1389 141.481C90.0223 141.937 89.8983 142.694 89.8635 143.163C89.7874 144.19 89.6272 144.143 91.7542 143.707C97.898 142.448 104.415 140.171 109.887 137.373C120.181 132.109 128.943 124.649 135.521 115.551C136.551 114.126 138.044 111.908 137.999 111.87C137.985 111.859 137.445 111.934 136.798 112.038C131.209 112.937 125.209 112.287 119.862 110.204C117.158 109.151 113.847 107.266 111.671 105.543C110.458 104.582 110.25 104.442 109.408 104.026C108.492 103.574 107.481 103.322 106.459 103.263C106.246 103.251 106.033 103.247 105.819 103.251Z" fill="#008080"/>
<path d="M95.5 52.5C95.5 61.2026 88.2481 68.5 79 68.5C69.7519 68.5 62.5 61.2026 62.5 52.5C62.5 43.7974 69.7519 36.5 79 36.5C88.2481 36.5 95.5 43.7974 95.5 52.5Z" stroke="#008080" stroke-width="13"/>
<path d="M78.4753 99.9404L60.2185 66.2095L97.4124 66.5867L78.4753 99.9404Z" fill="#008080"/>
</svg>
