<svg width="97" height="97" viewBox="0 0 97 97" fill="none" xmlns="http://www.w3.org/2000/svg">
<circle cx="48.5" cy="48.5" r="46" fill="white" stroke="#008080" stroke-width="5"/>
<path d="M20.5566 26.0479V69.4016" stroke="#008080" stroke-width="2"/>
<path d="M49.2305 69.4016V26.0479" stroke="#008080" stroke-width="0.680982"/>
<path d="M49.2305 26.0479V69.4016" stroke="#008080" stroke-width="2"/>
<path d="M77.9043 69.4016V26.0479" stroke="#008080" stroke-width="2"/>
<path d="M49.2304 69.4014C44.9167 66.7545 39.9545 65.3535 34.8935 65.3535C29.8325 65.3535 24.8703 66.7545 20.5566 69.4014" stroke="#008080" stroke-width="0.680982"/>
<path d="M49.2304 26.0479C44.9167 23.401 39.9545 22 34.8935 22C29.8325 22 24.8703 23.401 20.5566 26.0479" stroke="#008080" stroke-width="2"/>
<path d="M77.9042 26.0479C73.5905 23.401 68.6283 22 63.5673 22C58.5064 22 53.5442 23.401 49.2305 26.0479" stroke="#008080" stroke-width="2"/>
<path d="M77.9042 69.4014C73.5905 66.7546 68.6283 65.3535 63.5673 65.3535C58.5064 65.3535 53.5442 66.7546 49.2305 69.4014" stroke="#008080" stroke-width="0.680982"/>
<path d="M80.4609 73.5989V30.2451" stroke="#008080" stroke-width="0.680982"/>
<path d="M80.4611 30.2452C79.634 29.7377 78.7805 29.2744 77.9043 28.8574" stroke="#008080" stroke-width="0.680982"/>
<path d="M80.4609 73.5987C76.1472 70.9518 71.185 69.5508 66.124 69.5508C61.063 69.5508 56.1008 70.9518 51.7871 73.5987" stroke="#008080" stroke-width="0.680982"/>
<path d="M18 73.5989V30.2451" stroke="#008080" stroke-width="0.680982"/>
<path d="M20.5568 28.8574C19.6806 29.2744 18.8271 29.7377 18 30.2452" stroke="#008080" stroke-width="0.680982"/>
<path d="M46.6737 73.5987C42.3601 70.9518 37.3979 69.5508 32.3369 69.5508C27.2759 69.5508 22.3137 70.9518 18 73.5987" stroke="#008080" stroke-width="0.680982"/>
<path d="M51.7874 73.5986H46.6738" stroke="#008080" stroke-width="0.680982"/>
<path d="M74.337 33.8937C73.0018 33.3233 71.6234 32.8599 70.2148 32.5078" stroke="#008080" stroke-width="0.680982"/>
<path d="M65.6112 31.7657C64.2511 31.664 62.8854 31.664 61.5254 31.7657" stroke="#008080" stroke-width="0.680982"/>
<path d="M56.9212 32.5078C55.5105 32.8604 54.13 33.3247 52.793 33.8963" stroke="#008080" stroke-width="0.680982"/>
<path d="M74.337 41.4855C73.0018 40.9151 71.6234 40.4517 70.2148 40.0996" stroke="#008080" stroke-width="0.680982"/>
<path d="M65.6112 39.358C64.2511 39.2563 62.8854 39.2563 61.5254 39.358" stroke="#008080" stroke-width="0.680982"/>
<path d="M56.9212 40.0996C55.5105 40.4522 54.13 40.9165 52.793 41.4881" stroke="#008080" stroke-width="0.680982"/>
<path d="M74.337 49.0778C73.0018 48.5074 71.6234 48.044 70.2148 47.6919" stroke="#008080" stroke-width="0.680982"/>
<path d="M65.6112 46.9498C64.2511 46.8481 62.8854 46.8481 61.5254 46.9498" stroke="#008080" stroke-width="0.680982"/>
<path d="M56.9212 47.6919C55.5105 48.0445 54.13 48.5088 52.793 49.0803" stroke="#008080" stroke-width="0.680982"/>
<path d="M74.337 56.6696C73.0018 56.0992 71.6234 55.6358 70.2148 55.2837" stroke="#008080" stroke-width="0.680982"/>
<path d="M65.6112 54.542C64.2511 54.4404 62.8854 54.4404 61.5254 54.542" stroke="#008080" stroke-width="0.680982"/>
<path d="M56.9212 55.2837C55.5105 55.6363 54.13 56.1006 52.793 56.6721" stroke="#008080" stroke-width="0.680982"/>
<path d="M74.337 64.2613C73.0018 63.691 71.6234 63.2276 70.2148 62.8755" stroke="#008080" stroke-width="0.680982"/>
<path d="M65.6112 62.1338C64.2511 62.0322 62.8854 62.0322 61.5254 62.1338" stroke="#008080" stroke-width="0.680982"/>
<path d="M56.9212 62.8755C55.5105 63.2281 54.13 63.6924 52.793 64.2639" stroke="#008080" stroke-width="0.680982"/>
<path d="M74.3359 27.2715V33.8935" stroke="#008080" stroke-width="0.680982"/>
<path d="M74.3359 41.4858V49.0778" stroke="#008080" stroke-width="0.680982"/>
<path d="M74.3359 56.6694V64.2614" stroke="#008080" stroke-width="0.680982"/>
<path d="M52.793 27.2744V33.8964" stroke="#008080" stroke-width="0.680982"/>
<path d="M52.793 41.4883V49.0803" stroke="#008080" stroke-width="0.680982"/>
<path d="M52.793 56.6719V64.2638" stroke="#008080" stroke-width="0.680982"/>
<path d="M74.337 27.2716C73.0018 26.7012 71.6234 26.2378 70.2148 25.8857" stroke="#008080" stroke-width="0.680982"/>
<path d="M65.6112 25.1441C64.2511 25.0425 62.8854 25.0425 61.5254 25.1441" stroke="#008080" stroke-width="0.680982"/>
<path d="M56.9212 25.8857C55.5105 26.2383 54.13 26.7026 52.793 27.2742" stroke="#008080" stroke-width="0.680982"/>
<path d="M56.9199 25.8857V32.5077" stroke="#008080" stroke-width="0.680982"/>
<path d="M56.9199 40.0996V47.6916" stroke="#008080" stroke-width="0.680982"/>
<path d="M56.9199 55.2837V62.8757" stroke="#008080" stroke-width="0.680982"/>
<path d="M61.5254 25.144V31.766" stroke="#008080" stroke-width="0.680982"/>
<path d="M61.5254 39.3579V46.9499" stroke="#008080" stroke-width="0.680982"/>
<path d="M61.5254 54.542V62.134" stroke="#008080" stroke-width="0.680982"/>
<path d="M70.2148 25.8857V32.5077" stroke="#008080" stroke-width="0.680982"/>
<path d="M70.2148 40.0996V47.6916" stroke="#008080" stroke-width="0.680982"/>
<path d="M70.2148 55.2837V62.8757" stroke="#008080" stroke-width="0.680982"/>
<path d="M65.6094 25.144V31.766" stroke="#008080" stroke-width="0.680982"/>
<path d="M65.6094 39.3579V46.9499" stroke="#008080" stroke-width="0.680982"/>
<path d="M65.6094 54.542V62.134" stroke="#008080" stroke-width="0.680982"/>
<path d="M28.2472 32.5078C26.8386 32.8599 25.4602 33.3233 24.125 33.8937" stroke="#008080" stroke-width="0.680982"/>
<path d="M36.9354 31.7657C35.5754 31.664 34.2096 31.664 32.8496 31.7657" stroke="#008080" stroke-width="0.680982"/>
<path d="M45.6692 33.8963C44.3322 33.3247 42.9517 32.8604 41.541 32.5078" stroke="#008080" stroke-width="0.680982"/>
<path d="M28.2472 40.0996C26.8386 40.4517 25.4602 40.9151 24.125 41.4855" stroke="#008080" stroke-width="0.680982"/>
<path d="M36.9354 39.358C35.5754 39.2563 34.2096 39.2563 32.8496 39.358" stroke="#008080" stroke-width="0.680982"/>
<path d="M45.6692 41.4881C44.3322 40.9165 42.9517 40.4522 41.541 40.0996" stroke="#008080" stroke-width="0.680982"/>
<path d="M28.2472 47.6919C26.8386 48.044 25.4602 48.5074 24.125 49.0778" stroke="#008080" stroke-width="0.680982"/>
<path d="M36.9354 46.9498C35.5754 46.8481 34.2096 46.8481 32.8496 46.9498" stroke="#008080" stroke-width="0.680982"/>
<path d="M45.6692 49.0803C44.3322 48.5088 42.9517 48.0445 41.541 47.6919" stroke="#008080" stroke-width="0.680982"/>
<path d="M28.2472 55.2837C26.8386 55.6358 25.4602 56.0992 24.125 56.6696" stroke="#008080" stroke-width="0.680982"/>
<path d="M36.9354 54.542C35.5754 54.4404 34.2096 54.4404 32.8496 54.542" stroke="#008080" stroke-width="0.680982"/>
<path d="M45.6692 56.6721C44.3322 56.1006 42.9517 55.6363 41.541 55.2837" stroke="#008080" stroke-width="0.680982"/>
<path d="M28.2472 62.8755C26.8386 63.2276 25.4602 63.691 24.125 64.2613" stroke="#008080" stroke-width="0.680982"/>
<path d="M36.9354 62.1338C35.5754 62.0322 34.2096 62.0322 32.8496 62.1338" stroke="#008080" stroke-width="0.680982"/>
<path d="M45.6692 64.2639C44.3322 63.6924 42.9517 63.2281 41.541 62.8755" stroke="#008080" stroke-width="0.680982"/>
<path d="M24.125 27.2715V33.8935" stroke="#008080" stroke-width="0.680982"/>
<path d="M24.125 41.4858V49.0778" stroke="#008080" stroke-width="0.680982"/>
<path d="M24.125 56.6694V64.2614" stroke="#008080" stroke-width="0.680982"/>
<path d="M45.6699 27.2744V33.8964" stroke="#008080" stroke-width="0.680982"/>
<path d="M45.6699 41.4883V49.0803" stroke="#008080" stroke-width="0.680982"/>
<path d="M45.6699 56.6719V64.2638" stroke="#008080" stroke-width="0.680982"/>
<path d="M28.2472 25.8857C26.8386 26.2378 25.4602 26.7012 24.125 27.2716" stroke="#008080" stroke-width="0.680982"/>
<path d="M45.6692 27.2742C44.3322 26.7026 42.9517 26.2383 41.541 25.8857" stroke="#008080" stroke-width="0.680982"/>
<path d="M41.541 25.8857V32.5077" stroke="#008080" stroke-width="0.680982"/>
<path d="M41.541 40.0996V47.6916" stroke="#008080" stroke-width="0.680982"/>
<path d="M41.541 55.2837V62.8757" stroke="#008080" stroke-width="0.680982"/>
<path d="M36.9355 25.144V31.766" stroke="#008080" stroke-width="0.680982"/>
<path d="M36.9355 39.3579V46.9499" stroke="#008080" stroke-width="0.680982"/>
<path d="M36.9355 54.542V62.134" stroke="#008080" stroke-width="0.680982"/>
<path d="M28.2461 25.8857V32.5077" stroke="#008080" stroke-width="0.680982"/>
<path d="M28.2461 40.0996V47.6916" stroke="#008080" stroke-width="0.680982"/>
<path d="M28.2461 55.2837V62.8757" stroke="#008080" stroke-width="0.680982"/>
<path d="M32.8496 25.144V31.766" stroke="#008080" stroke-width="0.680982"/>
<path d="M32.8496 39.3579V46.9499" stroke="#008080" stroke-width="0.680982"/>
<path d="M32.8496 54.542V62.134" stroke="#008080" stroke-width="0.680982"/>
<path d="M36.9354 25.1441C35.5754 25.0425 34.2096 25.0425 32.8496 25.1441" stroke="#008080" stroke-width="0.680982"/>
<path d="M46.1366 73.2301C40.7727 70.0994 34.3811 68.8828 28.2262 69.8207C24.881 70.3305 21.6765 71.4421 18.7756 73.0992C18.4138 73.3059 18.104 73.481 18.0872 73.4884C18.0704 73.4958 18.0566 64.8541 18.0566 54.2848V35.0679H19.2826H20.5086V52.2291C20.5086 62.4356 20.5233 69.3995 20.545 69.4128C20.565 69.4252 20.7595 69.3297 20.9771 69.2006C24.2075 67.2841 28.0463 65.9979 31.7835 65.58C33.079 65.4351 33.7852 65.4048 35.3356 65.4275C37.6459 65.4612 39.4087 65.6869 41.5425 66.2221C44.2379 66.8983 46.4511 67.8215 49.128 69.3862C49.2242 69.4425 49.2578 69.4281 49.9118 69.0519C50.7147 68.5901 52.2933 67.81 53.0766 67.4879C55.6155 66.4441 58.2315 65.7945 61.026 65.5138C61.906 65.4254 64.3609 65.39 65.2713 65.4525C67.2523 65.5885 69.1114 65.9026 70.9242 66.4073L71.5974 66.5948V68.3218V70.0487L71.4668 70.0265C71.395 70.0142 71.0739 69.9588 70.7533 69.9033C69.3252 69.6563 68.2244 69.5565 66.6132 69.528C65.248 69.5038 64.2924 69.5448 63.096 69.6786C59.3021 70.1031 55.5784 71.3296 52.3524 73.2174L51.8093 73.5353L49.2326 73.5341L46.656 73.5329L46.1366 73.2301Z" fill="#008080"/>
<path d="M18.0499 39.0459L18.0449 30.2619L18.4419 30.0289C18.6602 29.9008 18.9744 29.7214 19.1403 29.6303C19.4663 29.4511 20.482 28.9277 20.5037 28.9277C20.511 28.9277 20.5147 33.1807 20.512 38.3788C20.5079 46.0917 20.506 46.6572 20.5019 41.4538L20.4968 35.0777H19.2809H18.0651L18.06 41.4538C18.0553 47.2557 18.0545 47.0389 18.0499 39.0459Z" fill="#008080"/>
<path d="M80.1945 73.3881C79.822 73.1591 78.9845 72.7016 78.4293 72.4238C76.535 71.4761 74.6675 70.7908 72.6106 70.2886C72.2667 70.2046 71.8989 70.1202 71.7934 70.101L71.6016 70.0661V68.3367V66.6073L71.6797 66.6264C71.7227 66.6369 71.9973 66.7263 72.29 66.8249C74.0833 67.4292 75.801 68.2115 77.4123 69.158C77.6615 69.3044 77.8822 69.4177 77.9026 69.4098C77.9332 69.3981 77.9398 67.5039 77.9398 58.793V48.1904H79.1762H80.4126V60.8528C80.4126 67.817 80.4094 73.5147 80.4055 73.5143C80.4016 73.5132 80.3066 73.4571 80.1945 73.3881Z" fill="#008080"/>
<path d="M77.9473 38.5611V28.9106L78.6072 29.2546C78.9702 29.4437 79.5173 29.7421 79.8231 29.9177L80.3791 30.237L80.3892 39.2243L80.3994 48.2116H79.1733H77.9473V38.5611Z" fill="#008080"/>
<path d="M24.1758 60.4405V56.6907L24.6448 56.5041C25.7329 56.0712 27.8944 55.3672 28.1355 55.3672C28.1998 55.3672 28.2102 55.9885 28.198 59.1L28.1834 62.8329L27.2268 63.1087C26.4669 63.3278 24.8959 63.8808 24.2753 64.1476C24.1811 64.1881 24.1758 63.9902 24.1758 60.4405Z" fill="#008080"/>
<path d="M32.873 58.3177V54.5887L33.4273 54.552C34.1391 54.5048 35.6431 54.5048 36.3548 54.552L36.9091 54.5887V58.3177V62.0467H34.8911H32.873V58.3177Z" fill="#008080"/>
<path d="M45.3794 64.0976C45.0742 63.9341 43.4711 63.3726 42.5589 63.1096L41.5991 62.8329L41.5845 59.1C41.5723 55.9885 41.5827 55.3672 41.647 55.3672C41.874 55.3672 43.9625 56.0386 44.9957 56.4437L45.6067 56.6833V60.4307C45.6067 62.4919 45.5876 64.1772 45.5641 64.176C45.5407 64.1747 45.4575 64.1394 45.3794 64.0976Z" fill="#008080"/>
<path d="M45.0955 48.7977C44.3595 48.4962 43.3961 48.1665 42.4522 47.8931L41.5995 47.6461L41.5849 43.9178C41.5722 40.6787 41.5812 40.1895 41.6534 40.1895C41.9245 40.1895 44.1056 40.9007 45.2234 41.3535L45.6071 41.509V45.2547C45.6071 47.3149 45.6007 48.9994 45.5929 48.998C45.5851 48.9967 45.3613 48.9065 45.0955 48.7977Z" fill="#008080"/>
<path d="M32.873 43.1399V39.4107L33.342 39.3742C33.947 39.3271 35.8351 39.3271 36.4401 39.3742L36.9091 39.4107V43.1399V46.869H34.8911H32.873V43.1399Z" fill="#008080"/>
<path d="M24.1758 45.2522V41.5055L24.7869 41.2656C25.882 40.8355 27.8931 40.1895 28.1364 40.1895C28.2445 40.1895 28.2488 47.6285 28.1408 47.6614C28.1017 47.6733 27.6616 47.8018 27.1629 47.9471C26.341 48.1866 25.2625 48.5601 24.4742 48.8783L24.1758 48.9988L24.1758 45.2522Z" fill="#008080"/>
<path d="M24.1758 30.5608V27.2974L24.7016 27.0866C25.8335 26.6329 27.8585 25.978 28.1296 25.978C28.2018 25.978 28.2108 26.4072 28.1981 29.2255L28.1834 32.473L27.5288 32.6556C26.5047 32.9411 25.2108 33.3855 24.389 33.7339L24.1758 33.8242V30.5608Z" fill="#008080"/>
<path d="M32.873 28.4449V25.1989L33.308 25.1621C33.8699 25.1146 35.9122 25.1146 36.4742 25.1621L36.9091 25.1989V28.4449V31.691H34.8911H32.873V28.4449Z" fill="#008080"/>
<path d="M45.1859 33.6486C44.6223 33.4048 43.0786 32.8792 42.2817 32.6599L41.5996 32.4722L41.5849 29.2251C41.5722 26.4071 41.5812 25.978 41.6534 25.978C41.9378 25.978 44.7385 26.9025 45.4509 27.2315L45.6072 27.3037V30.5632C45.6072 32.3559 45.6008 33.8218 45.593 33.8207C45.5852 33.8195 45.402 33.7421 45.1859 33.6486Z" fill="#008080"/>
<path d="M52.8262 30.5621V27.3016L53.4941 27.0383C54.5354 26.6278 56.5528 25.978 56.786 25.978C56.8502 25.978 56.8607 26.5211 56.8485 29.2242L56.8338 32.4703L55.9576 32.7238C55.0502 32.9863 53.7142 33.4488 53.1772 33.6863C53.0076 33.7613 52.8593 33.8227 52.8475 33.8227C52.8358 33.8227 52.8262 32.3555 52.8262 30.5621Z" fill="#008080"/>
<path d="M61.582 28.445L61.582 25.1989L61.9657 25.1626C62.4624 25.1157 64.6808 25.1157 65.1775 25.1626L65.5612 25.1989L65.5612 28.445L65.5612 31.6912H63.5716H61.582L61.582 28.445Z" fill="#008080"/>
<path d="M73.9758 33.6972C73.4897 33.4743 72.0452 32.971 71.1793 32.7229L70.3062 32.4727L70.2916 29.2254C70.2793 26.5213 70.2898 25.978 70.3541 25.978C70.6801 25.978 73.9952 27.1052 74.2428 27.3003C74.2982 27.3439 74.3138 28.0706 74.3138 30.5895C74.3138 32.3678 74.2947 33.8205 74.2712 33.8179C74.2478 33.8153 74.1148 33.7609 73.9758 33.6972Z" fill="#008080"/>
<path d="M73.6191 48.7428C72.8508 48.433 71.4715 47.9718 70.7957 47.7986L70.2793 47.6664V43.9279C70.2793 41.3455 70.2978 40.1895 70.3392 40.1895C70.6665 40.1895 74.005 41.3191 74.2443 41.5107C74.2998 41.5552 74.3153 42.3792 74.3153 45.2841C74.3153 47.3281 74.2961 48.998 74.2727 48.9948C74.2492 48.9917 73.9551 48.8783 73.6191 48.7428Z" fill="#008080"/>
<path d="M61.582 43.1395V39.4103L62.0169 39.3735C62.5787 39.326 64.5645 39.326 65.1263 39.3735L65.5612 39.4103V43.1395V46.8688H63.5716H61.582V43.1395Z" fill="#008080"/>
<path d="M52.8262 45.2629V41.5132L53.5225 41.2417C54.632 40.809 56.5534 40.1895 56.7855 40.1895C56.8491 40.1895 56.8622 40.8286 56.8622 43.9279V47.6664L56.344 47.7991C55.5094 48.0129 53.9759 48.5398 52.8972 48.9834C52.8408 49.0066 52.8262 48.2404 52.8262 45.2629Z" fill="#008080"/>
<path d="M52.8262 60.4452V56.6998L53.0109 56.6257C54.2543 56.1273 56.0073 55.5401 56.6775 55.3977L56.8622 55.3584V59.1021V62.8459L56.4501 62.9508C55.6164 63.1631 53.9145 63.7431 52.8972 64.1614C52.8408 64.1846 52.8262 63.4192 52.8262 60.4452Z" fill="#008080"/>
<path d="M61.582 58.3174V54.5884L62.1024 54.5514C62.7677 54.5042 64.2913 54.5044 65.007 54.5518L65.5612 54.5885V58.3175V62.0465H63.5716H61.582V58.3174Z" fill="#008080"/>
<path d="M73.7469 63.9711C73.1679 63.7309 71.2689 63.0963 70.6914 62.95L70.2793 62.8456V59.1064C70.2793 56.7711 70.2997 55.3672 70.3335 55.3672C70.6178 55.3672 73.6179 56.3738 74.143 56.6453L74.3153 56.7344V60.4563C74.3153 62.5034 74.2961 64.1767 74.2727 64.1749C74.2492 64.173 74.0126 64.0813 73.7469 63.9711Z" fill="#008080"/>
</svg>
