<svg width="367" height="162" viewBox="0 0 367 162" fill="none" xmlns="http://www.w3.org/2000/svg">
<g clip-path="url(#clip0_95_1872)">
<path d="M263.669 161.75H103.332V151.708H263.669V161.75Z" stroke="black"/>
<path d="M256.891 150.576H110.107V143H256.891V150.576Z" stroke="black"/>
<path d="M249.576 141.665H117.424V135.681H249.576V141.665Z" stroke="black"/>
<path d="M193.617 134.603C194.049 112.661 193.616 90.7095 192.32 68.801" stroke="black"/>
<path d="M174.679 68.801C173.383 90.7095 172.951 112.661 173.383 134.603" stroke="black"/>
<path d="M192.32 68.8009H174.68" stroke="black"/>
<path d="M173.191 67.2831H193.809V62.8213H173.191V67.2831Z" stroke="black"/>
<path d="M142.076 134.603C142.508 112.661 142.075 90.7095 140.779 68.801" stroke="black"/>
<path d="M123.14 68.801C121.844 90.7095 121.412 112.661 121.844 134.603" stroke="black"/>
<path d="M140.779 68.8009H123.139" stroke="black"/>
<path d="M121.65 67.2831H142.268V62.8213H121.65V67.2831Z" stroke="black"/>
<path d="M226.22 68.801C224.924 90.7095 224.492 112.661 224.924 134.603" stroke="black"/>
<path d="M245.158 134.603C245.59 112.661 245.157 90.7095 243.861 68.801" stroke="black"/>
<path d="M226.221 68.8009H243.861" stroke="black"/>
<path d="M245.35 67.2831H224.732V62.8213H245.35V67.2831Z" stroke="black"/>
<path d="M121.844 134.603H142.077" stroke="black"/>
<path d="M173.383 134.603H193.616" stroke="black"/>
<path d="M224.924 134.603H245.157" stroke="black"/>
<path d="M183.5 50.7451H105.406" stroke="black"/>
<path d="M183.5 50.7451H261.594" stroke="black"/>
<path d="M261.594 50.745L183.5 0.209534" stroke="black"/>
<path d="M105.406 50.745L183.5 0.209534" stroke="black"/>
<path d="M261.595 50.7451L253.365 61.1254" stroke="black"/>
<path d="M183.499 61.1254H113.635" stroke="black"/>
<path d="M183.5 61.1254H253.364" stroke="black"/>
<path d="M105.406 50.7451L113.636 61.1254" stroke="black"/>
<path d="M245.997 50.745L183.5 10.3022" stroke="black"/>
<path d="M121.004 50.745L183.501 10.3022" stroke="black"/>
<path d="M257.48 55.9355H109.521" stroke="black"/>
<path d="M366.751 161.75H264.58V151.708H366.751V161.75Z" stroke="black"/>
<path d="M359.973 150.576H257.803V143H359.973V150.576Z" stroke="black"/>
<path d="M352.657 141.665H250.486V135.681H352.657V141.665Z" stroke="black"/>
<path d="M296.699 134.603C297.131 112.661 296.698 90.7095 295.402 68.801" stroke="black"/>
<path d="M277.761 68.801C276.465 90.7095 276.033 112.661 276.465 134.603" stroke="black"/>
<path d="M295.402 68.8009H277.762" stroke="black"/>
<path d="M276.273 67.2831H296.891V62.8213H276.273V67.2831Z" stroke="black"/>
<path d="M329.302 68.801C328.006 90.7095 327.574 112.661 328.006 134.603" stroke="black"/>
<path d="M348.24 134.603C348.672 112.661 348.239 90.7095 346.943 68.801" stroke="black"/>
<path d="M329.303 68.8009H346.944" stroke="black"/>
<path d="M348.43 67.2831H327.812V62.8213H348.43V67.2831Z" stroke="black"/>
<path d="M276.465 134.603H296.698" stroke="black"/>
<path d="M328.006 134.603H348.239" stroke="black"/>
<path d="M0.25 161.75H102.421V151.708H0.25V161.75Z" stroke="black"/>
<path d="M7.02734 150.576H109.198V143H7.02734V150.576Z" stroke="black"/>
<path d="M14.3418 141.665H116.512V135.681H14.3418V141.665Z" stroke="black"/>
<path d="M71.5989 68.801C70.303 90.7095 69.8706 112.661 70.3025 134.603" stroke="black"/>
<path d="M90.5347 134.603C90.9667 112.661 90.5342 90.7095 89.2383 68.801" stroke="black"/>
<path d="M71.5996 68.8009H89.2399" stroke="black"/>
<path d="M90.727 67.2831H70.1094V62.8213H90.727V67.2831Z" stroke="black"/>
<path d="M38.9937 134.603C39.4256 112.661 38.9932 90.7095 37.6973 68.801" stroke="black"/>
<path d="M20.0579 68.801C18.762 90.7095 18.3296 112.661 18.7615 134.603" stroke="black"/>
<path d="M37.6991 68.8009H20.0586" stroke="black"/>
<path d="M18.5684 67.2831H39.186V62.8213H18.5684V67.2831Z" stroke="black"/>
<path d="M90.5359 134.603H70.3027" stroke="black"/>
<path d="M38.9947 134.603H18.7617" stroke="black"/>
<path d="M104.245 50.7451H4.29102" stroke="black"/>
<path d="M112.474 61.1254H12.5195" stroke="black"/>
<path d="M4.29102 50.7451L12.5205 61.1254" stroke="black"/>
<path d="M156.363 55.9355H109.521" stroke="black"/>
<path d="M262.756 50.7451H362.71" stroke="black"/>
<path d="M254.527 61.1254H354.481" stroke="black"/>
<path d="M362.71 50.7451L354.48 61.1254" stroke="black"/>
<path d="M210.637 55.9355H257.479" stroke="black"/>
<path d="M104.245 50.7451H4.29102" stroke="black"/>
<path d="M119.772 40.3647H21.6289" stroke="black"/>
<path d="M13.3984 50.7451L21.628 40.3647" stroke="black"/>
<path d="M111.751 45.5552H17.5137" stroke="black"/>
<path d="M262.756 50.7451H362.71" stroke="black"/>
<path d="M247.229 40.3647H345.371" stroke="black"/>
<path d="M353.6 50.7451L345.371 40.3647" stroke="black"/>
<path d="M255.25 45.5552H349.487" stroke="black"/>
<path d="M104.244 50.7451L112.474 61.1254" stroke="black"/>
<path d="M103.73 50.7451L119.772 40.3647" stroke="black"/>
<path d="M263.269 50.7451L247.229 40.3647" stroke="black"/>
<path d="M262.757 50.7451L254.527 61.1254" stroke="black"/>
<path d="M108.358 55.9355H8.4043" stroke="black"/>
<path d="M258.641 55.9355H358.595" stroke="black"/>
<path d="M106.959 50.2033C108.135 49.1185 183.452 0.649282 183.763 0.776189C183.955 0.854112 201.307 12.0503 222.323 25.6566L260.534 50.3953L253.492 50.5375L246.449 50.6797L215.317 30.517C198.194 19.4275 183.885 10.3543 183.519 10.3543C183.153 10.3543 168.872 19.4163 151.784 30.4922L120.715 50.63L113.594 50.6402C109.489 50.646 106.679 50.4611 106.959 50.2033Z" fill="#008080"/>
<path d="M251.679 42.8671L248.395 40.7039L296.343 40.5723C322.715 40.5 344.543 40.5364 344.85 40.6532C345.157 40.7701 346.152 41.8048 347.062 42.9526L348.716 45.0395L301.839 45.035L254.963 45.0305L251.679 42.8671Z" fill="#F4C692"/>
<path d="M260.178 48.3957C258.836 47.4672 257.592 46.5617 257.413 46.3835C257.235 46.2054 277.896 46.0597 303.327 46.0597H349.565L351.182 48.1L352.799 50.1403L307.709 50.1122L262.619 50.0841L260.178 48.3957Z" fill="#F4C692"/>
<path d="M260.943 53.4782L262.62 51.2002L312.327 51.1803L362.034 51.1605L360.243 53.3283L358.452 55.4961L308.859 55.6262L259.266 55.7562L260.943 53.4782Z" fill="#F4C692"/>
<path d="M256.787 58.765C257.697 57.6172 258.692 56.5825 258.999 56.4656C259.306 56.3488 281.657 56.3124 308.667 56.3847L357.776 56.5163L356.139 58.665L354.501 60.8137L304.817 60.8328L255.133 60.8519L256.787 58.765Z" fill="#F4C692"/>
<path d="M108.923 54.6052C108.374 53.973 107.494 52.9394 106.967 52.3081L106.008 51.1605H183.486H260.964L259.173 53.3283L257.382 55.4961L183.651 55.6253L109.92 55.7546L108.923 54.6052Z" fill="#008080"/>
<path d="M113.007 59.7061C112.459 59.0738 111.578 58.0401 111.051 57.4089L110.092 56.2612H183.486H256.881L255.09 58.4291L253.299 60.5969L183.652 60.7262L114.005 60.8555L113.007 59.7061Z" fill="#008080"/>
<path d="M19.9373 42.9526C20.847 41.8048 21.8426 40.7701 22.1496 40.6532C22.4566 40.5364 44.2891 40.5 70.6663 40.5723L118.625 40.7039L115.295 42.8717L111.965 45.0395H65.1242H18.2832L19.9373 42.9526Z" fill="#008080"/>
<path d="M15.8791 48.1L17.5199 46.0597L64.013 46.0647L110.506 46.0697L107.295 48.1051L104.084 50.1406H59.1614H14.2383L15.8791 48.1Z" fill="#008080"/>
<path d="M6.95441 53.5833L5.15234 51.4155L54.7086 51.2855C101.44 51.1628 104.305 51.2064 104.969 52.0506C105.356 52.5429 106.145 53.577 106.721 54.3484L107.768 55.7512H58.2625H8.75647L6.95441 53.5833Z" fill="#008080"/>
<path d="M10.8216 58.5341L9.14453 56.2562L58.7378 56.3862L108.331 56.5163L110.122 58.6841L111.913 60.8519L62.2059 60.832L12.4986 60.8122L10.8216 58.5341Z" fill="#008080"/>
<path d="M18.8859 119.383C18.891 104.605 19.5805 79.8408 20.1855 72.7112L20.4993 69.0131H28.8469H37.1945L37.4798 71.181C38.0457 75.4815 38.7884 102.057 38.7884 118.008V134.303H28.8346H18.8809L18.8859 119.383Z" fill="#008080"/>
<path d="M18.8809 64.9325V62.8922H28.8346H38.7884V64.9325V66.9728H28.8346H18.8809V64.9325Z" fill="#008080"/>
<path d="M70.4355 64.9325V62.8922H80.3893H90.3431V64.9325V66.9728H80.3893H70.4355V64.9325Z" fill="#008080"/>
<path d="M70.4405 119.128C70.4456 104.014 71.1487 79.0063 71.7529 72.4561L72.0704 69.0131H80.4043H88.7382L89.0348 71.691C89.6278 77.0456 90.3382 102.299 90.3406 118.108L90.3431 134.303H80.3893H70.4355L70.4405 119.128Z" fill="#008080"/>
<path d="M121.99 64.9325V62.8922H131.944H141.898V64.9325V66.9728H131.944H121.99V64.9325Z" fill="#008080"/>
<path d="M121.99 119.076C121.99 104.065 122.706 78.4194 123.299 72.2011L123.603 69.0131H131.948H140.293L140.586 71.691C141.168 77.0102 141.898 103.073 141.898 118.519V134.303H131.944H121.99V119.076Z" fill="#008080"/>
<path d="M173.547 64.9325V62.8922H183.501H193.454V64.9325V66.9728H183.501H173.547V64.9325Z" fill="#008080"/>
<path d="M173.55 118.618C173.554 103.194 174.247 78.4592 174.852 72.2011L175.159 69.0131H183.501H191.842L192.15 72.2011C192.754 78.4592 193.447 103.194 193.451 118.618L193.454 134.303H183.501H173.547L173.55 118.618Z" fill="#008080"/>
<path d="M225.102 64.9325V62.8922H235.055H245.009V64.9325V66.9728H235.055H225.102V64.9325Z" fill="#008080"/>
<path d="M225.104 118.108C225.106 102.299 225.817 77.0456 226.41 71.691L226.706 69.0131H235.051H243.396L243.7 72.2011C244.293 78.4194 245.009 104.065 245.009 119.076V134.303H235.055H225.102L225.104 118.108Z" fill="#008080"/>
<path d="M276.656 64.9325V62.8922H286.61H296.564V64.9325V66.9728H286.61H276.656V64.9325Z" fill="#F4C692"/>
<path d="M276.657 117.853C276.658 101.964 277.36 77.2001 277.966 71.691L278.261 69.0131H286.603H294.945L295.257 72.7112C295.877 80.0586 296.557 104.275 296.56 119.128L296.564 134.303H286.61H276.656L276.657 117.853Z" fill="#F4C692"/>
<path d="M328.213 64.9325V62.8922H338.167H348.12V64.9325V66.9728H338.167H328.213V64.9325Z" fill="#F4C692"/>
<path d="M328.213 117.68C328.213 101.583 328.945 75.6053 329.523 71.181L329.807 69.0131H338.145H346.483L346.809 72.9662C347.421 80.3743 348.108 104.938 348.114 119.638L348.12 134.303H338.167H328.213V117.68Z" fill="#F4C692"/>
<path d="M250.625 138.639V135.833H301.415H352.204V138.639V141.444H301.415H250.625V138.639Z" fill="#F4C692"/>
<path d="M258.281 146.8V143.484H309.071H359.861V146.8V150.115H309.071H258.281V146.8Z" fill="#F4C692"/>
<path d="M264.916 156.746V152.156H315.706H366.495V156.746V161.337H315.706H264.916V156.746Z" fill="#F4C692"/>
<path d="M103.615 156.746V152.156H183.501H263.386V156.746V161.337H183.501H103.615V156.746Z" fill="#008080"/>
<path d="M110.25 146.8V143.484H183.499H256.749V146.8V150.115H183.499H110.25V146.8Z" fill="#008080"/>
<path d="M117.908 138.639V135.833H183.501H249.094V138.639V141.444H183.501H117.908V138.639Z" fill="#008080"/>
<path d="M14.7969 138.639V135.833H65.5866H116.376V138.639V141.444H65.5866H14.7969V138.639Z" fill="#008080"/>
<path d="M7.14062 146.8V143.484H57.9303H108.72V146.8V150.115H57.9303H7.14062V146.8Z" fill="#008080"/>
<path d="M0.503906 156.746V152.156H51.2936H102.083V156.746V161.337H51.2936H0.503906V156.746Z" fill="#008080"/>
</g>
<defs>
<clipPath id="clip0_95_1872">
<rect width="367" height="162" fill="white"/>
</clipPath>
</defs>
</svg>
