<svg width="72" height="71" viewBox="0 0 72 71" fill="none" xmlns="http://www.w3.org/2000/svg">
<circle cx="36" cy="35" r="35" fill="white"/>
<g clip-path="url(#clip0_121_6596)">
<path d="M23.5977 28.2711C25.9854 28.4214 28.3745 27.9971 30.5591 27.0348C32.7437 26.0725 34.6584 24.601 36.1382 22.7471" stroke="#008080"/>
<path d="M41.8926 20.0819C40.7893 20.0539 39.6947 20.2803 38.6958 20.743C37.6969 21.2056 36.8213 21.8919 36.1387 22.747" stroke="#008080"/>
<path d="M55.0725 25.0725C51.3902 21.9666 46.7365 20.2044 41.8926 20.0815" stroke="#008080"/>
<path d="M58.6131 29.1431C57.6524 27.6146 56.4581 26.2416 55.0723 25.0728" stroke="#008080"/>
<path d="M56.9902 36.5569C58.1817 35.769 59.0167 34.5559 59.3194 33.173C59.6221 31.7902 59.3689 30.3455 58.6131 29.1431" stroke="#008080"/>
<path d="M51.9727 38.3985C53.7681 38.1815 55.4865 37.5507 56.9889 36.5571" stroke="#008080"/>
<path d="M30.9258 39.416C37.9577 39.5824 44.9926 39.2423 51.9743 38.3984" stroke="#008080"/>
<path d="M13.3184 35.5396C18.8732 37.9554 24.855 39.2725 30.9244 39.4161" stroke="#008080"/>
<path d="M12.9249 29.8701C12.4196 30.177 12.0091 30.6142 11.7376 31.1344C11.4661 31.6547 11.344 32.2383 11.3845 32.822C11.4251 33.4058 11.6266 33.9675 11.9675 34.4465C12.3083 34.9254 12.7754 35.3034 13.3183 35.5395" stroke="#008080"/>
<path d="M23.5976 28.2708C21.801 27.8176 19.9302 27.7256 18.0968 28.0004C16.2634 28.2751 14.5048 28.9109 12.9258 29.8699" stroke="#008080"/>
<path d="M60.5579 36.751C60.4865 34.1046 59.8224 31.5066 58.6133 29.1431" stroke="#008080"/>
<path d="M58.4492 40.786C59.1165 40.3426 59.6595 39.7404 60.0279 39.0351C60.3963 38.3297 60.5782 37.5441 60.5568 36.751" stroke="#008080"/>
<path d="M54.5547 42.6553C55.9348 42.2147 57.2455 41.5855 58.4486 40.7861" stroke="#008080"/>
<path d="M28.6465 45.0655C37.3577 46.145 46.2031 45.3221 54.556 42.6553" stroke="#008080"/>
<path d="M12.6719 40.4419C17.7111 42.8177 23.1049 44.3789 28.6469 45.0656" stroke="#008080"/>
<path d="M10.9766 38.0151C11.0189 38.5304 11.1976 39.0257 11.4949 39.4515C11.7921 39.8774 12.1975 40.2188 12.6704 40.4418" stroke="#008080"/>
<path d="M11.3846 32.8218C10.9712 34.5207 10.8335 36.2735 10.9767 38.0149" stroke="#008080"/>
<path d="M46.9414 22.4907C46.0193 22.0311 45.0122 21.7612 43.9811 21.6974C42.9499 21.6336 41.9164 21.7771 40.9434 22.1194" stroke="#008080"/>
<path d="M53.5675 25.8325C51.3642 24.7083 49.1554 23.5943 46.9414 22.4907" stroke="#008080"/>
<path d="M57.1464 29.3904C56.3608 27.8636 55.1084 26.6188 53.5664 25.832" stroke="#008080"/>
<path d="M56.8906 30.2884C57.0397 30.1977 57.1487 30.055 57.1961 29.8887C57.2435 29.7224 57.2258 29.5447 57.1466 29.3906" stroke="#008080"/>
<path d="M52.0078 32.6173C53.7126 32.0083 55.3494 31.228 56.8922 30.2886" stroke="#008080"/>
<path d="M45.3477 33.3444C47.5945 33.6272 49.8774 33.3779 52.0071 32.6172" stroke="#008080"/>
<path d="M36.9668 32.2314C39.7579 32.6214 42.5517 32.9923 45.3479 33.3442" stroke="#008080"/>
<path d="M35.5801 31.2944C35.7225 31.5454 35.9217 31.7605 36.1623 31.9231C36.4029 32.0856 36.6783 32.1912 36.967 32.2315" stroke="#008080"/>
<path d="M43.9811 21.6974C42.9499 21.6336 41.9164 21.7771 40.9434 22.1194" stroke="#008080"/>
<path d="M40.9434 22.1191C40.3264 22.3362 39.7992 22.7478 39.4434 23.2901" stroke="#008080"/>
<path d="M39.4425 23.29C38.7063 24.4123 38.1265 25.627 37.7188 26.9017" stroke="#008080"/>
<path d="M35.5801 31.2944C36.5013 29.9379 37.2219 28.4588 37.7199 26.9019" stroke="#008080"/>
<path d="M-229.195 139.191C-217.611 167.249 -199.006 192.168 -174.441 212.524C-149.875 232.881 -119.831 248.277 -86.0238 257.833C-17.7465 277.132 61.7151 271.473 134.88 242.101C171.108 227.558 204.7 207.63 233.737 183.456C262.774 159.283 286.689 131.336 304.115 101.212C339.309 40.3747 345.938 -25.6378 322.545 -82.3031C299.152 -138.968 247.651 -181.645 179.374 -200.944C111.097 -220.244 31.6352 -214.585 -41.5301 -185.213C-114.695 -155.841 -175.571 -105.162 -210.765 -44.324C-245.959 16.5136 -252.588 82.5261 -229.195 139.191Z" stroke="#008080"/>
<path d="M48.9618 28.2267C48.9527 28.1339 48.9309 28.0421 48.895 27.9504C48.859 27.8586 48.8088 27.7666 48.7422 27.676C48.6756 27.5853 48.5925 27.4959 48.4925 27.4115C48.3924 27.3271 48.2755 27.2477 48.1435 27.1775C48.0115 27.1073 47.8646 27.0463 47.7068 26.9979C47.5489 26.9495 47.3801 26.9137 47.2054 26.8926C47.0308 26.8715 46.8504 26.8651 46.6698 26.874C46.4893 26.8829 46.3087 26.907 46.1337 26.9456C45.9587 26.9841 45.7893 27.0371 45.6307 27.1022C45.4721 27.1673 45.3243 27.2444 45.1914 27.3302C45.0585 27.416 44.9405 27.5102 44.8398 27.6087C44.7391 27.7072 44.6556 27.8097 44.5895 27.9122C44.5234 28.0147 44.4746 28.117 44.4412 28.2166C44.4077 28.3163 44.3895 28.4133 44.3843 28.508C44.3792 28.6027 44.3871 28.6952 44.4081 28.7873C44.429 28.8793 44.4632 28.9711 44.5126 29.0627C44.5619 29.1543 44.6267 29.2458 44.7084 29.3345C44.7901 29.4232 44.8888 29.5091 45.0038 29.588C45.1189 29.667 45.2503 29.739 45.395 29.8001C45.5397 29.8613 45.6978 29.9115 45.8645 29.948C46.0313 29.9845 46.2068 30.0072 46.3855 30.0148C46.5643 30.0224 46.7462 30.0149 46.9256 29.9923C47.105 29.9697 47.2819 29.932 47.4507 29.8809C47.6195 29.8297 47.7803 29.7649 47.9282 29.6896C48.0761 29.6142 48.2112 29.5282 48.33 29.4356C48.4489 29.343 48.5515 29.2438 48.6364 29.1425C48.7214 29.0411 48.7888 28.9378 48.8396 28.836C48.8903 28.7341 48.9246 28.634 48.9446 28.5366C48.9647 28.4393 48.9707 28.3447 48.9639 28.2517C48.9633 28.2433 48.9626 28.235 48.9618 28.2267Z" stroke="#008080"/>
<path d="M39.4777 22.396C37.4355 24.0759 35.9287 26.3017 35.1387 28.8059" stroke="#008080"/>
<path d="M34.3691 30.4881C34.6945 29.9604 34.9531 29.3954 35.1392 28.8057" stroke="#008080"/>
<path d="M31.2715 32.0935C31.8868 32.128 32.5001 31.9968 33.0457 31.7141C33.5913 31.4313 34.0487 31.0076 34.3689 30.4883" stroke="#008080"/>
<path d="M31.2714 32.0935C30.2586 32.0367 29.2427 32.0632 28.2344 32.1727" stroke="#008080"/>
<path d="M18.4258 31.9531C21.6712 32.4533 24.9694 32.5271 28.2345 32.1726" stroke="#008080"/>
<path d="M18.4264 31.9531C16.8153 31.7049 15.1806 31.6408 13.5547 31.7624" stroke="#008080"/>
<path d="M39.4785 22.396C37.3674 23.5793 35.4297 25.0408 33.7188 26.74" stroke="#008080"/>
<path d="M28.7832 28.965C30.6479 28.8386 32.4024 28.0477 33.7194 26.7397" stroke="#008080"/>
<path d="M19.7812 29.1243C22.7825 29.2214 25.7868 29.1684 28.7825 28.9653" stroke="#008080"/>
<path d="M19.7809 29.1239C18.4077 29.0794 17.0387 29.2953 15.748 29.7596" stroke="#008080"/>
<path d="M15.7485 29.7598C15.2664 29.9333 14.824 30.1997 14.4474 30.5435C14.0707 30.8874 13.7672 31.3017 13.5547 31.7625" stroke="#008080"/>
<path d="M54.2832 35.3463C55.2147 35.0106 56.0172 34.3975 56.5796 33.592C57.142 32.7865 57.4365 31.8284 57.4221 30.8506" stroke="#008080"/>
<path d="M42.7305 37.3873C46.672 37.3713 50.5808 36.6808 54.2828 35.3467" stroke="#008080"/>
<path d="M20.6816 36.1943C28.0008 37.0187 35.3628 37.417 42.7295 37.3871" stroke="#008080"/>
<path d="M14.8555 34.2695C16.6397 35.3066 18.625 35.9623 20.6827 36.1941" stroke="#008080"/>
<path d="M13.6523 32.2202C13.6567 32.6349 13.7695 33.0415 13.9801 33.4006C14.1906 33.7596 14.4916 34.059 14.8539 34.2696" stroke="#008080"/>
<path d="M13.6523 32.2202C18.5505 32.7505 23.4736 33.0259 28.4012 33.0453" stroke="#008080"/>
<path d="M28.4023 33.0453C30.3641 33.0531 32.3093 32.6917 34.1336 31.9805" stroke="#008080"/>
<path d="M34.1328 31.9805C36.7988 32.8741 39.5526 33.489 42.3488 33.815" stroke="#008080"/>
<path d="M42.3496 33.8149C45.0123 34.1254 47.7005 34.1623 50.371 33.925" stroke="#008080"/>
<path d="M50.3711 33.925C52.9998 33.6915 55.4775 32.6111 57.4215 30.8506" stroke="#008080"/>
<path d="M67.7608 35.5131C67.7599 27.1995 64.4101 19.2266 58.4483 13.3482C52.4866 7.46985 44.401 4.16748 35.9702 4.16748C27.5394 4.16748 19.4539 7.46985 13.4921 13.3482C7.53034 19.2266 4.18059 27.1995 4.17969 35.5131C4.18059 43.8268 7.53034 51.7997 13.4921 57.6781C19.4539 63.5564 27.5394 66.8588 35.9702 66.8588C44.401 66.8588 52.4866 63.5564 58.4483 57.6781C64.4101 51.7997 67.7599 43.8268 67.7608 35.5131Z" stroke="#008080"/>
<path d="M34.0553 70.8983C28.5931 70.4699 24.7544 69.4971 20.4266 67.4446C14.9028 64.8248 10.2888 61.009 6.75332 56.1368C0.607077 47.6667 -1.45366 36.9536 1.12297 26.8665C4.13786 15.0636 13.0851 5.61037 24.8101 1.83992C34.4315 -1.25411 44.9215 -0.220397 53.7011 4.68692C55.0274 5.42823 57.2872 6.94906 58.5662 7.96115C60.6216 9.58753 63.0148 12.0275 64.6504 14.1644C74.2876 26.7551 74.3091 44.1757 64.703 56.7805C58.901 64.3936 50.2428 69.3877 40.6812 70.6365C38.621 70.9055 35.6459 71.0231 34.0553 70.8983ZM37.9938 66.8422C42.3446 66.5398 46.1013 65.5605 49.9017 63.738C57.9605 59.8734 64.0179 52.8001 66.5335 44.3168C68.9341 36.2212 67.9043 27.3841 63.7118 20.1042C62.1198 17.3398 60.492 15.2806 58.0412 12.9307C52.9272 8.02747 46.5397 5.07739 39.3375 4.29247C37.8251 4.12765 34.4381 4.10525 32.9896 4.25049C26.611 4.89011 20.9685 7.15269 15.9849 11.0693C14.6761 12.0979 12.2213 14.5186 11.1782 15.8093C7.95105 19.8023 5.83596 24.2242 4.77883 29.1879C4.33002 31.2953 4.16494 33.005 4.16454 35.5502C4.16394 39.3647 4.77556 42.8418 6.05277 46.2851C8.79657 53.6821 14.3963 59.9087 21.5332 63.4986C26.5746 66.0345 32.4481 67.2275 37.9938 66.8422Z" fill="#008080"/>
<path d="M33.2207 45.4025C25.7612 44.9652 19.809 43.5645 13.5264 40.7682C11.6561 39.9357 11.1355 39.2715 11.0339 37.5885C10.9697 36.5248 11.0493 34.9096 11.2154 33.9079L11.3357 33.1819L11.448 33.5017C11.9544 34.944 12.5799 35.3859 15.7989 36.5755C19.8421 38.0697 23.7021 38.918 28.4482 39.3554C30.0965 39.5073 38.3376 39.5069 41.2365 39.3548C46.1293 39.098 51.4453 38.6002 53.1244 38.2414C55.6281 37.7065 57.9781 36.2125 58.8258 34.6169C59.205 33.9033 59.4896 32.8167 59.5014 32.0378L59.5105 31.4355L59.7348 32.1101C60.3811 34.0539 60.6637 37.1656 60.2919 38.2435C59.9304 39.2918 59.2636 40.1714 58.372 40.7763C57.1013 41.6384 55.3639 42.3801 53.0809 43.035C48.4754 44.3562 44.2443 45.0822 39.4758 45.3696C38.0994 45.4526 34.4058 45.472 33.2207 45.4025Z" fill="#008080"/>
<path d="M36.9741 37.2732C29.523 37.0296 21.135 36.3508 18.9037 35.8108C17.0127 35.3531 14.8748 34.3842 14.3033 33.7258C14.0035 33.3804 13.6227 32.4549 13.7349 32.3442C13.7646 32.315 14.4496 32.3552 15.2574 32.4336C20.9733 32.9879 28.8116 33.256 30.6263 32.9592C31.5678 32.8053 33.0356 32.4438 33.6699 32.2098L34.1599 32.029L34.8488 32.2605C37.3684 33.1071 40.9986 33.7972 44.1976 34.0377C46.6189 34.2197 50.0668 34.1093 51.6158 33.8001C53.3303 33.4579 55.123 32.666 56.5504 31.6201C57.4439 30.9655 57.4487 30.9672 57.2588 31.8652C57.0247 32.9723 56.2363 34.1179 55.2448 34.7918C54.1171 35.5583 50.2531 36.6057 46.8499 37.0674C45.6565 37.2293 44.9005 37.2602 41.6539 37.2794C39.5642 37.2918 37.4583 37.289 36.9741 37.2732Z" fill="#008080"/>
<path d="M20.6187 32.1618C19.9561 32.0954 18.9553 31.9726 18.3946 31.8888C17.834 31.805 16.5517 31.7148 15.5451 31.6885C14.5384 31.6621 13.7148 31.6062 13.7148 31.5643C13.7148 31.3964 14.5295 30.5197 14.9506 30.2343C15.197 30.0673 15.732 29.8268 16.1394 29.6999C17.5967 29.246 18.1817 29.1966 22.1032 29.1966C27.8592 29.1966 29.7699 29.0388 31.221 28.4437C32.1825 28.0494 32.9061 27.5452 34.1192 26.4241C34.6958 25.8912 35.5556 25.1503 36.0296 24.7778C36.9663 24.0417 38.4466 23.0329 38.5053 23.0908C38.5254 23.1106 38.2705 23.4336 37.9388 23.8086C36.7275 25.1784 35.8211 26.73 35.1647 28.5569C34.4813 30.4593 33.9666 31.1741 32.911 31.6866L32.2996 31.9834L30.2122 32.0454C29.0642 32.0796 27.687 32.1502 27.1518 32.2025C25.8222 32.3322 22.0871 32.309 20.6187 32.1618Z" fill="#008080"/>
<path d="M45.8253 33.3447C45.6724 33.3221 44.5779 33.1795 43.3931 33.0278C36.5309 32.1491 36.1753 32.0788 35.8098 31.5287C35.6675 31.3145 35.6752 31.281 35.9838 30.776C36.5985 29.7699 37.2371 28.4079 37.6686 27.1829C38.4599 24.9362 39.4843 23.0725 40.1934 22.5897C41.0582 22.0007 42.2001 21.7593 43.8618 21.8142C44.8808 21.8479 45.2072 21.8962 45.8253 22.1044C46.7138 22.4038 53.4271 25.7686 54.3577 26.381C55.5374 27.1573 57.1773 29.0977 57.1773 29.7172C57.1773 30.0404 56.8963 30.2633 55.6482 30.9302C53.5504 32.0511 51.4359 32.8446 49.6711 33.1732C48.9071 33.3155 46.3882 33.4278 45.8253 33.3447ZM47.7059 29.8289C48.5252 29.4815 49.0224 28.9146 49.0224 28.3276C49.0224 27.2549 47.3684 26.5279 45.9036 26.9568C44.9186 27.2453 44.1956 28.0796 44.3459 28.7545C44.4823 29.3668 45.2173 29.8935 46.1497 30.0472C46.5396 30.1115 47.2867 30.0067 47.7059 29.8289Z" fill="#008080"/>
</g>
<defs>
<clipPath id="clip0_121_6596">
<rect width="72" height="71" fill="white"/>
</clipPath>
</defs>
</svg>
