<svg width="72" height="72" viewBox="0 0 72 72" fill="none" xmlns="http://www.w3.org/2000/svg">
<circle cx="36" cy="36" r="34.5" fill="white" stroke="white"/>
<g clip-path="url(#clip0_121_6600)">
<path d="M67.7608 35.9991C67.7599 27.5683 64.4101 19.4831 58.4483 13.522C52.4866 7.5608 44.401 4.21191 35.9702 4.21191C27.5394 4.21191 19.4539 7.5608 13.4921 13.522C7.53034 19.4831 4.18059 27.5683 4.17969 35.9991C4.18059 44.4299 7.53034 52.515 13.4921 58.4762C19.4539 64.4373 27.5394 67.7862 35.9702 67.7862C44.401 67.7862 52.4866 64.4373 58.4483 58.4762C64.4101 52.515 67.7599 44.4299 67.7608 35.9991Z" stroke="#008080"/>
<path d="M61.7188 45.7212V32.397" stroke="#008080"/>
<path d="M10.7383 45.7212V32.397" stroke="#008080"/>
<path d="M48.8928 32.7173H23.5645" stroke="#008080"/>
<path d="M48.8926 30.5796V34.8549L61.7184 32.7172L48.8926 30.5796Z" stroke="#008080"/>
<path d="M23.5641 30.5796V34.8549L10.7383 32.7172L23.5641 30.5796Z" stroke="#008080"/>
<path d="M34.3533 25.8864V25.7798C34.3652 24.6494 34.4835 23.7498 34.7084 23.081C34.9333 22.4122 35.2529 21.8706 35.6672 21.4563C36.0815 21.042 36.5787 20.6603 37.1587 20.3111C37.5079 20.098 37.8216 19.8465 38.0998 19.5565C38.3779 19.2605 38.5969 18.9202 38.7567 18.5355C38.9225 18.1508 39.0053 17.7247 39.0053 17.2571C39.0053 16.6771 38.8692 16.174 38.5969 15.7479C38.3247 15.3217 37.9607 14.9933 37.505 14.7624C37.0492 14.5316 36.5432 14.4162 35.9868 14.4162C35.5015 14.4162 35.034 14.5168 34.5841 14.718C34.1343 14.9193 33.7585 15.2359 33.4567 15.668C33.1548 16.1 32.9802 16.6652 32.9329 17.3636H30.6957C30.743 16.3575 31.0034 15.4963 31.4769 14.7802C31.9563 14.064 32.5866 13.5166 33.3679 13.1378C34.1551 12.759 35.028 12.5696 35.9868 12.5696C37.0285 12.5696 37.9341 12.7768 38.7035 13.1911C39.4788 13.6054 40.0766 14.1735 40.4968 14.8956C40.9229 15.6177 41.136 16.4403 41.136 17.3636C41.136 18.0147 41.0354 18.6036 40.8341 19.1303C40.6388 19.6571 40.3547 20.1276 39.9819 20.5419C39.6149 20.9562 39.171 21.3232 38.6502 21.6428C38.1294 21.9683 37.7121 22.3116 37.3984 22.6726C37.0847 23.0277 36.8569 23.4509 36.7148 23.9421C36.5728 24.4334 36.4958 25.0459 36.484 25.7798V25.8864H34.3533ZM35.4897 31.142C35.0517 31.142 34.6759 30.9852 34.3622 30.6715C34.0485 30.3578 33.8917 29.982 33.8917 29.544C33.8917 29.1061 34.0485 28.7302 34.3622 28.4165C34.6759 28.1029 35.0517 27.946 35.4897 27.946C35.9277 27.946 36.3035 28.1029 36.6172 28.4165C36.9309 28.7302 37.0877 29.1061 37.0877 29.544C37.0877 29.834 37.0137 30.1004 36.8658 30.343C36.7237 30.5857 36.5314 30.781 36.2887 30.929C36.052 31.071 35.7856 31.142 35.4897 31.142Z" fill="#008080"/>
<path d="M36.1696 0.105553C34.7795 0.0958218 33.3953 0.131801 32.5735 0.217528C28.0246 0.69204 23.6064 1.97462 19.7388 3.94337C8.79491 9.5143 1.56803 20.0182 0.219676 32.3132C0.0101081 34.2241 0.0101081 37.7795 0.219676 39.6905C1.13108 48.0011 4.74189 55.5833 10.5581 61.3995C16.8409 67.6823 25.2196 71.4027 34.1952 71.8951C38.9045 72.1534 44.2007 71.3125 48.7201 69.589C59.6825 65.4083 67.8611 56.2472 70.7973 44.8592C73.3707 34.8785 71.383 23.9548 65.4424 15.4309C63.7872 13.0561 61.0019 10.0364 58.845 8.27834C53.3172 3.77259 46.9408 1.09051 39.8016 0.268201C38.956 0.170802 37.5598 0.115284 36.1696 0.105553ZM35.7283 4.15704C37.3455 4.14479 38.9698 4.25668 40.5905 4.49456C53.695 6.41789 64.2664 16.2892 67.0874 29.2369C68.5052 35.7441 67.8178 42.667 65.1498 48.7511C60.5728 59.1886 50.802 66.3739 39.4683 67.6367C36.5241 67.9647 33.4783 67.8725 30.5237 67.3659C16.5999 64.9787 5.8352 53.5075 4.31014 39.432C4.1186 37.664 4.11875 34.3366 4.3105 32.5715C4.88411 27.2912 6.85288 22.0416 9.85293 17.7924C11.0107 16.1525 11.952 15.0464 13.5226 13.4802C16.1084 10.9019 18.5636 9.11576 21.6385 7.57601C26.087 5.34847 30.8765 4.1938 35.7283 4.15704ZM23.4027 30.6552C23.3943 30.656 23.3855 30.658 23.3761 30.6607C23.2869 30.686 20.5066 31.1555 17.1976 31.7041C13.8886 32.2526 11.2298 32.7176 11.2891 32.7373C11.3484 32.7571 14.0766 33.2243 17.3517 33.7756C20.6269 34.3269 23.3586 34.7822 23.4223 34.7875C23.5119 34.7949 23.5382 34.3222 23.5382 32.7058C23.5382 30.88 23.5283 30.6424 23.4027 30.6552ZM49.0649 30.6552C48.9392 30.6425 48.9295 30.8807 48.9295 32.7131V34.8117L49.1843 34.7591C49.3245 34.7302 52.0854 34.2666 55.3196 33.7288C58.5538 33.1911 61.2122 32.7386 61.2273 32.7235C61.2424 32.7084 58.5547 32.2485 55.2544 31.7014C51.9541 31.1543 49.1808 30.686 49.0916 30.6607C49.0822 30.658 49.0733 30.656 49.0649 30.6552Z" fill="#008080"/>
<circle cx="58" cy="58" r="13" fill="white" stroke="#16B2A9" stroke-width="2"/>
<rect x="53.6777" y="63.1299" width="14.1207" height="2.62711" rx="1.31356" transform="rotate(-45 53.6777 63.1299)" fill="#16B2A9"/>
<rect x="52.166" y="58.0703" width="7.29371" height="2.47739" rx="1.2387" transform="rotate(45.6554 52.166 58.0703)" fill="#16B2A9"/>
</g>
<defs>
<clipPath id="clip0_121_6600">
<rect width="72" height="72" fill="white"/>
</clipPath>
</defs>
</svg>
