<svg width="71" height="72" viewBox="0 0 71 72" fill="none" xmlns="http://www.w3.org/2000/svg">
<circle cx="35" cy="37" r="34.5" fill="#F4C692" stroke="white"/>
<g clip-path="url(#clip0_121_6569)">
<path d="M66.907 35.9849C66.907 27.5535 63.6042 19.4675 57.7251 13.5056C51.846 7.54369 43.8723 4.19434 35.558 4.19434C27.2437 4.19434 19.27 7.54369 13.3909 13.5056C7.51182 19.4675 4.20898 27.5535 4.20898 35.9849C4.20898 44.4163 7.51182 52.5023 13.3909 58.4642C19.27 64.4261 27.2437 67.7754 35.558 67.7754C43.8723 67.7754 51.846 64.4261 57.7251 58.4642C63.6042 52.5023 66.907 44.4163 66.907 35.9849Z" stroke="#008080"/>
<path d="M8.31412 32.2392C7.16999 31.3764 6.00504 30.5423 4.82031 29.7378" stroke="#008080"/>
<path d="M8.62987 37.8314C9.01395 37.4658 9.31427 37.0192 9.50965 36.5232C9.70502 36.0271 9.79069 35.4936 9.76061 34.9603C9.73053 34.427 9.58544 33.9069 9.33557 33.4367C9.0857 32.9664 8.73713 32.5575 8.31445 32.2388" stroke="#008080"/>
<path d="M4.63086 41.1765C6.03319 40.1493 7.36915 39.032 8.63053 37.8315" stroke="#008080"/>
<path d="M20.8156 17.6758C18.593 15.9997 16.2925 14.4326 13.9219 12.98" stroke="#008080"/>
<path d="M21.1318 23.2684C21.5159 22.9028 21.8162 22.4563 22.0116 21.9602C22.207 21.4641 22.2926 20.9306 22.2626 20.3973C22.2325 19.864 22.0874 19.3439 21.8375 18.8737C21.5877 18.4035 21.2391 17.9945 20.8164 17.6758" stroke="#008080"/>
<path d="M7.67383 31.7607C12.6674 29.8569 17.2407 26.9708 21.1307 23.2686" stroke="#008080"/>
<path d="M20.8149 46.1444C16.8404 43.147 12.6197 40.5008 8.19922 38.2349" stroke="#008080"/>
<path d="M21.1318 51.7371C21.5159 51.3716 21.8162 50.925 22.0116 50.4289C22.207 49.9329 22.2926 49.3994 22.2626 48.8661C22.2325 48.3328 22.0874 47.8127 21.8375 47.3425C21.5877 46.8722 21.2391 46.4633 20.8164 46.1445" stroke="#008080"/>
<path d="M12.8008 57.849C15.8224 56.1789 18.6217 54.125 21.1309 51.7368" stroke="#008080"/>
<path d="M32.7895 32.0604C28.815 29.063 24.5943 26.4168 20.1738 24.1509" stroke="#008080"/>
<path d="M33.1045 37.6531C33.4886 37.2876 33.7889 36.841 33.9843 36.345C34.1796 35.8489 34.2653 35.3154 34.2352 34.7821C34.2051 34.2488 34.0601 33.7287 33.8102 33.2585C33.5603 32.7882 33.2117 32.3793 32.7891 32.0605" stroke="#008080"/>
<path d="M20.4141 45.8437C25.1117 43.9414 29.4161 41.1632 33.1044 37.6528" stroke="#008080"/>
<path d="M33.1055 8.87789C33.7176 8.29532 34.1097 7.51418 34.2141 6.6695C34.3185 5.82483 34.1286 4.9697 33.6772 4.25195" stroke="#008080"/>
<path d="M20.1465 17.1759C24.9477 15.2718 29.3461 12.4551 33.1052 8.87744" stroke="#008080"/>
<path d="M32.7895 60.5286C28.815 57.5313 24.5943 54.8851 20.1738 52.6191" stroke="#008080"/>
<path d="M33.1045 66.1214C33.4886 65.7558 33.7889 65.3093 33.9843 64.8132C34.1796 64.3172 34.2653 63.7837 34.2352 63.2504C34.2051 62.7171 34.0601 62.197 33.8102 61.7267C33.5603 61.2565 33.2117 60.8476 32.7891 60.5288" stroke="#008080"/>
<path d="M31.5625 67.5164C32.0883 67.0648 32.6027 66.5998 33.1051 66.1216" stroke="#008080"/>
<path d="M44.6567 46.5394C40.6822 43.542 36.4615 40.8958 32.041 38.6299" stroke="#008080"/>
<path d="M44.9736 52.1316C45.3577 51.7661 45.658 51.3195 45.8534 50.8235C46.0488 50.3274 46.1344 49.7939 46.1044 49.2606C46.0743 48.7273 45.9292 48.2072 45.6793 47.737C45.4295 47.2667 45.0809 46.8578 44.6582 46.5391" stroke="#008080"/>
<path d="M32.4336 60.2613C37.073 58.3607 41.3247 55.6043 44.9732 52.1318" stroke="#008080"/>
<path d="M44.6567 17.764C40.6822 14.7666 36.4615 12.1204 32.041 9.85449" stroke="#008080"/>
<path d="M44.9736 23.3567C45.3577 22.9912 45.658 22.5446 45.8534 22.0486C46.0488 21.5525 46.1344 21.019 46.1044 20.4857C46.0743 19.9524 45.9292 19.4323 45.6793 18.9621C45.4295 18.4918 45.0809 18.0829 44.6582 17.7642" stroke="#008080"/>
<path d="M32.166 31.5942C36.9085 29.691 41.2536 26.896 44.9727 23.3564" stroke="#008080"/>
<path d="M33.1604 67.6823C32.7887 67.4848 32.4155 67.2901 32.041 67.0981" stroke="#008080"/>
<path d="M44.0176 17.2858C47.9617 15.7821 51.6502 13.6631 54.9497 11.0054" stroke="#008080"/>
<path d="M57.1587 31.6693C53.1841 28.6719 48.9634 26.0257 44.543 23.7598" stroke="#008080"/>
<path d="M57.4736 37.262C57.8577 36.8965 58.158 36.4499 58.3534 35.9538C58.5488 35.4578 58.6344 34.9243 58.6044 34.391C58.5743 33.8577 58.4292 33.3376 58.1793 32.8674C57.9295 32.3971 57.5809 31.9882 57.1582 31.6694" stroke="#008080"/>
<path d="M43.7422 45.8582C48.8421 43.9566 53.5123 41.0331 57.4744 37.2622" stroke="#008080"/>
<path d="M56.5483 59.5984C52.7525 56.7878 48.7375 54.2951 44.543 52.145" stroke="#008080"/>
<path d="M56.5176 31.1912C59.6812 29.985 62.6835 28.3818 65.4542 26.4189" stroke="#008080"/>
<path d="M66.1238 43.0458C63.2071 41.0675 60.1746 39.2708 57.043 37.6655" stroke="#008080"/>
<path d="M33.3669 71.8552C21.885 71.1527 11.2588 64.6559 5.30747 54.6996C1.04839 47.5744 -0.667595 39.2142 0.457706 31.0719C1.94762 20.2915 8.11465 10.7917 17.2254 5.24265C24.3142 0.925142 32.4053 -0.747569 40.5741 0.415666C50.5892 1.84182 59.6088 7.65307 65.1859 16.2728C70.6298 24.6868 72.3331 34.9858 69.9036 44.7989C67.2046 55.7002 59.5438 64.7372 49.2945 69.1102C45.5702 70.6992 41.6987 71.6027 37.5128 71.8599C35.7909 71.9656 35.161 71.9649 33.3669 71.8552ZM39.7059 67.5618C49.3676 66.1813 57.6485 60.6064 62.6121 52.1409C66.9922 44.6707 68.1246 35.465 65.6985 27.0511C62.3905 15.5793 52.9797 6.92101 41.3965 4.69238C39.392 4.3067 37.9699 4.18112 35.5937 4.17992C30.7671 4.17749 26.6969 5.07195 22.3891 7.08181C14.5433 10.7423 8.46784 17.6491 5.75389 25.9934C2.4025 36.2974 4.39088 47.4153 11.1153 55.9717C12.144 57.2806 14.5646 59.7353 15.8553 60.7784C20.7123 64.7038 26.22 66.9929 32.4868 67.6907C33.7055 67.8264 38.4467 67.7418 39.7059 67.5618Z" fill="#008080"/>
</g>
<defs>
<clipPath id="clip0_121_6569">
<rect width="71" height="72" fill="white"/>
</clipPath>
</defs>
</svg>
