<svg width="72" height="72" viewBox="0 0 72 72" fill="none" xmlns="http://www.w3.org/2000/svg">
<circle cx="37" cy="35" r="34.5" fill="white" stroke="white"/>
<g clip-path="url(#clip0_121_6594)">
<path d="M67.7608 35.9991C67.7599 27.5683 64.4101 19.4831 58.4483 13.522C52.4866 7.5608 44.401 4.21191 35.9702 4.21191C27.5394 4.21191 19.4539 7.5608 13.4921 13.522C7.53034 19.4831 4.18059 27.5683 4.17969 35.9991C4.18059 44.4299 7.53034 52.515 13.4921 58.4762C19.4539 64.4373 27.5394 67.7862 35.9702 67.7862C44.401 67.7862 52.4866 64.4373 58.4483 58.4762C64.4101 52.515 67.7599 44.4299 67.7608 35.9991Z" stroke="#008080"/>
<path d="M33.5618 41.5418V41.3714C33.5807 39.5626 33.7701 38.1233 34.13 37.0532C34.4898 35.9831 35.0012 35.1166 35.6641 34.4537C36.3269 33.7909 37.1224 33.1801 38.0504 32.6214C38.6091 32.2804 39.111 31.878 39.5561 31.414C40.0012 30.9405 40.3516 30.396 40.6072 29.7805C40.8724 29.1649 41.005 28.4831 41.005 27.735C41.005 26.807 40.7872 26.002 40.3516 25.3202C39.9159 24.6384 39.3336 24.1128 38.6044 23.7435C37.8752 23.3742 37.0656 23.1895 36.1754 23.1895C35.3989 23.1895 34.6508 23.3505 33.9311 23.6725C33.2114 23.9945 32.6101 24.5011 32.1271 25.1924C31.6442 25.8837 31.3648 26.788 31.2891 27.9055H27.7095C27.7853 26.2956 28.2019 24.9178 28.9595 23.7719C29.7266 22.6261 30.7351 21.7501 31.9851 21.1441C33.2445 20.538 34.6413 20.235 36.1754 20.235C37.8421 20.235 39.2909 20.5664 40.522 21.2293C41.7625 21.8922 42.719 22.8013 43.3913 23.9566C44.0731 25.1119 44.4141 26.4282 44.4141 27.9055C44.4141 28.9471 44.2531 29.8894 43.9311 30.7322C43.6186 31.575 43.1641 32.3278 42.5675 32.9907C41.9803 33.6536 41.2701 34.2407 40.4368 34.752C39.6034 35.2729 38.9358 35.8221 38.4339 36.3998C37.932 36.968 37.5675 37.645 37.3402 38.431C37.1129 39.217 36.9898 40.1971 36.9709 41.3714V41.5418H33.5618ZM35.38 49.9509C34.6792 49.9509 34.0779 49.7 33.576 49.1981C33.0741 48.6962 32.8231 48.0948 32.8231 47.3941C32.8231 46.6933 33.0741 46.092 33.576 45.5901C34.0779 45.0882 34.6792 44.8373 35.38 44.8373C36.0807 44.8373 36.682 45.0882 37.1839 45.5901C37.6858 46.092 37.9368 46.6933 37.9368 47.3941C37.9368 47.8581 37.8184 48.2842 37.5817 48.6725C37.3544 49.0608 37.0466 49.3733 36.6584 49.61C36.2796 49.8373 35.8534 49.9509 35.38 49.9509Z" fill="#008080"/>
<path d="M34.0865 71.9494C28.6133 71.514 24.7668 70.5256 20.4304 68.4401C14.8956 65.7782 10.2722 61.9011 6.72969 56.9506C0.571111 48.3444 -1.49376 37.4591 1.08804 27.2099C4.10898 15.2174 13.0742 5.61222 24.8227 1.78118C34.4634 -1.36257 44.9745 -0.312249 53.7717 4.67393C55.1006 5.42715 57.3649 6.97242 58.6466 8.00077C60.7061 9.65329 63.104 12.1325 64.7429 14.3037C74.3994 27.0967 74.421 44.7973 64.7956 57.6046C58.982 65.34 50.3064 70.4145 40.7256 71.6833C38.6613 71.9566 35.6802 72.0761 34.0865 71.9494ZM38.0328 67.828C42.3923 67.5208 46.1566 66.5258 49.9646 64.674C58.0396 60.7473 64.1091 53.5603 66.6298 44.9406C69.0352 36.715 68.0033 27.7359 63.8025 20.339C62.2072 17.5301 60.5762 15.4378 58.1205 13.0502C52.9962 8.06816 46.5959 5.07068 39.3792 4.27314C37.8638 4.10567 34.47 4.08291 33.0187 4.23049C26.6272 4.88038 20.9734 7.17932 15.9798 11.1589C14.6683 12.204 12.2087 14.6636 11.1635 15.975C7.92982 20.0322 5.81049 24.5251 4.75123 29.5687C4.30152 31.7099 4.13612 33.4471 4.13571 36.0332C4.13511 39.909 4.74796 43.442 6.02773 46.9406C8.77703 54.4564 14.388 60.7831 21.5392 64.4307C26.5908 67.0074 32.476 68.2196 38.0328 67.828Z" fill="#008080"/>
</g>
<defs>
<clipPath id="clip0_121_6594">
<rect width="72" height="72" fill="white"/>
</clipPath>
</defs>
</svg>
