<svg width="72" height="71" viewBox="0 0 72 71" fill="none" xmlns="http://www.w3.org/2000/svg">
<path d="M71.5 35.5C71.5 54.8234 55.6127 70.5 36 70.5C16.3873 70.5 0.5 54.8234 0.5 35.5C0.5 16.1766 16.3873 0.5 36 0.5C55.6127 0.5 71.5 16.1766 71.5 35.5Z" fill="white" stroke="white"/>
<g clip-path="url(#clip0_121_6595)">
<path d="M67.7452 35.5527C67.7443 27.239 64.3945 19.2661 58.4327 13.3878C52.4709 7.50941 44.3854 4.20703 35.9546 4.20703C27.5238 4.20703 19.4383 7.50941 13.4765 13.3878C7.51471 19.2661 4.16496 27.239 4.16406 35.5527C4.16496 43.8664 7.51471 51.8393 13.4765 57.7176C19.4383 63.596 27.5238 66.8984 35.9546 66.8984C44.3854 66.8984 52.4709 63.596 58.4327 57.7176C64.3945 51.8393 67.7443 43.8664 67.7452 35.5527Z" stroke="#008080"/>
<path d="M46.5811 26.1316C46.5811 23.5146 45.5269 21.0047 43.6503 19.1543C41.7737 17.3038 39.2286 16.2642 36.5747 16.2642C33.9209 16.2642 31.3757 17.3038 29.4992 19.1543C27.6226 21.0047 26.5684 23.5146 26.5684 26.1316C26.5684 28.7486 27.6226 31.2584 29.4992 33.1089C31.3757 34.9594 33.9209 35.999 36.5747 35.999C39.2286 35.999 41.7737 34.9594 43.6503 33.1089C45.5269 31.2584 46.5811 28.7486 46.5811 26.1316Z" stroke="#008080"/>
<path d="M45.3901 30.7998L36.5742 46.9906" stroke="#008080"/>
<path d="M27.7598 30.7998L36.5757 46.9906" stroke="#008080"/>
<path d="M41.1617 26.132C41.1615 24.9323 40.678 23.7818 39.8177 22.9336C38.9574 22.0854 37.7906 21.6089 36.574 21.6089C35.3575 21.6089 34.1907 22.0854 33.3304 22.9336C32.47 23.7818 31.9866 24.9323 31.9863 26.132C31.9866 27.3316 32.47 28.4821 33.3304 29.3303C34.1907 30.1785 35.3575 30.655 36.574 30.655C37.7906 30.655 38.9574 30.1785 39.8177 29.3303C40.678 28.4821 41.1615 27.3316 41.1617 26.132Z" stroke="#008080"/>
<path d="M66.1914 45.2343C58.2602 41.6158 49.7272 39.4511 41.0098 38.8462" stroke="#008080"/>
<path d="M32.1011 38.7729C22.9707 39.2555 14.0171 41.4484 5.71875 45.2344" stroke="#008080"/>
<path d="M50.9902 49.0723C52.6338 50.4291 54.5677 51.401 56.6469 51.9149C58.726 52.4289 60.8962 52.4715 62.9944 52.0397" stroke="#008080"/>
<path d="M50.9905 49.0723C50.3596 48.5515 49.5631 48.2661 48.7403 48.2661C47.9176 48.2661 47.1211 48.5515 46.4902 49.0723" stroke="#008080"/>
<path d="M41.5215 50.6847C43.3256 50.7934 45.1034 50.2164 46.4893 49.0723" stroke="#008080"/>
<path d="M41.5205 50.6843C41.0407 50.6554 40.5607 50.7384 40.1194 50.9265C39.6781 51.1146 39.2879 51.4026 38.9806 51.7672C38.6732 52.1317 38.4573 52.5625 38.3502 53.0247C38.2432 53.4869 38.2481 53.9675 38.3645 54.4274" stroke="#008080"/>
<path d="M38.3652 54.4277C38.6876 55.7013 39.4478 56.8252 40.5163 57.608C41.5849 58.3908 42.8956 58.7839 44.2251 58.7205" stroke="#008080"/>
<path d="M44.7871 62.0457C45.1921 61.9298 45.5399 61.6714 45.7645 61.3195C45.9891 60.9675 46.0749 60.5465 46.0055 60.1363C45.9361 59.7261 45.7164 59.3553 45.3881 59.0943C45.0599 58.8333 44.6458 58.7002 44.2246 58.7202" stroke="#008080"/>
<path d="M44.7888 62.0459C43.8357 62.3184 43.0011 62.8948 42.4156 63.6848C41.83 64.4748 41.5264 65.4339 41.5523 66.4121" stroke="#008080"/>
<path d="M27.4713 48.8405C24.6753 47.1569 21.647 45.8809 18.4805 45.0522" stroke="#008080"/>
<path d="M25.8145 52.1624C26.2535 52.3281 26.7395 52.3261 27.1772 52.1567C27.6148 51.9872 27.9724 51.6627 28.1798 51.2466C28.3872 50.8306 28.4295 50.3531 28.2983 49.9079C28.1671 49.4627 27.8719 49.0819 27.4707 48.8403" stroke="#008080"/>
<path d="M25.8138 52.1626C25.208 51.9339 24.5529 51.862 23.9109 51.9538C23.2689 52.0456 22.6614 52.2981 22.1465 52.6871" stroke="#008080"/>
<path d="M15.877 52.3374C16.7068 53.1257 17.7957 53.5944 18.9461 53.6586C20.0965 53.7228 21.2322 53.3781 22.1468 52.6871" stroke="#008080"/>
<path d="M14.2793 49.2485C14.4462 50.4254 15.0085 51.513 15.8764 52.3374" stroke="#008080"/>
<path d="M16.6454 47.2668C16.3497 47.1761 16.0356 47.1606 15.7322 47.2216C15.4288 47.2827 15.1459 47.4184 14.9099 47.616C14.6738 47.8137 14.4923 48.067 14.3821 48.3524C14.2719 48.6378 14.2365 48.946 14.2794 49.2484" stroke="#008080"/>
<path d="M16.6465 47.267C16.7683 47.3043 16.8983 47.307 17.0216 47.2748C17.1449 47.2425 17.2564 47.1766 17.3434 47.0846C17.4304 46.9926 17.4893 46.8782 17.5133 46.7547C17.5373 46.6311 17.5255 46.5034 17.4792 46.3862" stroke="#008080"/>
<path d="M18.479 45.0521C18.3114 45.0397 18.1433 45.0694 17.9905 45.1384C17.8377 45.2074 17.7052 45.3135 17.6052 45.4467C17.5052 45.5799 17.4412 45.7359 17.4189 45.9002C17.3967 46.0645 17.417 46.2316 17.478 46.386" stroke="#008080"/>
<path d="M36.7313 0.151825C36.1981 0.146664 35.6364 0.151986 35.0291 0.166676C32.1179 0.237101 30.0506 0.502764 27.3515 1.15364C17.71 3.47869 9.4293 9.72629 4.53566 18.3677C0.779921 24.9997 -0.714467 32.9105 0.366883 40.4363C2.15724 52.8967 10.3353 63.3552 22.1105 68.243C25.4867 69.6444 29.022 70.4904 33.2221 70.9018C34.1821 70.9959 39.2949 70.8758 40.3113 70.7353C44.806 70.1143 48.3035 69.064 52.0811 67.2008C61.2353 62.6859 67.9348 54.5872 70.6501 44.7537C73.0814 35.9486 71.8855 26.3329 67.3665 18.3511C61.893 8.68344 52.2934 2.12967 41.2257 0.504226C39.6744 0.276394 38.3308 0.167309 36.7313 0.151825ZM36.1303 4.20575C37.5797 4.21481 39.0327 4.27161 39.8015 4.3719C43.6569 4.87483 46.8075 5.82178 50.2268 7.5049C58.9916 11.8194 65.2679 19.9351 67.1786 29.4249C69.5662 41.2829 64.8832 53.3738 55.0919 60.6319C50.6031 63.9592 45.6544 65.9454 39.9406 66.7129C38.9261 66.8491 34.5516 66.9677 33.6854 66.8823C32.2076 66.7368 31.3262 66.626 30.442 66.4747C16.984 64.1719 6.43053 53.4682 4.45399 40.1166C3.21733 31.763 5.4022 23.3587 10.5595 16.6315C15.8486 9.73238 23.5694 5.3983 32.4808 4.32613C33.2352 4.23536 34.6809 4.19669 36.1303 4.20575ZM36.5117 16.3745C35.2668 16.3783 34.9519 16.411 34.1487 16.6191C33.0637 16.9003 31.7707 17.4921 30.8088 18.1479C30.0254 18.6819 28.928 19.7771 28.3838 20.568C26.3209 23.5659 26.0693 27.3074 27.7139 30.5259C28.2852 31.6441 28.8832 32.4467 29.7367 33.2407C31.2461 34.6448 33.2268 35.5841 35.2609 35.8604C36.2815 35.999 37.9141 35.9046 38.941 35.6477C42.6063 34.7309 45.2782 32.0865 46.2538 28.41C46.4395 27.7102 46.4684 27.3877 46.4628 26.0896C46.4572 24.7697 46.4265 24.4711 46.2166 23.6947C45.3692 20.5606 43.0505 18.0317 40.0264 16.9434C38.7128 16.4707 38.0887 16.3697 36.5117 16.3745ZM36.6735 21.5723C37.5964 21.5861 38.519 21.8725 39.3039 22.4569C40.9686 23.6965 41.6179 25.7113 40.9601 27.5967C40.725 28.2705 40.4709 28.6737 39.91 29.2624C39.348 29.8522 38.7656 30.2246 38.0408 30.4576C35.0132 31.4309 31.9711 29.2644 31.9711 26.1352C31.9711 25.2032 32.2026 24.4109 32.6945 23.6605C33.5966 22.2841 35.1354 21.5494 36.6735 21.5723ZM28.7461 32.4419C28.7418 32.4416 28.7406 32.4448 28.7427 32.4518C28.7599 32.5084 30.5239 35.7667 32.6628 39.6926C34.8016 43.6184 36.5799 46.8003 36.6145 46.7633C36.7014 46.6703 44.1838 32.9181 44.2637 32.7045C44.2992 32.6095 43.9946 32.8443 43.5867 33.226C42.2706 34.4579 40.7642 35.2943 39.0395 35.7508C38.2395 35.9626 37.9544 35.9913 36.6044 35.9951C34.9664 35.9996 34.2057 35.8702 32.8975 35.3647C31.6282 34.8742 30.0418 33.8079 29.1876 32.8713C28.9584 32.62 28.7765 32.4441 28.7461 32.4419Z" fill="#008080"/>
<path d="M18.3151 45.1255C18.1871 45.1243 18.108 45.1463 17.9936 45.2038C17.7658 45.3184 17.5889 45.5162 17.5138 45.7409C17.4615 45.8969 17.4657 45.9993 17.5462 46.5482C17.5807 46.7838 17.5386 46.918 17.3713 47.1059C17.1654 47.3372 16.9588 47.38 16.4946 47.2873C16.0574 47.1999 15.7197 47.2384 15.3129 47.422C14.8132 47.6476 14.3899 48.24 14.3319 48.7947C14.2777 49.3125 14.517 50.2406 14.8846 50.9374C15.5998 52.2929 16.9172 53.2832 18.3259 53.5241C18.4788 53.5503 18.6561 53.5809 18.7198 53.5921C18.7835 53.6033 19.0859 53.6046 19.3917 53.595C20.4041 53.5633 21.0993 53.3226 22.1375 52.6444C23.0867 52.0244 23.628 51.8599 24.6044 51.8949C25.0578 51.9111 25.2691 51.9418 25.5774 52.0364C25.794 52.1029 26.0925 52.18 26.2406 52.2078C26.9719 52.3452 27.8267 51.8794 28.1614 51.1611C28.3301 50.7989 28.3575 50.2343 28.2246 49.8612C28.1069 49.5307 27.903 49.2371 27.6506 49.0341C27.113 48.602 24.3094 47.1645 22.8206 46.5577C21.2311 45.9099 19.004 45.1823 18.4625 45.1339C18.4059 45.1289 18.3578 45.1259 18.3151 45.1255ZM48.6642 48.3263C48.0056 48.3405 47.3527 48.5356 46.8209 48.9036C46.6684 49.0091 46.3456 49.2396 46.1035 49.4158C45.587 49.7919 44.7318 50.2197 44.1111 50.4126C43.3688 50.6433 42.966 50.6998 41.7944 50.7374C40.8516 50.7677 40.6652 50.786 40.4044 50.8735C38.8485 51.3958 38.0106 52.9798 38.456 54.557C39.0452 56.6435 40.7988 58.2053 42.9931 58.5977C43.1482 58.6254 43.616 58.6632 44.0326 58.6817C44.7592 58.714 44.8024 58.7214 45.0934 58.8627C46.1627 59.3818 46.4033 60.8088 45.5617 61.6388C45.3332 61.8641 45.0676 62.0126 44.6671 62.139C43.9229 62.3738 43.1339 62.9001 42.6313 63.4969C42.2872 63.9055 41.8722 64.7032 41.7447 65.201C41.6933 65.4021 41.6386 65.7363 41.6232 65.9436C41.5896 66.3965 41.5189 66.3761 42.4575 66.1836C45.1687 65.6277 48.0446 64.6227 50.459 63.3877C55.0015 61.064 58.8683 57.7714 61.7708 53.7554C62.2254 53.1265 62.8843 52.1475 62.8643 52.1308C62.8583 52.1256 62.6198 52.1589 62.3344 52.2048C59.8681 52.6015 57.2203 52.3147 54.8608 51.3952C53.6677 50.9303 52.2065 50.0985 51.2465 49.3378C50.7113 48.9136 50.6191 48.8517 50.2478 48.6682C49.8438 48.4687 49.3976 48.3572 48.9464 48.3314C48.8524 48.326 48.7583 48.3243 48.6642 48.3263Z" fill="#008080"/>
</g>
<defs>
<clipPath id="clip0_121_6595">
<rect width="72" height="71" fill="white"/>
</clipPath>
</defs>
</svg>
