<svg width="72" height="72" viewBox="0 0 72 72" fill="none" xmlns="http://www.w3.org/2000/svg">
<circle cx="36" cy="36" r="35.5" fill="white" stroke="white"/>
<g clip-path="url(#clip0_121_6597)">
<path d="M67.8116 36.0367C67.8107 27.6059 64.4609 19.5207 58.4991 13.5595C52.5373 7.5984 44.4518 4.24951 36.021 4.24951C27.5902 4.24951 19.5047 7.5984 13.5429 13.5595C7.58112 19.5207 4.23137 27.6059 4.23047 36.0367C4.23137 44.4675 7.58112 52.5526 13.5429 58.5138C19.5047 64.4749 27.5902 67.8238 36.021 67.8238C44.4518 67.8238 52.5373 64.4749 58.4991 58.5138C64.4609 52.5526 67.8107 44.4675 67.8116 36.0367Z" stroke="#008080"/>
<path d="M14.4824 30.9585V40.606" stroke="#008080"/>
<path d="M14.4824 40.6064C14.4824 40.8482 14.53 41.0876 14.6226 41.311C14.7151 41.5344 14.8507 41.7373 15.0217 41.9083C15.1926 42.0793 15.3956 42.2149 15.619 42.3074C15.8423 42.3999 16.0818 42.4476 16.3235 42.4476" stroke="#008080"/>
<path d="M16.3235 29.1177C16.0818 29.1177 15.8423 29.1653 15.619 29.2578C15.3956 29.3503 15.1926 29.486 15.0217 29.6569C14.8507 29.8279 14.7151 30.0308 14.6226 30.2542C14.53 30.4776 14.4824 30.717 14.4824 30.9588" stroke="#008080"/>
<path d="M22.7511 29.1177H16.3223" stroke="#008080"/>
<path d="M25.3066 29.1175L34.4855 20.9028" stroke="#008080"/>
<path d="M37.5552 22.2747C37.5552 21.9192 37.4524 21.5714 37.259 21.2731C37.0656 20.9749 36.79 20.739 36.4655 20.5939C36.141 20.4488 35.7814 20.4008 35.4302 20.4556C35.079 20.5104 34.7512 20.6657 34.4863 20.9028" stroke="#008080"/>
<path d="M37.5547 22.2749V49.2902" stroke="#008080"/>
<path d="M34.4863 50.662C34.7512 50.899 35.079 51.0543 35.4302 51.1091C35.7814 51.1639 36.141 51.1159 36.4655 50.9708C36.79 50.8258 37.0656 50.5899 37.259 50.2916C37.4524 49.9934 37.5552 49.6455 37.5552 49.29" stroke="#008080"/>
<path d="M22.7511 42.4473H16.3223" stroke="#008080"/>
<path d="M25.3066 42.4473L34.4855 50.6619" stroke="#008080"/>
<path d="M39.6074 42.583C41.155 40.6543 41.9985 38.2555 41.9985 35.7827C41.9985 33.3099 41.155 30.9111 39.6074 28.9824" stroke="#008080"/>
<path d="M41.8652 44.395C43.8253 41.9524 44.8935 38.9143 44.8935 35.7825C44.8935 32.6507 43.8253 29.6125 41.8652 27.1699" stroke="#008080"/>
<path d="M44.1367 46.2171C46.5115 43.2577 47.8057 39.5768 47.8057 35.7824C47.8057 31.988 46.5115 28.3071 44.1367 25.3477" stroke="#008080"/>
<path d="M46.6055 48.1992C49.4313 44.6777 50.9714 40.2976 50.9714 35.7825C50.9714 31.2673 49.4313 26.8873 46.6055 23.3657" stroke="#008080"/>
<path d="M48.6387 49.8296C51.8355 45.8457 53.5778 40.8905 53.5778 35.7825C53.5778 30.6745 51.8355 25.7193 48.6387 21.7354" stroke="#008080"/>
<path d="M50.8691 51.62C54.4734 47.1283 56.4378 41.5416 56.4378 35.7827C56.4378 30.0237 54.4734 24.437 50.8691 19.9453" stroke="#008080"/>
<path d="M39.6073 42.583C39.3672 42.8825 39.2558 43.2651 39.2977 43.6467C39.3396 44.0283 39.5314 44.3776 39.8308 44.6179C40.1302 44.8581 40.5127 44.9696 40.8943 44.9279C41.2759 44.8861 41.6253 44.6946 41.8657 44.3953" stroke="#008080"/>
<path d="M44.1355 46.2173C43.8727 46.5448 43.7508 46.9634 43.7966 47.3808C43.8423 47.7982 44.052 48.1804 44.3796 48.4432C44.7071 48.706 45.1256 48.8279 45.543 48.7822C45.9604 48.7365 46.3426 48.5268 46.6055 48.1993" stroke="#008080"/>
<path d="M48.637 49.8296C48.3996 50.1254 48.2895 50.5035 48.3308 50.8805C48.3721 51.2576 48.5615 51.6028 48.8574 51.8402C49.1532 52.0776 49.5313 52.1877 49.9083 52.1464C50.2854 52.1051 50.6306 51.9157 50.868 51.6198" stroke="#008080"/>
<path d="M41.8657 27.1701C41.6253 26.8708 41.2759 26.6792 40.8943 26.6375C40.5127 26.5958 40.1302 26.7073 39.8308 26.9475C39.5314 27.1878 39.3396 27.5371 39.2977 27.9187C39.2558 28.3003 39.3672 28.6829 39.6073 28.9824" stroke="#008080"/>
<path d="M46.6055 23.3658C46.3426 23.0383 45.9604 22.8286 45.543 22.7829C45.1256 22.7371 44.7071 22.8591 44.3796 23.1219C44.052 23.3847 43.8423 23.7669 43.7966 24.1843C43.7508 24.6017 43.8727 25.0202 44.1355 25.3478" stroke="#008080"/>
<path d="M50.868 19.9453C50.6306 19.6494 50.2854 19.46 49.9083 19.4187C49.5313 19.3773 49.1532 19.4875 48.8574 19.7249C48.5615 19.9623 48.3721 20.3075 48.3308 20.6846C48.2895 21.0616 48.3996 21.4396 48.637 21.7355" stroke="#008080"/>
<path d="M22.752 29.1177V42.4475" stroke="#008080"/>
<path d="M25.3066 29.1177V42.4475" stroke="#008080"/>
<path d="M37.2928 0.159579C35.3368 0.130571 32.7086 0.212756 31.6006 0.365103C26.0602 1.12695 21.2072 2.87595 16.7272 5.72539C7.93018 11.3206 1.99058 20.5 0.464197 30.8589C-0.127561 34.8749 0.00377837 39.2561 0.838216 43.3378C2.83288 53.0948 9.0036 61.7697 17.5739 66.8649C22.3305 69.6927 27.4014 71.3263 33.0832 71.8614C34.3798 71.9835 38.8482 71.901 40.2188 71.7298C47.2411 70.8523 53.6196 68.1148 59.0006 63.669C59.5522 63.2132 60.6723 62.1706 61.4896 61.3522C67.3242 55.5094 70.8849 47.9923 71.7761 39.6355C71.9676 37.8398 71.9687 34.2668 71.7784 32.4806C71.0127 25.2964 68.3429 18.8445 63.834 13.2816C62.7744 11.9743 60.1367 9.32839 58.8452 8.27726C53.1081 3.60791 46.3007 0.854446 38.9435 0.22726C38.5221 0.191336 37.9448 0.169248 37.2928 0.159579ZM36.9196 4.24686C41.9499 4.38077 46.0683 5.43537 50.6178 7.75459C58.968 12.0113 65.1489 20.0545 67.1324 29.2454C67.6867 31.8136 67.7789 32.7679 67.7816 35.9556C67.7836 38.3005 67.7499 39.1634 67.6206 40.0793C67.0958 43.7963 66.1811 46.8074 64.5944 50.0413C62.9944 53.3021 61.23 55.7848 58.6776 58.3662C53.5066 63.5961 47.199 66.7036 39.829 67.6526C38.4885 67.8252 34.723 67.9038 33.4539 67.7856C29.2128 67.3908 25.4674 66.3441 21.8687 64.5479C12.5472 59.8954 6.09449 51.0637 4.54138 40.8325C3.36131 33.0589 5.09992 25.0958 9.39991 18.5802C10.64 16.7012 11.7144 15.3922 13.4374 13.6606C16.1465 10.938 18.463 9.24423 21.7314 7.5962C26.5413 5.17081 31.3978 4.09986 36.9196 4.24686ZM49.7543 19.5072C48.5714 19.5063 47.996 20.7794 48.7352 21.7625C49.5736 22.8776 50.2666 23.9212 50.7695 24.8259C53.9441 30.5365 54.4906 37.1876 52.2966 43.4088C51.6263 45.3095 50.4 47.5283 48.791 49.7519C48.6111 50.0006 48.4391 50.3033 48.4086 50.4245C48.2606 51.0141 48.7463 51.8552 49.333 52.0251C49.7268 52.1392 49.7593 52.1394 50.1522 52.0302C50.5789 51.9117 51.0162 51.4249 51.975 50.0012C54.3681 46.4479 55.7264 42.7894 56.2092 38.5967C56.3991 36.9468 56.3512 33.6215 56.1158 32.1098C55.4715 27.9729 53.9121 24.1945 51.4557 20.8185C50.6672 19.7348 50.3727 19.5078 49.7543 19.5072ZM35.8582 20.5292C35.5075 20.5136 35.1403 20.5841 34.8711 20.7347C34.6661 20.8494 32.451 22.7782 29.9486 25.0208L25.3989 29.0981L25.3954 35.7734L25.3918 42.4487L29.9917 46.5693C32.5216 48.8356 34.6587 50.7295 34.7409 50.7778C34.8231 50.8261 35.0363 50.9181 35.2147 50.9822C35.6179 51.1273 35.7291 51.1302 36.167 51.0086C36.5759 50.8951 37.1037 50.4595 37.3277 50.0506C37.4738 49.7838 37.485 48.7675 37.485 35.8629C37.485 28.2178 37.4531 21.8488 37.4141 21.7095C37.316 21.359 36.8067 20.8018 36.4469 20.6514C36.2731 20.5788 36.0686 20.5385 35.8582 20.5292ZM45.5116 22.8557C45.4157 22.851 45.3148 22.855 45.2063 22.8654C44.6297 22.9208 44.1762 23.268 43.9679 23.8135C43.7605 24.3566 43.835 24.8061 44.2216 25.3439C46.3319 28.2799 47.3333 30.6709 47.7315 33.7242C47.895 34.978 47.7974 37.7536 47.546 39.0025C47.0287 41.5716 45.9342 43.9374 44.1816 46.2745C43.9215 46.6213 43.8796 46.7514 43.8821 47.2047C43.8854 47.8025 44.1162 48.2199 44.6101 48.5211C45.0244 48.7737 45.7541 48.7578 46.159 48.4872C46.828 48.0403 48.3401 45.7349 49.1404 43.9418C50.3447 41.2434 50.8704 38.7737 50.8739 35.7982C50.876 33.9461 50.7056 32.5372 50.2789 30.8796C49.7311 28.7514 48.8529 26.749 47.6966 24.9919C46.6129 23.3453 46.1834 22.8883 45.5116 22.8557ZM40.71 26.7357C39.9131 26.7368 39.3865 27.2716 39.3854 28.0811C39.3849 28.4967 39.4405 28.6267 39.9012 29.2859C41.3989 31.4293 42.0158 33.3191 42.0179 35.7702C42.0199 38.1648 41.3499 40.2672 39.9798 42.1663C39.5346 42.7834 39.4397 42.9838 39.4054 43.3771C39.3444 44.0776 39.7268 44.6628 40.3577 44.8342C40.6375 44.9102 41.2575 44.8138 41.497 44.657C41.7685 44.4793 42.5109 43.4695 43.006 42.6045C45.7155 37.8704 45.3794 32.0692 42.1385 27.635C41.6088 26.9103 41.3301 26.7349 40.71 26.7357ZM22.7044 29.1444L19.4841 29.1449C17.4448 29.1452 16.128 29.1827 15.8932 29.2468C15.3746 29.3885 14.9304 29.7514 14.7269 30.1995C14.5644 30.5572 14.5534 30.9017 14.5515 35.75C14.5497 40.2093 14.5691 40.9664 14.6929 41.2625C14.8842 41.7204 15.1666 42.0138 15.6152 42.2209C15.9538 42.3771 16.2775 42.3921 19.3452 42.394L22.7044 42.3961V35.7702V29.1444Z" fill="#008080"/>
<circle cx="58" cy="58" r="13" fill="white" stroke="#16B2A9" stroke-width="2"/>
<rect x="54.3848" y="63.1299" width="13.1207" height="1.62711" rx="0.813557" transform="rotate(-45 54.3848 63.1299)" fill="#16B2A9" stroke="#16B2A9"/>
<rect x="52.1579" y="58.7774" width="6.29371" height="1.47739" rx="0.738695" transform="rotate(45.6554 52.1579 58.7774)" fill="#16B2A9" stroke="#16B2A9"/>
</g>
<defs>
<clipPath id="clip0_121_6597">
<rect width="72" height="72" fill="white"/>
</clipPath>
</defs>
</svg>
