<svg width="71" height="72" viewBox="0 0 71 72" fill="none" xmlns="http://www.w3.org/2000/svg">
<circle cx="36" cy="35" r="34.5" fill="white" stroke="white"/>
<g clip-path="url(#clip0_121_6598)">
<path d="M66.8484 36.0435C66.8475 27.6127 63.5443 19.5275 57.6653 13.5664C51.7863 7.60523 43.8131 4.25635 35.4994 4.25635C27.1857 4.25635 19.2125 7.60523 13.3335 13.5664C7.4545 19.5275 4.15128 27.6127 4.15039 36.0435C4.15128 44.4743 7.4545 52.5595 13.3335 58.5206C19.2125 64.4818 27.1857 67.8307 35.4994 67.8307C43.8131 67.8307 51.7863 64.4818 57.6653 58.5206C63.5443 52.5595 66.8475 44.4743 66.8484 36.0435Z" stroke="#008080"/>
<path d="M45.7285 59.0989C46.6035 55.3379 46.9349 51.4674 46.7122 47.6094" stroke="#008080" stroke-width="1.00121"/>
<path d="M46.7136 47.6092C46.5013 43.9303 46.1427 40.2617 45.6387 36.6123" stroke="#008080" stroke-width="1.00121"/>
<path d="M45.7756 33.9668C45.5632 34.8315 45.5167 35.7298 45.6385 36.6124" stroke="#008080" stroke-width="1.00121"/>
<path d="M26.4382 38.4532C26.6241 36.6453 26.4916 34.8182 26.0469 33.0576" stroke="#008080" stroke-width="1.00121"/>
<path d="M26.4381 38.4531C25.8701 43.9765 26.0614 49.5533 27.0066 55.023" stroke="#008080" stroke-width="1.00121"/>
<path d="M45.6387 36.6125C47.4924 33.6312 48.5406 30.2061 48.6777 26.6821" stroke="#008080" stroke-width="1.00121"/>
<path d="M48.6773 26.6823C48.7586 24.5922 48.2147 22.5262 47.1172 20.7568" stroke="#008080" stroke-width="1.00121"/>
<path d="M47.1171 20.7565C46.8989 20.4047 46.6062 20.1068 46.2605 19.8846C45.9147 19.6623 45.5245 19.5212 45.1183 19.4716C44.7121 19.422 44.3001 19.4651 43.9124 19.5979C43.5246 19.7306 43.1709 19.9495 42.877 20.2388" stroke="#008080" stroke-width="1.00121"/>
<path d="M38.2188 22.3567C39.9676 22.2281 41.6162 21.4784 42.8759 20.2388" stroke="#008080" stroke-width="1.00121"/>
<path d="M31.5 21.792C33.6976 22.332 35.9643 22.5225 38.2193 22.3568" stroke="#008080" stroke-width="1.00121"/>
<path d="M28.8125 20.0977C29.5072 20.9399 30.4492 21.5337 31.5002 21.792" stroke="#008080" stroke-width="1.00121"/>
<path d="M28.8133 20.0975C28.2947 19.4689 27.5679 19.0548 26.7697 18.9335C25.9715 18.8121 25.1573 18.9918 24.4805 19.4386" stroke="#008080" stroke-width="1.00121"/>
<path d="M24.4794 19.439C23.5584 20.047 22.8675 20.9545 22.5195 22.0133" stroke="#008080" stroke-width="1.00121"/>
<path d="M22.52 22.0132C22.0418 23.4683 21.8675 25.0087 22.0082 26.5362C22.149 28.0636 22.6018 29.5444 23.3377 30.8838" stroke="#008080" stroke-width="1.00121"/>
<path d="M23.3379 30.8838C24.3472 32.7211 25.4053 34.5302 26.5109 36.3093" stroke="#008080" stroke-width="1.00121"/>
<path d="M45.117 19.4716C43.6207 19.1976 42.0794 19.3373 40.6543 19.8759" stroke="#008080" stroke-width="1.00121"/>
<path d="M38.4043 19.7329C38.7488 19.9155 39.1272 20.0226 39.515 20.0472C39.9027 20.0718 40.2913 20.0134 40.6555 19.8758" stroke="#008080" stroke-width="1.00121"/>
<path d="M38.4039 19.7332C37.9427 19.4887 37.423 19.3814 36.9046 19.4235C36.3861 19.4656 35.8898 19.6555 35.4727 19.9713" stroke="#008080" stroke-width="1.00121"/>
<path d="M32.7988 19.8047C33.1532 20.149 33.6161 20.3546 34.1055 20.3851C34.5948 20.4157 35.0789 20.2691 35.4721 19.9714" stroke="#008080" stroke-width="1.00121"/>
<path d="M32.8002 19.8045C32.4523 19.4665 32.0394 19.2053 31.5874 19.0372C31.1354 18.8692 30.6542 18.7979 30.1738 18.828" stroke="#008080" stroke-width="1.00121"/>
<path d="M26.7695 18.9337C27.9051 18.9342 29.0404 18.899 30.1738 18.8281" stroke="#008080" stroke-width="1.00121"/>
<path d="M35.7969 21.6334C37.1811 21.5563 38.5406 21.2273 39.8105 20.6621" stroke="#008080" stroke-width="1.00121"/>
<path d="M35.7978 21.6333C35.2245 21.6652 34.6543 21.7401 34.0918 21.8573" stroke="#008080" stroke-width="1.00121"/>
<path d="M35.7983 21.6334C34.702 20.8245 33.352 20.4525 32.0039 20.5878" stroke="#008080" stroke-width="1.00121"/>
<path d="M33.0072 52.0093C32.8736 53.6079 32.8837 55.2155 33.0375 56.8123" stroke="#008080" stroke-width="1.00121"/>
<path d="M33.0059 52.0091C33.104 50.835 33.1041 49.6546 33.0061 48.4805" stroke="#008080" stroke-width="1.00121"/>
<path d="M34.4246 40.3091C33.2612 42.8614 32.7723 45.6779 33.0062 48.4808" stroke="#008080" stroke-width="1.00121"/>
<path d="M37.5486 39.8358C37.3399 39.5986 37.0764 39.4179 36.782 39.3099C36.4875 39.2019 36.1713 39.1699 35.8617 39.2168C35.552 39.2637 35.2587 39.3881 35.0081 39.5788C34.7575 39.7694 34.5574 40.0204 34.4258 40.3091" stroke="#008080" stroke-width="1.00121"/>
<path d="M39.7109 44.4687C39.4444 42.7448 38.6936 41.1359 37.5488 39.8354" stroke="#008080" stroke-width="1.00121"/>
<path d="M40.4782 53.2418C40.4162 50.3033 40.1598 47.3723 39.7109 44.4688" stroke="#008080" stroke-width="1.00121"/>
<path d="M40.4766 53.2417C40.5126 54.9463 40.868 56.6283 41.5239 58.1975" stroke="#008080" stroke-width="1.00121"/>
<path d="M58.082 31.9673C54.3448 31.5301 50.5609 32.1309 47.1328 33.7057" stroke="#008080" stroke-width="1.00121"/>
<path d="M24.8884 33.6182C23.4012 32.8014 21.7682 32.2956 20.0857 32.1307C18.4031 31.9658 16.7051 32.1451 15.0918 32.658" stroke="#008080" stroke-width="1.00121"/>
<path d="M10.127 33.7001C11.8119 33.5213 13.4752 33.1723 15.0921 32.6582" stroke="#008080" stroke-width="1.00121"/>
<path d="M26.4336 50.8462C26.5763 52.2449 26.7676 53.6381 27.0069 55.0231" stroke="#008080" stroke-width="1.00121"/>
<path d="M27.0078 55.0234C27.3998 57.2919 28.4338 59.3951 29.9834 61.0756" stroke="#008080" stroke-width="1.00121"/>
<path d="M29.9824 61.0756C30.1321 61.238 30.3141 61.3661 30.5163 61.4515C30.7185 61.5369 30.9363 61.5776 31.1551 61.5708C31.374 61.5641 31.5889 61.5101 31.7857 61.4125C31.9824 61.3148 32.1564 61.1757 32.2962 61.0044" stroke="#008080" stroke-width="1.00121"/>
<path d="M32.2969 61.0042C32.8201 60.363 33.1002 59.5526 33.0866 58.7197" stroke="#008080" stroke-width="1.00121"/>
<path d="M33.087 58.72C33.0765 58.084 33.0599 57.4482 33.0371 56.8125" stroke="#008080" stroke-width="1.00121"/>
<path d="M40.7695 55.7705C40.9453 56.6021 41.1985 57.4148 41.5257 58.1977" stroke="#008080" stroke-width="1.00121"/>
<path d="M41.5254 58.1978C41.8407 58.9521 42.164 59.7029 42.4953 60.45" stroke="#008080" stroke-width="1.00121"/>
<path d="M42.4941 60.4499C42.6068 60.7039 42.7896 60.9192 43.0204 61.0696C43.2512 61.22 43.5201 61.299 43.7942 61.2969C44.0683 61.2949 44.336 61.2119 44.5646 61.0581C44.7932 60.9044 44.973 60.6864 45.082 60.4307" stroke="#008080" stroke-width="1.00121"/>
<path d="M45.7286 59.0986C45.4916 59.5315 45.2758 59.9761 45.082 60.4306" stroke="#008080" stroke-width="1.00121"/>
<path d="M33.2626 71.916C26.3361 71.4164 19.8677 69.0124 14.3923 64.9027C7.12677 59.4495 2.12602 51.2259 0.598037 42.2184C0.190557 39.8163 0.136719 39.0971 0.136719 36.056C0.136719 33.0053 0.192585 32.2563 0.598991 29.8585C1.29508 25.7514 2.84543 21.4602 4.94265 17.8356C12.1906 5.3091 26.2532 -1.56256 40.4818 0.469516C49.763 1.79503 58.2426 6.88626 63.8675 14.5105C67.6529 19.6412 69.912 25.4396 70.7456 32.1639C70.9354 33.695 70.9074 38.6439 70.6997 40.2724C69.8069 47.2727 67.1975 53.4781 62.8865 58.8525C61.916 60.0625 59.1885 62.8348 58.0182 63.8009C52.5765 68.2932 46.1965 70.9985 39.2075 71.7772C37.6254 71.9534 34.7215 72.0213 33.2626 71.916ZM38.4257 67.7386C47.5928 66.941 56.2542 61.7533 61.4626 53.9406C64.2868 49.7043 65.9411 45.264 66.6795 39.9379C66.9077 38.2917 66.9048 33.8125 66.6745 32.1175C65.7897 25.608 63.4299 20.2226 59.298 15.2832C55.431 10.6605 50.0145 7.1454 44.0931 5.41588C41.2924 4.59784 38.6496 4.23443 35.5014 4.23443C31.7657 4.23443 28.7536 4.73443 25.3124 5.9258C15.292 9.39491 7.60276 17.8934 5.02722 28.3456C4.36602 31.029 4.15741 32.8793 4.15792 36.056C4.15833 38.63 4.2271 39.5407 4.5743 41.5697C6.27232 51.4932 12.7571 60.2293 21.7028 64.6447C26.9569 67.2381 32.4652 68.2572 38.4257 67.7386Z" fill="#008080"/>
<path d="M30.6927 61.4392C29.7925 61.2067 28.118 58.6832 27.4487 56.5505C26.9509 54.9644 26.4081 50.7973 26.2357 47.2384C26.1333 45.126 26.1726 42.4398 26.3368 40.3346C26.3825 39.7484 26.4638 38.7059 26.5174 38.0178C26.5843 37.1601 26.5861 36.4358 26.5234 35.7141C26.4226 34.5557 26.1652 33.1064 26.0603 33.1064C26.0236 33.1064 26.0476 33.3428 26.1139 33.6316C26.2654 34.2929 26.4649 35.8782 26.4043 35.9397C26.3226 36.0225 23.8585 31.7928 23.1611 30.3727C21.919 27.8437 21.6925 24.7925 22.5508 22.1537C22.9879 20.8097 23.8154 19.8189 24.9643 19.2639C25.479 19.0153 25.6558 18.9775 26.2893 18.9812C27.3047 18.987 27.8304 19.2448 28.8763 20.25C29.8721 21.2071 30.4418 21.5456 31.5518 21.8399C33.2773 22.2974 34.2487 22.4035 36.6611 22.3981C38.8289 22.3932 38.9255 22.3851 39.7048 22.1421C40.9496 21.754 41.812 21.2661 42.738 20.4262C43.4166 19.8107 44.0666 19.5313 44.7941 19.5424C46.0302 19.5613 46.844 20.1995 47.5688 21.7184C48.4406 23.5456 48.7448 25.332 48.5572 27.5239C48.4204 29.1227 48.0932 30.761 47.6209 32.2122C47.2369 33.3922 45.8541 36.3498 45.6864 36.3498C45.5925 36.3498 45.6403 34.8611 45.7564 34.1721C45.802 33.9012 45.8006 33.9 45.7027 34.1257C45.4705 34.6608 45.4973 35.9659 45.7884 38.2958C46.9372 47.4928 46.9848 52.4056 45.9752 57.5964C45.7629 58.6879 45.6251 59.1425 45.296 59.8378C45.069 60.3175 44.7762 60.7954 44.6453 60.8998C44.1205 61.3185 43.3539 61.3149 42.8993 60.8916C42.6426 60.6525 42.2979 59.9349 41.6456 58.2814C40.8028 56.1452 40.6285 55.2302 40.4981 52.2587C40.3842 49.6629 40.202 47.586 39.9023 45.4664C39.5865 43.2323 39.2737 42.2846 38.3919 40.8907C37.6206 39.6713 36.9054 39.1301 36.0672 39.1312C35.6538 39.1318 34.887 39.5335 34.6293 39.8844C34.1584 40.5255 33.4581 42.6049 33.0888 44.4583C33.0155 44.826 32.9648 46.4575 32.939 49.2771C32.9176 51.6216 32.8946 53.8526 32.8879 54.2348C32.8812 54.6171 32.911 55.889 32.9542 57.0612C33.0429 59.4688 32.9881 59.8514 32.4355 60.6832C31.9801 61.3687 31.3979 61.6213 30.6927 61.4392Z" fill="#008080"/>
<path d="M35.5071 22.3364C33.6062 22.2057 31.7649 21.8901 30.9032 21.5473C30.1178 21.2349 29.7337 20.9681 29.0293 20.2457C28.2895 19.487 28.0412 19.2994 27.4886 19.0813L27.2637 18.9926L28.0011 18.9706C28.4067 18.9586 29.0729 18.9324 29.4816 18.9125C30.3552 18.87 30.9112 18.8905 31.2262 18.977C31.801 19.1347 32.2293 19.3704 32.7309 19.8048C33.2589 20.2622 33.6506 20.4239 34.2309 20.4239C34.7312 20.4239 35.0496 20.3165 35.5607 19.9756C36.132 19.5945 36.6095 19.4553 37.2481 19.4836C37.6943 19.5034 37.8883 19.5535 38.3825 19.7764C38.867 19.9949 39.1311 20.0655 39.548 20.0877C39.9788 20.1107 40.2066 20.0715 40.8218 19.8686C41.0884 19.7806 41.4256 19.678 41.5713 19.6406C42.2918 19.4553 43.2687 19.3548 43.9719 19.3937L44.408 19.4178L44.1541 19.4791C43.8581 19.5506 43.4212 19.7503 43.1847 19.9222C43.0934 19.9885 42.894 20.1586 42.7415 20.3002C41.9455 21.0394 41.0867 21.5639 40.1047 21.9105C39.1361 22.2524 38.2453 22.3628 36.541 22.352C36.0523 22.349 35.5871 22.3419 35.5071 22.3364ZM34.397 21.8509C34.7094 21.7915 35.3548 21.7138 35.7656 21.6862C36.9592 21.6059 38.0821 21.3755 39.0935 21.0033C39.6755 20.789 39.839 20.7112 39.8092 20.6626C39.7905 20.6319 39.7089 20.653 39.4792 20.7478C38.4591 21.1691 37.1439 21.4869 36.126 21.558L35.807 21.5803L35.6167 21.4497C34.9682 21.005 34.1341 20.6849 33.3296 20.5721C32.9092 20.5131 32.0147 20.5159 31.9949 20.5763C31.9864 20.6023 32.1747 20.6184 32.6384 20.6312C33.1163 20.6444 33.381 20.6676 33.6153 20.7167C34.2362 20.8469 34.9091 21.1158 35.4094 21.4335L35.6525 21.5879L35.5394 21.5972C35.2978 21.6169 34.6374 21.7064 34.3682 21.7558C34.1723 21.7918 34.0855 21.8217 34.0855 21.8535C34.0855 21.91 34.0863 21.91 34.397 21.8509Z" fill="#008080"/>
<circle cx="57" cy="58" r="13" fill="white" stroke="#16B2A9" stroke-width="2"/>
<rect x="53.3848" y="63.1299" width="13.1207" height="1.62711" rx="0.813557" transform="rotate(-45 53.3848 63.1299)" fill="#16B2A9" stroke="#16B2A9"/>
<rect x="51.1579" y="58.7774" width="6.29371" height="1.47739" rx="0.738695" transform="rotate(45.6554 51.1579 58.7774)" fill="#16B2A9" stroke="#16B2A9"/>
</g>
<defs>
<clipPath id="clip0_121_6598">
<rect width="71" height="72" fill="white"/>
</clipPath>
</defs>
</svg>
