<svg width="72" height="71" viewBox="0 0 72 71" fill="none" xmlns="http://www.w3.org/2000/svg">
<circle cx="36" cy="36" r="34.5" fill="#F4C692" stroke="white"/>
<g clip-path="url(#clip0_121_6567)">
<path d="M67.8389 35.5342C67.8349 27.2226 64.4837 19.2527 58.5223 13.3768C52.5609 7.50097 44.4771 4.2002 36.0484 4.2002C27.6196 4.2002 19.5359 7.50097 13.5744 13.3768C7.61297 19.2527 4.26184 27.2226 4.25781 35.5342C4.26184 43.8459 7.61297 51.8158 13.5744 57.6916C19.5359 63.5675 27.6196 66.8683 36.0484 66.8683C44.4771 66.8683 52.5609 63.5675 58.5223 57.6916C64.4837 51.8158 67.8349 43.8459 67.8389 35.5342Z" stroke="#008080"/>
<path d="M35.2473 33.1866L29.8887 16.7275" stroke="#008080"/>
<path d="M29.8887 16.7275L31.4895 31.3817" stroke="#008080"/>
<path d="M31.4883 31.3818L34.1841 33.8526" stroke="#008080"/>
<path d="M29.8887 16.7275L37.2375 29.5619" stroke="#008080"/>
<path d="M37.2375 29.562L36.5039 33.1185" stroke="#008080"/>
<path d="M34.1479 37.1538L13.3984 55.3548" stroke="#008080"/>
<path d="M13.3984 55.3545L27.2445 39.0469" stroke="#008080"/>
<path d="M27.2441 39.0472L33.7026 36.4497" stroke="#008080"/>
<path d="M13.3984 55.3549L31.4364 43.6943" stroke="#008080"/>
<path d="M31.4375 43.6942L34.8063 37.6714" stroke="#008080"/>
<path d="M38.4958 35.523C38.4954 34.8726 38.2331 34.2488 37.7666 33.789C37.3 33.3291 36.6673 33.0708 36.0077 33.0708C35.348 33.0708 34.7153 33.3291 34.2488 33.789C33.7822 34.2488 33.5199 34.8726 33.5195 35.523C33.5199 36.1735 33.7822 36.7973 34.2488 37.2571C34.7153 37.717 35.348 37.9753 36.0077 37.9753C36.6673 37.9753 37.3 37.717 37.7666 37.2571C38.2331 36.7973 38.4954 36.1735 38.4958 35.523Z" stroke="#008080"/>
<path d="M35.875 6.43896V11.4368" stroke="#008080" stroke-width="0.5"/>
<path d="M35.8743 11.4365L34.1934 8.59814" stroke="#008080" stroke-width="0.5"/>
<path d="M34.1934 8.59838L35.8743 6.43896" stroke="#008080" stroke-width="0.5"/>
<path d="M35.875 11.4365L37.5559 8.59814" stroke="#008080" stroke-width="0.5"/>
<path d="M37.5559 8.59838L35.875 6.43896" stroke="#008080" stroke-width="0.5"/>
<path d="M21.2832 10.2979L23.8173 14.6261" stroke="#008080" stroke-width="0.5"/>
<path d="M23.8188 14.6301L20.9238 12.9922" stroke="#008080" stroke-width="0.5"/>
<path d="M20.9274 12.9967L21.2795 10.2978" stroke="#008080" stroke-width="0.5"/>
<path d="M23.8232 14.626L23.8296 11.3391" stroke="#008080" stroke-width="0.5"/>
<path d="M23.8338 11.3433L21.2832 10.2939" stroke="#008080" stroke-width="0.5"/>
<path d="M10.5977 20.8291L14.9868 23.328" stroke="#008080" stroke-width="0.5"/>
<path d="M14.9875 23.3233L11.6543 23.3496" stroke="#008080" stroke-width="0.5"/>
<path d="M11.6502 23.3445L10.6024 20.8292" stroke="#008080" stroke-width="0.5"/>
<path d="M14.9825 23.3283L13.339 20.4736" stroke="#008080" stroke-width="0.5"/>
<path d="M13.3346 20.4691L10.5977 20.8335" stroke="#008080" stroke-width="0.5"/>
<path d="M6.68945 35.2173H11.7576" stroke="#008080" stroke-width="0.5"/>
<path d="M11.7573 35.2174L8.87891 36.875" stroke="#008080" stroke-width="0.5"/>
<path d="M8.87929 36.875L6.68945 35.2174" stroke="#008080" stroke-width="0.5"/>
<path d="M11.7573 35.2173L8.87891 33.5597" stroke="#008080" stroke-width="0.5"/>
<path d="M8.87929 33.5597L6.68945 35.2173" stroke="#008080" stroke-width="0.5"/>
<path d="M10.6055 49.6074L14.9947 47.1085" stroke="#008080" stroke-width="0.5"/>
<path d="M14.9891 47.1087L13.3457 49.9634" stroke="#008080" stroke-width="0.5"/>
<path d="M13.3416 49.9676L10.6047 49.6031" stroke="#008080" stroke-width="0.5"/>
<path d="M14.9942 47.1136L11.661 47.0874" stroke="#008080" stroke-width="0.5"/>
<path d="M11.6572 47.0922L10.6094 49.6074" stroke="#008080" stroke-width="0.5"/>
<path d="M21.2773 60.1421L23.8114 55.8139" stroke="#008080" stroke-width="0.5"/>
<path d="M23.8178 55.8137L23.8242 59.1006" stroke="#008080" stroke-width="0.5"/>
<path d="M23.8298 59.0966L21.2791 60.1459" stroke="#008080" stroke-width="0.5"/>
<path d="M23.8114 55.8095L20.9165 57.4475" stroke="#008080" stroke-width="0.5"/>
<path d="M20.9214 57.4432L21.2734 60.1421" stroke="#008080" stroke-width="0.5"/>
<path d="M35.875 63.9976L35.875 58.9998" stroke="#008080" stroke-width="0.5"/>
<path d="M35.8757 59L37.5566 61.8384" stroke="#008080" stroke-width="0.5"/>
<path d="M37.5566 61.8381L35.8757 63.9976" stroke="#008080" stroke-width="0.5"/>
<path d="M35.875 59L34.1941 61.8384" stroke="#008080" stroke-width="0.5"/>
<path d="M34.1941 61.8381L35.875 63.9976" stroke="#008080" stroke-width="0.5"/>
<path d="M50.4688 60.1411L47.9347 55.8129" stroke="#008080" stroke-width="0.5"/>
<path d="M47.9332 55.8088L50.8281 57.4468" stroke="#008080" stroke-width="0.5"/>
<path d="M50.8245 57.4423L50.4725 60.1412" stroke="#008080" stroke-width="0.5"/>
<path d="M47.9288 55.813L47.9224 59.0999" stroke="#008080" stroke-width="0.5"/>
<path d="M47.9181 59.0957L50.4688 60.145" stroke="#008080" stroke-width="0.5"/>
<path d="M61.1543 49.6064L56.7651 47.1075" stroke="#008080" stroke-width="0.5"/>
<path d="M56.7644 47.1122L60.0977 47.0859" stroke="#008080" stroke-width="0.5"/>
<path d="M60.1018 47.0911L61.1496 49.6063" stroke="#008080" stroke-width="0.5"/>
<path d="M56.7695 47.1073L58.4129 49.962" stroke="#008080" stroke-width="0.5"/>
<path d="M58.4174 49.9664L61.1543 49.6021" stroke="#008080" stroke-width="0.5"/>
<path d="M65.0605 35.2183H59.9924" stroke="#008080" stroke-width="0.5"/>
<path d="M59.9927 35.2182L62.8711 33.5605" stroke="#008080" stroke-width="0.5"/>
<path d="M62.8707 33.5605L65.0605 35.2182" stroke="#008080" stroke-width="0.5"/>
<path d="M59.9927 35.2183L62.8711 36.8758" stroke="#008080" stroke-width="0.5"/>
<path d="M62.8707 36.8758L65.0605 35.2183" stroke="#008080" stroke-width="0.5"/>
<path d="M61.1562 20.8271L56.7671 23.3261" stroke="#008080" stroke-width="0.5"/>
<path d="M56.7726 23.3259L58.416 20.4712" stroke="#008080" stroke-width="0.5"/>
<path d="M58.4201 20.467L61.1571 20.8314" stroke="#008080" stroke-width="0.5"/>
<path d="M56.7675 23.3209L60.1007 23.3472" stroke="#008080" stroke-width="0.5"/>
<path d="M60.1045 23.3424L61.1523 20.8271" stroke="#008080" stroke-width="0.5"/>
<path d="M50.4727 10.291L47.9386 14.6192" stroke="#008080" stroke-width="0.5"/>
<path d="M47.9322 14.6194L47.9258 11.3325" stroke="#008080" stroke-width="0.5"/>
<path d="M47.9202 11.3365L50.4709 10.2872" stroke="#008080" stroke-width="0.5"/>
<path d="M47.9386 14.6236L50.8335 12.9856" stroke="#008080" stroke-width="0.5"/>
<path d="M50.8286 12.9899L50.4766 10.291" stroke="#008080" stroke-width="0.5"/>
<path d="M34.1908 70.9137C25.9845 70.399 18.5719 67.4478 12.5099 62.2817C11.3021 61.2524 9.08483 59.0041 8.17934 57.8906C3.83213 52.5445 1.23682 46.5053 0.349525 39.671C0.142474 38.0762 0.113142 33.272 0.301264 31.7665C0.693538 28.6271 1.35439 25.8956 2.37814 23.1822C6.78153 11.511 17.0856 2.98966 29.5574 0.705299C31.9397 0.268947 32.8415 0.199158 36.0905 0.19971C38.8121 0.200158 39.3778 0.225692 40.6776 0.406636C48.8077 1.53836 55.7754 4.93128 61.4392 10.5165C67.1884 16.1858 70.6197 23.1131 71.7386 31.3096C71.949 32.8506 71.9785 37.8237 71.7863 39.3512C71.2229 43.829 70.093 47.5705 68.1434 51.4144C63.0252 61.5053 53.2913 68.5909 41.975 70.463C39.8534 70.8139 36.0824 71.0323 34.1908 70.9137ZM37.8193 66.857C47.3288 66.2866 55.8203 61.8104 61.4818 54.3835C64.944 49.8417 66.9862 44.7928 67.71 38.9856C67.8695 37.7057 67.8674 33.3037 67.7066 32.0406C67.2249 28.2556 66.2663 25.0474 64.635 21.7602C61.5003 15.4436 56.4381 10.4519 50.0372 7.36589C45.7721 5.30956 41.7239 4.32837 36.9709 4.19888C31.5524 4.05125 26.6594 5.10037 21.9122 7.42767C18.6243 9.03959 16.2903 10.7081 13.5669 13.3937C11.4246 15.5062 10.1583 17.087 8.73154 19.4299C4.51231 26.3584 3.19504 34.5405 5.01088 42.5403C6.37694 48.5586 9.85815 54.4481 14.5334 58.6505C19.948 63.5176 26.7802 66.3923 34.0124 66.8467C35.7473 66.9557 36.1561 66.9568 37.8193 66.857Z" fill="#008080"/>
<path d="M35.7232 37.8941C34.7618 37.7972 33.9477 37.1139 33.6657 36.1672C33.5698 35.8449 33.5698 35.2039 33.6657 34.8816C33.9102 34.0608 34.5738 33.4149 35.4001 33.1933C35.5141 33.1627 35.795 33.1381 36.0244 33.1387C37.3771 33.1418 38.4303 34.1872 38.428 35.5244C38.4255 36.9779 37.2089 38.0437 35.7232 37.8941Z" fill="#008080"/>
<path d="M14.0859 54.654C14.0859 54.6362 17.0475 51.1319 20.6672 46.8666L27.2485 39.1114L30.4551 37.8167C33.3361 36.6533 33.6664 36.5299 33.7083 36.6011C33.7339 36.6446 33.8238 36.7838 33.908 36.9104L34.0611 37.1405L33.8617 37.3319C33.752 37.4372 29.3149 41.3329 24.0015 45.989C18.6881 50.6451 14.2834 54.5068 14.2134 54.5705C14.1433 54.6341 14.0859 54.6717 14.0859 54.654Z" fill="#008080"/>
<path d="M14.2722 54.6524C14.5782 54.3648 34.1038 37.2607 34.1262 37.2607C34.1404 37.2607 34.2824 37.3593 34.4419 37.4798L34.7317 37.6989L33.0645 40.6799L31.3974 43.6608L22.8128 49.2106C18.0913 52.263 14.2123 54.7603 14.1928 54.7603C14.1734 54.7603 14.2091 54.7118 14.2722 54.6524Z" fill="#008080"/>
<path d="M32.8727 32.5854C32.1597 31.9318 31.5613 31.3541 31.5428 31.3018C31.5031 31.1894 30.0126 17.4879 30.0334 17.4264C30.0412 17.4033 31.1929 20.9056 32.5926 25.2093C33.9923 29.5131 35.146 33.0588 35.1564 33.0888C35.1667 33.1189 35.053 33.2041 34.9024 33.2791C34.7524 33.3537 34.526 33.4956 34.3994 33.5943L34.1691 33.7738L32.8727 32.5854Z" fill="#008080"/>
<path d="M35.2613 33.0875C35.2613 33.0759 34.1144 29.5436 32.7126 25.2381C31.3109 20.9325 30.1693 17.3959 30.1758 17.379C30.1823 17.3621 31.7607 20.0963 33.6833 23.4551L37.179 29.562L36.8668 31.0927C36.695 31.9345 36.5337 32.7171 36.5083 32.8317L36.4622 33.04L36.0818 33.0373C35.8726 33.0358 35.6024 33.0512 35.4814 33.0716C35.3603 33.092 35.2613 33.0991 35.2613 33.0875Z" fill="#008080"/>
<path d="M35.0525 10.0008C34.6257 9.28047 34.2672 8.66749 34.2559 8.63859C34.2378 8.5923 34.3303 8.46416 35.032 7.56255L35.8286 6.53906L35.8346 7.74334C35.8379 8.40569 35.8379 9.47924 35.8346 10.129L35.8286 11.3104L35.0525 10.0008Z" fill="#008080"/>
<path d="M22.565 12.4357C21.9024 11.3038 21.3642 10.3743 21.3692 10.3702C21.3791 10.3618 23.7787 11.338 23.8001 11.3591C23.8075 11.3664 23.8037 12.0747 23.7917 12.9331L23.7699 14.4938L22.565 12.4357Z" fill="#008080"/>
<path d="M22.3594 13.8393C21.567 13.3933 20.9125 13.0227 20.9048 13.0158C20.8904 13.0028 21.2217 10.4482 21.2509 10.3465C21.2599 10.3154 21.2846 10.29 21.306 10.29C21.3273 10.2901 21.905 10.5192 22.5897 10.7992L23.8347 11.3083L23.8432 12.9538C23.8479 13.8588 23.8401 14.6108 23.8258 14.6248C23.8116 14.6388 23.1517 14.2854 22.3594 13.8393ZM23.6612 14.4174C23.6258 14.3596 23.0834 13.434 22.4558 12.3605C21.4249 10.5972 21.3124 10.4177 21.2914 10.5028C21.2786 10.5545 21.1978 11.1327 21.1116 11.7875C20.9775 12.8076 20.9619 12.9821 21.0025 13.0061C21.2987 13.1815 23.6779 14.5171 23.6981 14.5194C23.7131 14.521 23.6965 14.4751 23.6612 14.4174Z" fill="#008080"/>
<path d="M22.3476 13.7627C21.6374 13.3629 21.036 13.0191 21.0112 12.9988C20.9804 12.9736 20.9717 12.9202 20.9837 12.8296C20.9934 12.7569 21.0612 12.2321 21.1343 11.6634C21.2075 11.0948 21.2789 10.5932 21.293 10.5488C21.3176 10.4714 21.3237 10.4757 21.4394 10.6536C21.5528 10.8279 23.3021 13.7987 23.5702 14.2723C23.6381 14.3923 23.6813 14.4903 23.6663 14.4901C23.6512 14.4899 23.0578 14.1625 22.3476 13.7627Z" fill="#008080"/>
<path d="M12.7708 22.0404C11.6407 21.3973 10.7155 20.8602 10.7149 20.8469C10.7142 20.8335 10.7482 20.8226 10.7905 20.8226C10.8327 20.8226 11.4184 20.7508 12.092 20.6629C12.7655 20.5751 13.3196 20.5062 13.3234 20.5099C13.3423 20.5286 14.8746 23.1827 14.8746 23.1969C14.8746 23.206 14.8635 23.2126 14.85 23.2116C14.8365 23.2106 13.9008 22.6835 12.7708 22.0404Z" fill="#008080"/>
<path d="M11.6065 23.1572C11.27 22.377 10.6804 20.9427 10.6916 20.9317C10.7031 20.9203 14.4678 23.0467 14.7935 23.2487C14.8906 23.3089 14.8724 23.3096 13.2822 23.3101L11.6727 23.3107L11.6065 23.1572Z" fill="#008080"/>
<path d="M6.7991 35.1702C6.81622 35.154 7.29253 34.7912 7.85756 34.364C8.81661 33.639 8.88955 33.5903 8.95513 33.6309C8.99376 33.6547 9.60037 34.0048 10.3031 34.4087C11.0059 34.8127 11.5949 35.1559 11.612 35.1715C11.6299 35.1878 10.6048 35.1998 9.20557 35.1998C7.72972 35.1998 6.78026 35.1882 6.7991 35.1702Z" fill="#008080"/>
<path d="M7.87551 36.085C7.31883 35.6647 6.84178 35.3009 6.81539 35.2766C6.77478 35.2392 7.1419 35.2324 9.20548 35.2324C10.6789 35.2324 11.6312 35.2441 11.6124 35.262C11.5953 35.2782 11.0063 35.622 10.3035 36.026C9.60074 36.43 8.99467 36.7805 8.9567 36.8049C8.8922 36.8463 8.82083 36.7988 7.87551 36.085Z" fill="#008080"/>
<path d="M10.6904 49.472C10.6991 49.4498 10.9242 48.9119 11.1906 48.2766L11.675 47.1216H13.2817C14.2014 47.1216 14.875 47.1337 14.8572 47.1498C14.8113 47.1916 10.7255 49.5124 10.698 49.5124C10.6851 49.5124 10.6817 49.4942 10.6904 49.472Z" fill="#008080"/>
<path d="M11.9675 49.7605C11.2783 49.67 10.7262 49.5844 10.7405 49.5702C10.7924 49.5191 14.8534 47.2187 14.8674 47.2325C14.8753 47.2403 14.5318 47.851 14.1041 48.5895C13.5629 49.5238 13.3102 49.9312 13.2734 49.9287C13.2443 49.9267 12.6566 49.851 11.9675 49.7605Z" fill="#008080"/>
<path d="M21.2821 59.9433C21.2717 59.8836 21.1972 59.3332 21.1165 58.7201C21.0359 58.1071 20.9644 57.5727 20.9576 57.5327C20.9466 57.4673 21.0872 57.3799 22.3217 56.684C23.0788 56.2573 23.7024 55.9124 23.7076 55.9175C23.7129 55.9227 23.5213 56.261 23.282 56.6693C23.0427 57.0776 22.499 58.0057 22.0739 58.7317C21.3525 59.9637 21.2997 60.0445 21.2821 59.9433Z" fill="#008080"/>
<path d="M21.3614 60.0644C21.3614 60.0488 23.7503 55.9662 23.7719 55.9449C23.7796 55.9373 23.7857 56.6423 23.7856 57.5116L23.7853 59.092L22.6798 59.5423C22.0718 59.79 21.5264 60.0119 21.4678 60.0354C21.4092 60.059 21.3614 60.072 21.3614 60.0644Z" fill="#008080"/>
<path d="M35.0412 62.8853C34.6087 62.3295 34.2501 61.8633 34.2442 61.8494C34.2384 61.8354 34.5922 61.2181 35.0305 60.4776L35.8275 59.1313L35.8361 60.3338C35.8408 60.9951 35.8408 62.0671 35.8361 62.716L35.8275 63.8958L35.0412 62.8853Z" fill="#008080"/>
<path d="M35.9082 61.5144C35.9082 59.5092 35.9152 59.1363 35.9521 59.1898C36.0214 59.2905 37.5136 61.8172 37.5136 61.8338C37.5136 61.8481 35.9978 63.8079 35.9372 63.872C35.9204 63.8899 35.9082 62.902 35.9082 61.5144Z" fill="#008080"/>
<path d="M49.1237 59.5656C48.49 59.3051 47.9639 59.0844 47.9548 59.0753C47.9456 59.0662 47.9481 58.3584 47.9603 57.5023L47.9825 55.9458L49.1702 57.9738C49.8234 59.0891 50.3579 60.0114 50.3579 60.0233C50.3579 60.0686 50.2448 60.0266 49.1237 59.5656Z" fill="#008080"/>
<path d="M49.2356 57.984C48.574 56.8536 48.0373 55.9241 48.043 55.9185C48.0487 55.9129 48.6672 56.2539 49.4176 56.6762C50.5892 57.3357 50.7818 57.4545 50.7822 57.5181C50.7826 57.6019 50.4605 60.0178 50.4472 60.0309C50.4424 60.0356 49.8972 59.1145 49.2356 57.984Z" fill="#008080"/>
<path d="M58.9469 48.3228L56.8711 47.1379L58.4688 47.1295C59.3475 47.1249 60.072 47.1267 60.0789 47.1334C60.0948 47.1491 61.0718 49.4739 61.0718 49.496C61.0718 49.5051 61.0607 49.5115 61.0472 49.5101C61.0337 49.5087 60.0886 48.9744 58.9469 48.3228Z" fill="#008080"/>
<path d="M57.654 48.5912C57.2252 47.8502 56.8808 47.2374 56.8888 47.2296C56.9054 47.2132 61.0353 49.5518 61.0375 49.5788C61.0383 49.5886 60.4971 49.6665 59.8349 49.752C59.1726 49.8375 58.5865 49.9144 58.5323 49.923L58.4338 49.9385L57.654 48.5912Z" fill="#008080"/>
<path d="M61.5501 36.0861C60.8317 35.6715 60.2125 35.3106 60.174 35.284C60.1116 35.241 60.3698 35.2356 62.5437 35.2341C64.6151 35.2326 64.9762 35.2391 64.9355 35.2768C64.8783 35.3297 62.9363 36.7959 62.8889 36.8219C62.8709 36.8318 62.2684 36.5007 61.5501 36.0861Z" fill="#008080"/>
<path d="M60.1389 35.1715C60.156 35.1557 60.7777 34.7936 61.5204 34.3668L62.8707 33.5908L63.8957 34.3663C64.4595 34.7928 64.9347 35.1549 64.9519 35.1709C64.9704 35.1883 63.9982 35.2001 62.5454 35.2001C61.1274 35.2001 60.1208 35.1881 60.1389 35.1715Z" fill="#008080"/>
<path d="M56.879 23.2974C56.925 23.253 61.0503 20.9214 61.0622 20.9331C61.0703 20.941 60.8552 21.4755 60.5844 22.1208L60.092 23.2942L58.4785 23.3026C57.5911 23.3072 56.8713 23.3049 56.879 23.2974Z" fill="#008080"/>
<path d="M56.877 23.2037C56.877 23.1911 58.4099 20.5333 58.4321 20.5074C58.4456 20.4917 61.0379 20.8365 61.0371 20.8539C61.0364 20.8704 56.9767 23.1858 56.9094 23.2081C56.8916 23.214 56.877 23.2121 56.877 23.2037Z" fill="#008080"/>
<path d="M48.1362 14.3346C48.7766 13.2249 50.4423 10.3966 50.4509 10.4043C50.4746 10.4256 50.8048 12.9566 50.7866 12.9775C50.7622 13.0055 48.0717 14.5224 48.0465 14.5224C48.0362 14.5224 48.0766 14.4378 48.1362 14.3346Z" fill="#008080"/>
<path d="M47.9594 12.9771C47.9564 12.1389 47.9527 11.4302 47.9512 11.402C47.9492 11.3645 48.2712 11.2191 49.1607 10.8559C49.8274 10.5836 50.3769 10.3646 50.3818 10.3692C50.39 10.3769 48.0086 14.4575 47.9784 14.4875C47.9709 14.4949 47.9624 13.8152 47.9594 12.9771Z" fill="#008080"/>
<path d="M35.9082 8.91715C35.9082 7.60398 35.9207 6.54338 35.936 6.56026C35.984 6.61328 37.467 8.52741 37.4926 8.56941C37.5074 8.59366 37.2117 9.12694 36.7401 9.92636C36.3129 10.6507 35.9509 11.2572 35.9358 11.274C35.9206 11.2909 35.9082 10.2303 35.9082 8.91715Z" fill="#008080"/>
</g>
<defs>
<clipPath id="clip0_121_6567">
<rect width="72" height="71" fill="white"/>
</clipPath>
</defs>
</svg>
